<ttFont>
    <TTGlyph name="A" xMin="10" yMin="-23" xMax="429" yMax="759">
      <contour>
        <pt x="407" y="-6" on="1"/>
        <pt x="401" y="-17" on="0"/>
        <pt x="381" y="-28" on="0"/>
        <pt x="361" y="-13" on="0"/>
        <pt x="352" y="-15" on="0"/>
        <pt x="348" y="-16" on="1"/>
        <pt x="339" y="-17" on="0"/>
        <pt x="321" y="11" on="0"/>
        <pt x="319" y="28" on="0"/>
        <pt x="320" y="36" on="1"/>
        <pt x="324" y="54" on="0"/>
        <pt x="305" y="82" on="0"/>
        <pt x="298" y="96" on="0"/>
        <pt x="298" y="123" on="0"/>
        <pt x="295" y="130" on="0"/>
        <pt x="294" y="132" on="1"/>
        <pt x="289" y="141" on="0"/>
        <pt x="292" y="179" on="0"/>
        <pt x="278" y="194" on="0"/>
        <pt x="255" y="202" on="0"/>
        <pt x="242" y="189" on="0"/>
        <pt x="231" y="171" on="0"/>
        <pt x="215" y="158" on="0"/>
        <pt x="190" y="164" on="0"/>
        <pt x="160" y="146" on="0"/>
        <pt x="154" y="121" on="0"/>
        <pt x="146" y="95" on="0"/>
        <pt x="149" y="73" on="0"/>
        <pt x="146" y="52" on="0"/>
        <pt x="142" y="42" on="1"/>
        <pt x="134" y="17" on="0"/>
        <pt x="123" y="15" on="1"/>
        <pt x="114" y="14" on="0"/>
        <pt x="104" y="15" on="1"/>
        <pt x="93" y="-5" on="0"/>
        <pt x="78" y="-9" on="1"/>
        <pt x="37" y="-18" on="0"/>
        <pt x="29" y="4" on="1"/>
        <pt x="24" y="17" on="0"/>
        <pt x="23" y="38" on="1"/>
        <pt x="21" y="80" on="0"/>
        <pt x="7" y="110" on="0"/>
        <pt x="14" y="152" on="0"/>
        <pt x="12" y="194" on="0"/>
        <pt x="14" y="216" on="0"/>
        <pt x="17" y="234" on="0"/>
        <pt x="21" y="251" on="0"/>
        <pt x="22" y="274" on="0"/>
        <pt x="28" y="304" on="0"/>
        <pt x="31" y="320" on="1"/>
        <pt x="39" y="360" on="0"/>
        <pt x="35" y="400" on="0"/>
        <pt x="46" y="428" on="0"/>
        <pt x="53" y="439" on="1"/>
        <pt x="71" y="468" on="0"/>
        <pt x="69" y="505" on="0"/>
        <pt x="68" y="526" on="0"/>
        <pt x="69" y="537" on="1"/>
        <pt x="74" y="591" on="0"/>
        <pt x="120" y="706" on="1"/>
        <pt x="123" y="717" on="0"/>
        <pt x="155" y="729" on="0"/>
        <pt x="188" y="720" on="0"/>
        <pt x="209" y="721" on="0"/>
        <pt x="224" y="736" on="0"/>
        <pt x="241" y="750" on="0"/>
        <pt x="265" y="759" on="0"/>
        <pt x="295" y="759" on="0"/>
        <pt x="312" y="750" on="1"/>
        <pt x="340" y="735" on="0"/>
        <pt x="358" y="709" on="0"/>
        <pt x="364" y="693" on="0"/>
        <pt x="378" y="665" on="0"/>
        <pt x="377" y="643" on="0"/>
        <pt x="381" y="628" on="1"/>
        <pt x="385" y="613" on="0"/>
        <pt x="377" y="573" on="0"/>
        <pt x="385" y="534" on="0"/>
        <pt x="385" y="520" on="0"/>
        <pt x="386" y="514" on="1"/>
        <pt x="387" y="497" on="0"/>
        <pt x="393" y="484" on="1"/>
        <pt x="399" y="470" on="0"/>
        <pt x="394" y="429" on="0"/>
        <pt x="397" y="402" on="0"/>
        <pt x="406" y="388" on="1"/>
        <pt x="423" y="361" on="0"/>
        <pt x="418" y="328" on="1"/>
        <pt x="417" y="319" on="0"/>
        <pt x="420" y="298" on="0"/>
        <pt x="420" y="281" on="0"/>
        <pt x="418" y="268" on="1"/>
        <pt x="415" y="249" on="0"/>
        <pt x="419" y="222" on="1"/>
        <pt x="425" y="172" on="0"/>
        <pt x="425" y="138" on="0"/>
        <pt x="427" y="115" on="0"/>
        <pt x="428" y="102" on="1"/>
        <pt x="431" y="68" on="0"/>
        <pt x="426" y="-1" on="0"/>
      </contour>
      <contour>
        <pt x="256" y="416" on="0"/>
        <pt x="249" y="472" on="0"/>
        <pt x="249" y="499" on="0"/>
        <pt x="247" y="509" on="1"/>
        <pt x="244" y="525" on="0"/>
        <pt x="230" y="513" on="1"/>
        <pt x="214" y="529" on="0"/>
        <pt x="204" y="514" on="1"/>
        <pt x="197" y="503" on="0"/>
        <pt x="197" y="478" on="1"/>
        <pt x="195" y="461" on="0"/>
        <pt x="184" y="433" on="0"/>
        <pt x="182" y="416" on="1"/>
        <pt x="179" y="396" on="0"/>
        <pt x="164" y="338" on="0"/>
        <pt x="183" y="310" on="0"/>
        <pt x="211" y="318" on="0"/>
        <pt x="225" y="319" on="0"/>
        <pt x="230" y="320" on="1"/>
        <pt x="242" y="321" on="0"/>
        <pt x="255" y="338" on="0"/>
        <pt x="256" y="351" on="0"/>
        <pt x="255" y="358" on="1"/>
        <pt x="252" y="378" on="0"/>
      </contour>
    </TTGlyph>
    <TTGlyph name="AE" xMin="-41" yMin="-36" xMax="639" yMax="742">
      <contour>
        <pt x="422" y="158" on="1"/>
        <pt x="478" y="160" on="1"/>
        <pt x="492" y="160" on="0"/>
        <pt x="519" y="156" on="0"/>
        <pt x="546" y="160" on="0"/>
        <pt x="571" y="167" on="0"/>
        <pt x="595" y="174" on="0"/>
        <pt x="622" y="171" on="0"/>
        <pt x="636" y="159" on="0"/>
        <pt x="638" y="151" on="1"/>
        <pt x="644" y="135" on="0"/>
        <pt x="626" y="99" on="0"/>
        <pt x="612" y="73" on="0"/>
        <pt x="603" y="32" on="0"/>
        <pt x="600" y="12" on="0"/>
        <pt x="592" y="7" on="1"/>
        <pt x="584" y="2" on="0"/>
        <pt x="566" y="-9" on="0"/>
        <pt x="540" y="-3" on="0"/>
        <pt x="497" y="-2" on="0"/>
        <pt x="472" y="-4" on="1"/>
        <pt x="410" y="-7" on="0"/>
        <pt x="376" y="-24" on="0"/>
        <pt x="358" y="-32" on="0"/>
        <pt x="350" y="-34" on="1"/>
        <pt x="335" y="-36" on="0"/>
        <pt x="312" y="-19" on="0"/>
        <pt x="305" y="-14" on="1"/>
        <pt x="286" y="-2" on="0"/>
        <pt x="275" y="1" on="1"/>
        <pt x="251" y="8" on="0"/>
        <pt x="263" y="41" on="1"/>
        <pt x="286" y="103" on="0"/>
        <pt x="257" y="159" on="1"/>
        <pt x="252" y="167" on="0"/>
        <pt x="236" y="163" on="0"/>
        <pt x="213" y="167" on="0"/>
        <pt x="196" y="156" on="0"/>
        <pt x="159" y="151" on="0"/>
        <pt x="153" y="162" on="1"/>
        <pt x="120" y="129" on="0"/>
        <pt x="101" y="61" on="1"/>
        <pt x="95" y="37" on="0"/>
        <pt x="82" y="29" on="0"/>
        <pt x="71" y="21" on="0"/>
        <pt x="45" y="-24" on="0"/>
        <pt x="12" y="-40" on="0"/>
        <pt x="-12" y="-31" on="0"/>
        <pt x="-27" y="-19" on="0"/>
        <pt x="-31" y="14" on="0"/>
        <pt x="-28" y="28" on="0"/>
        <pt x="-43" y="41" on="0"/>
        <pt x="-39" y="81" on="0"/>
        <pt x="-28" y="98" on="1"/>
        <pt x="-7" y="134" on="0"/>
        <pt x="-10" y="172" on="0"/>
        <pt x="2" y="202" on="0"/>
        <pt x="12" y="225" on="0"/>
        <pt x="28" y="259" on="0"/>
        <pt x="36" y="280" on="1"/>
        <pt x="58" y="331" on="0"/>
        <pt x="58" y="372" on="0"/>
        <pt x="62" y="414" on="0"/>
        <pt x="66" y="435" on="1"/>
        <pt x="73" y="482" on="0"/>
        <pt x="89" y="498" on="1"/>
        <pt x="107" y="512" on="0"/>
        <pt x="122" y="532" on="0"/>
        <pt x="126" y="555" on="0"/>
        <pt x="131" y="564" on="0"/>
        <pt x="134" y="569" on="1"/>
        <pt x="144" y="585" on="0"/>
        <pt x="160" y="656" on="0"/>
        <pt x="168" y="676" on="1"/>
        <pt x="197" y="752" on="0"/>
        <pt x="262" y="742" on="1"/>
        <pt x="288" y="737" on="0"/>
        <pt x="342" y="721" on="0"/>
        <pt x="391" y="708" on="0"/>
        <pt x="407" y="714" on="1"/>
        <pt x="423" y="720" on="0"/>
        <pt x="434" y="724" on="1"/>
        <pt x="451" y="732" on="1"/>
        <pt x="465" y="738" on="0"/>
        <pt x="485" y="730" on="0"/>
        <pt x="493" y="731" on="0"/>
        <pt x="496" y="732" on="1"/>
        <pt x="506" y="733" on="0"/>
        <pt x="514" y="731" on="1"/>
        <pt x="522" y="729" on="0"/>
        <pt x="540" y="733" on="0"/>
        <pt x="560" y="736" on="0"/>
        <pt x="570" y="736" on="1"/>
        <pt x="586" y="736" on="0"/>
        <pt x="611" y="713" on="0"/>
        <pt x="618" y="695" on="0"/>
        <pt x="618" y="667" on="0"/>
        <pt x="611" y="636" on="0"/>
        <pt x="613" y="615" on="0"/>
        <pt x="607" y="595" on="1"/>
        <pt x="601" y="575" on="0"/>
        <pt x="601" y="537" on="0"/>
        <pt x="592" y="513" on="0"/>
        <pt x="579" y="482" on="0"/>
        <pt x="566" y="480" on="1"/>
        <pt x="517" y="472" on="0"/>
        <pt x="489" y="487" on="1"/>
        <pt x="458" y="506" on="0"/>
        <pt x="424" y="502" on="1"/>
        <pt x="395" y="499" on="0"/>
        <pt x="402" y="445" on="1"/>
        <pt x="403" y="438" on="0"/>
        <pt x="400" y="419" on="0"/>
        <pt x="398" y="408" on="1"/>
        <pt x="395" y="383" on="0"/>
        <pt x="425" y="360" on="0"/>
        <pt x="450" y="357" on="0"/>
        <pt x="480" y="370" on="0"/>
        <pt x="507" y="376" on="0"/>
        <pt x="512" y="364" on="1"/>
        <pt x="531" y="317" on="0"/>
        <pt x="525" y="301" on="0"/>
        <pt x="524" y="271" on="0"/>
        <pt x="518" y="265" on="1"/>
        <pt x="512" y="259" on="0"/>
        <pt x="494" y="243" on="0"/>
        <pt x="461" y="243" on="0"/>
        <pt x="437" y="241" on="0"/>
        <pt x="426" y="238" on="1"/>
        <pt x="401" y="231" on="0"/>
        <pt x="399" y="215" on="1"/>
        <pt x="395" y="172" on="0"/>
        <pt x="408" y="161" on="1"/>
        <pt x="411" y="158" on="0"/>
      </contour>
      <contour>
        <pt x="187" y="362" on="0"/>
        <pt x="180" y="336" on="0"/>
        <pt x="184" y="315" on="0"/>
        <pt x="195" y="304" on="0"/>
        <pt x="202" y="302" on="1"/>
        <pt x="215" y="299" on="0"/>
        <pt x="235" y="307" on="0"/>
        <pt x="242" y="321" on="0"/>
        <pt x="251" y="344" on="0"/>
        <pt x="247" y="364" on="0"/>
        <pt x="245" y="374" on="1"/>
        <pt x="240" y="403" on="0"/>
        <pt x="247" y="413" on="1"/>
        <pt x="249" y="416" on="0"/>
        <pt x="249" y="430" on="0"/>
        <pt x="247" y="436" on="1"/>
        <pt x="242" y="454" on="0"/>
        <pt x="232" y="454" on="1"/>
        <pt x="221" y="456" on="0"/>
        <pt x="213" y="438" on="0"/>
        <pt x="209" y="416" on="0"/>
        <pt x="198" y="389" on="0"/>
      </contour>
    </TTGlyph>
    <TTGlyph name="Aacute" xMin="10" yMin="-23" xMax="429" yMax="941">
      <component glyphName="A" x="0" y="0" flags="0x1204"/>
      <component glyphName="acute" x="10" y="174" flags="0x1004"/>
    </TTGlyph>
    <TTGlyph name="Acircumflex" xMin="10" yMin="-23" xMax="429" yMax="938">
      <component glyphName="A" x="0" y="0" flags="0x1204"/>
      <component glyphName="circumflex" x="10" y="174" flags="0x1004"/>
    </TTGlyph>
    <TTGlyph name="Adieresis" xMin="10" yMin="-23" xMax="429" yMax="907">
      <component glyphName="A" x="0" y="0" flags="0x1204"/>
      <component glyphName="dieresis" x="10" y="154" flags="0x1004"/>
    </TTGlyph>
    <TTGlyph name="Agrave" xMin="10" yMin="-23" xMax="429" yMax="950">
      <component glyphName="A" x="0" y="0" flags="0x1204"/>
      <component glyphName="grave" x="0" y="184" flags="0x1004"/>
    </TTGlyph>
    <TTGlyph name="Aring" xMin="10" yMin="-23" xMax="428" yMax="871">
      <contour>
        <pt x="169" y="841" on="1"/>
        <pt x="173" y="851" on="0"/>
        <pt x="190" y="855" on="0"/>
        <pt x="195" y="860" on="1"/>
        <pt x="200" y="865" on="0"/>
        <pt x="211" y="862" on="0"/>
        <pt x="220" y="871" on="0"/>
        <pt x="244" y="868" on="0"/>
        <pt x="254" y="873" on="0"/>
        <pt x="271" y="865" on="0"/>
        <pt x="280" y="862" on="0"/>
        <pt x="289" y="858" on="0"/>
        <pt x="299" y="834" on="0"/>
        <pt x="308" y="827" on="0"/>
        <pt x="310" y="820" on="1"/>
        <pt x="313" y="804" on="0"/>
        <pt x="312" y="781" on="0"/>
        <pt x="313" y="759" on="0"/>
        <pt x="308" y="752" on="1"/>
        <pt x="341" y="735" on="0"/>
        <pt x="358" y="710" on="0"/>
        <pt x="364" y="693" on="0"/>
        <pt x="378" y="665" on="0"/>
        <pt x="377" y="643" on="0"/>
        <pt x="381" y="628" on="1"/>
        <pt x="385" y="613" on="0"/>
        <pt x="377" y="573" on="0"/>
        <pt x="385" y="534" on="0"/>
        <pt x="385" y="520" on="0"/>
        <pt x="386" y="514" on="1"/>
        <pt x="387" y="497" on="0"/>
        <pt x="393" y="484" on="1"/>
        <pt x="399" y="470" on="0"/>
        <pt x="394" y="429" on="0"/>
        <pt x="397" y="402" on="0"/>
        <pt x="406" y="388" on="1"/>
        <pt x="423" y="361" on="0"/>
        <pt x="418" y="328" on="1"/>
        <pt x="417" y="319" on="0"/>
        <pt x="420" y="298" on="0"/>
        <pt x="420" y="281" on="0"/>
        <pt x="418" y="268" on="1"/>
        <pt x="415" y="249" on="0"/>
        <pt x="419" y="222" on="1"/>
        <pt x="425" y="172" on="0"/>
        <pt x="425" y="138" on="0"/>
        <pt x="427" y="115" on="0"/>
        <pt x="428" y="102" on="1"/>
        <pt x="434" y="24" on="0"/>
        <pt x="420" y="5" on="1"/>
        <pt x="414" y="-4" on="0"/>
        <pt x="407" y="-6" on="1"/>
        <pt x="401" y="-17" on="0"/>
        <pt x="381" y="-28" on="0"/>
        <pt x="361" y="-13" on="0"/>
        <pt x="352" y="-15" on="0"/>
        <pt x="348" y="-16" on="1"/>
        <pt x="339" y="-17" on="0"/>
        <pt x="321" y="11" on="0"/>
        <pt x="319" y="28" on="0"/>
        <pt x="320" y="36" on="1"/>
        <pt x="324" y="54" on="0"/>
        <pt x="305" y="82" on="0"/>
        <pt x="298" y="96" on="0"/>
        <pt x="298" y="123" on="0"/>
        <pt x="295" y="130" on="0"/>
        <pt x="294" y="132" on="1"/>
        <pt x="289" y="141" on="0"/>
        <pt x="292" y="179" on="0"/>
        <pt x="278" y="194" on="0"/>
        <pt x="255" y="202" on="0"/>
        <pt x="242" y="189" on="0"/>
        <pt x="231" y="171" on="0"/>
        <pt x="215" y="158" on="0"/>
        <pt x="190" y="164" on="0"/>
        <pt x="160" y="146" on="0"/>
        <pt x="154" y="121" on="0"/>
        <pt x="146" y="95" on="0"/>
        <pt x="149" y="73" on="0"/>
        <pt x="146" y="52" on="0"/>
        <pt x="142" y="42" on="1"/>
        <pt x="134" y="17" on="0"/>
        <pt x="123" y="15" on="1"/>
        <pt x="114" y="14" on="0"/>
        <pt x="104" y="15" on="1"/>
        <pt x="93" y="-5" on="0"/>
        <pt x="78" y="-9" on="1"/>
        <pt x="37" y="-18" on="0"/>
        <pt x="29" y="4" on="1"/>
        <pt x="24" y="17" on="0"/>
        <pt x="23" y="38" on="1"/>
        <pt x="21" y="80" on="0"/>
        <pt x="7" y="110" on="0"/>
        <pt x="14" y="152" on="0"/>
        <pt x="12" y="194" on="0"/>
        <pt x="14" y="216" on="0"/>
        <pt x="17" y="234" on="0"/>
        <pt x="21" y="251" on="0"/>
        <pt x="22" y="274" on="0"/>
        <pt x="28" y="304" on="0"/>
        <pt x="31" y="320" on="1"/>
        <pt x="39" y="360" on="0"/>
        <pt x="35" y="400" on="0"/>
        <pt x="46" y="428" on="0"/>
        <pt x="53" y="439" on="1"/>
        <pt x="71" y="468" on="0"/>
        <pt x="69" y="505" on="0"/>
        <pt x="68" y="526" on="0"/>
        <pt x="69" y="537" on="1"/>
        <pt x="74" y="591" on="0"/>
        <pt x="120" y="706" on="1"/>
        <pt x="123" y="717" on="0"/>
        <pt x="155" y="729" on="0"/>
        <pt x="171" y="724" on="1"/>
        <pt x="173" y="724" on="0"/>
        <pt x="176" y="723" on="0"/>
        <pt x="178" y="723" on="1"/>
        <pt x="175" y="723" on="0"/>
        <pt x="162" y="745" on="0"/>
        <pt x="154" y="754" on="0"/>
        <pt x="150" y="769" on="0"/>
        <pt x="149" y="778" on="1"/>
        <pt x="146" y="800" on="0"/>
        <pt x="157" y="815" on="0"/>
        <pt x="155" y="830" on="0"/>
        <pt x="159" y="834" on="1"/>
        <pt x="167" y="838" on="0"/>
      </contour>
      <contour>
        <pt x="256" y="416" on="0"/>
        <pt x="249" y="472" on="0"/>
        <pt x="249" y="499" on="0"/>
        <pt x="247" y="509" on="1"/>
        <pt x="244" y="525" on="0"/>
        <pt x="230" y="513" on="1"/>
        <pt x="214" y="529" on="0"/>
        <pt x="204" y="514" on="1"/>
        <pt x="197" y="503" on="0"/>
        <pt x="197" y="478" on="1"/>
        <pt x="195" y="461" on="0"/>
        <pt x="184" y="433" on="0"/>
        <pt x="182" y="416" on="1"/>
        <pt x="179" y="396" on="0"/>
        <pt x="164" y="338" on="0"/>
        <pt x="183" y="310" on="0"/>
        <pt x="211" y="318" on="0"/>
        <pt x="225" y="319" on="0"/>
        <pt x="230" y="320" on="1"/>
        <pt x="242" y="321" on="0"/>
        <pt x="255" y="338" on="0"/>
        <pt x="256" y="351" on="0"/>
        <pt x="255" y="358" on="1"/>
        <pt x="252" y="378" on="0"/>
      </contour>
      <contour>
        <pt x="220" y="826" on="0"/>
        <pt x="219" y="820" on="0"/>
        <pt x="206" y="816" on="0"/>
        <pt x="206" y="813" on="0"/>
        <pt x="202" y="806" on="1"/>
        <pt x="198" y="799" on="0"/>
        <pt x="200" y="795" on="0"/>
        <pt x="198" y="784" on="1"/>
        <pt x="193" y="765" on="0"/>
        <pt x="208" y="762" on="1"/>
        <pt x="213" y="760" on="0"/>
        <pt x="226" y="760" on="0"/>
        <pt x="235" y="770" on="0"/>
        <pt x="248" y="771" on="0"/>
        <pt x="250" y="776" on="1"/>
        <pt x="252" y="781" on="0"/>
        <pt x="262" y="781" on="0"/>
        <pt x="262" y="802" on="0"/>
        <pt x="253" y="813" on="0"/>
        <pt x="246" y="817" on="1"/>
        <pt x="232" y="826" on="0"/>
      </contour>
    </TTGlyph>
    <TTGlyph name="Atilde" xMin="10" yMin="-23" xMax="429" yMax="914">
      <component glyphName="A" x="0" y="0" flags="0x1204"/>
      <component glyphName="tilde" x="10" y="164" flags="0x1004"/>
    </TTGlyph>
    <TTGlyph name="B" xMin="28" yMin="-24" xMax="456" yMax="744">
      <contour>
        <pt x="63" y="132" on="1"/>
        <pt x="57" y="169" on="1"/>
        <pt x="57" y="179" on="0"/>
        <pt x="49" y="186" on="0"/>
        <pt x="31" y="202" on="0"/>
        <pt x="27" y="237" on="0"/>
        <pt x="28" y="260" on="1"/>
        <pt x="30" y="289" on="0"/>
        <pt x="39" y="358" on="1"/>
        <pt x="32" y="443" on="0"/>
        <pt x="30" y="469" on="1"/>
        <pt x="19" y="601" on="0"/>
        <pt x="36" y="632" on="1"/>
        <pt x="40" y="640" on="0"/>
        <pt x="44" y="644" on="1"/>
        <pt x="52" y="652" on="0"/>
        <pt x="51" y="670" on="1"/>
        <pt x="47" y="707" on="0"/>
        <pt x="90" y="721" on="1"/>
        <pt x="103" y="725" on="0"/>
        <pt x="127" y="737" on="0"/>
        <pt x="140" y="742" on="1"/>
        <pt x="169" y="752" on="0"/>
        <pt x="210" y="731" on="0"/>
        <pt x="254" y="736" on="0"/>
        <pt x="300" y="743" on="0"/>
        <pt x="343" y="745" on="0"/>
        <pt x="374" y="723" on="0"/>
        <pt x="409" y="697" on="0"/>
        <pt x="423" y="681" on="1"/>
        <pt x="454" y="645" on="0"/>
        <pt x="449" y="611" on="1"/>
        <pt x="465" y="573" on="0"/>
        <pt x="456" y="539" on="1"/>
        <pt x="453" y="530" on="0"/>
        <pt x="455" y="521" on="1"/>
        <pt x="459" y="503" on="0"/>
        <pt x="451" y="475" on="0"/>
        <pt x="456" y="444" on="0"/>
        <pt x="442" y="412" on="0"/>
        <pt x="438" y="384" on="0"/>
        <pt x="422" y="365" on="0"/>
        <pt x="409" y="362" on="0"/>
        <pt x="398" y="353" on="0"/>
        <pt x="393" y="343" on="0"/>
        <pt x="388" y="337" on="1"/>
        <pt x="377" y="322" on="0"/>
        <pt x="357" y="312" on="1"/>
        <pt x="368" y="293" on="0"/>
        <pt x="398" y="272" on="0"/>
        <pt x="419" y="247" on="0"/>
        <pt x="420" y="225" on="0"/>
        <pt x="428" y="203" on="0"/>
        <pt x="426" y="190" on="0"/>
        <pt x="423" y="175" on="0"/>
        <pt x="419" y="158" on="0"/>
        <pt x="420" y="137" on="0"/>
        <pt x="415" y="122" on="0"/>
        <pt x="406" y="107" on="0"/>
        <pt x="394" y="89" on="0"/>
        <pt x="389" y="76" on="1"/>
        <pt x="383" y="60" on="0"/>
        <pt x="356" y="35" on="0"/>
        <pt x="341" y="20" on="0"/>
        <pt x="334" y="7" on="1"/>
        <pt x="321" y="-17" on="0"/>
        <pt x="298" y="-24" on="1"/>
        <pt x="277" y="-30" on="0"/>
        <pt x="266" y="-13" on="1"/>
        <pt x="260" y="-2" on="0"/>
        <pt x="229" y="-16" on="0"/>
        <pt x="211" y="-25" on="0"/>
        <pt x="186" y="-22" on="0"/>
        <pt x="161" y="-17" on="0"/>
        <pt x="135" y="-26" on="0"/>
        <pt x="113" y="-22" on="0"/>
        <pt x="104" y="-17" on="1"/>
        <pt x="84" y="-7" on="0"/>
        <pt x="72" y="29" on="0"/>
        <pt x="68" y="68" on="0"/>
        <pt x="60" y="101" on="0"/>
        <pt x="60" y="108" on="1"/>
      </contour>
      <contour>
        <pt x="205" y="404" on="1"/>
        <pt x="205" y="351" on="0"/>
        <pt x="224" y="351" on="1"/>
        <pt x="234" y="351" on="0"/>
        <pt x="250" y="380" on="0"/>
        <pt x="252" y="393" on="1"/>
        <pt x="253" y="406" on="0"/>
        <pt x="254" y="433" on="0"/>
        <pt x="279" y="474" on="0"/>
        <pt x="270" y="509" on="0"/>
        <pt x="248" y="516" on="0"/>
        <pt x="231" y="531" on="0"/>
        <pt x="210" y="541" on="0"/>
        <pt x="195" y="516" on="0"/>
        <pt x="210" y="484" on="0"/>
        <pt x="205" y="430" on="0"/>
      </contour>
      <contour>
        <pt x="233" y="260" on="1"/>
        <pt x="210" y="267" on="0"/>
        <pt x="208" y="237" on="1"/>
        <pt x="206" y="216" on="0"/>
        <pt x="200" y="172" on="0"/>
        <pt x="205" y="150" on="0"/>
        <pt x="208" y="137" on="1"/>
        <pt x="214" y="132" on="0"/>
        <pt x="226" y="124" on="0"/>
        <pt x="231" y="120" on="1"/>
        <pt x="237" y="132" on="0"/>
        <pt x="248" y="144" on="0"/>
        <pt x="252" y="151" on="1"/>
        <pt x="262" y="167" on="0"/>
        <pt x="265" y="214" on="0"/>
        <pt x="260" y="228" on="1"/>
        <pt x="252" y="254" on="0"/>
      </contour>
    </TTGlyph>
    <TTGlyph name="C" xMin="26" yMin="-32" xMax="429" yMax="749">
      <contour>
        <pt x="346" y="706" on="1"/>
        <pt x="375" y="704" on="0"/>
        <pt x="398" y="676" on="1"/>
        <pt x="402" y="670" on="0"/>
        <pt x="410" y="659" on="0"/>
        <pt x="412" y="652" on="1"/>
        <pt x="418" y="637" on="0"/>
        <pt x="414" y="581" on="0"/>
        <pt x="424" y="546" on="0"/>
        <pt x="429" y="530" on="1"/>
        <pt x="438" y="502" on="0"/>
        <pt x="418" y="455" on="1"/>
        <pt x="403" y="412" on="0"/>
        <pt x="381" y="404" on="1"/>
        <pt x="363" y="398" on="1"/>
        <pt x="337" y="389" on="0"/>
        <pt x="300" y="394" on="0"/>
        <pt x="293" y="402" on="1"/>
        <pt x="273" y="428" on="0"/>
        <pt x="283" y="462" on="1"/>
        <pt x="285" y="469" on="0"/>
        <pt x="281" y="499" on="0"/>
        <pt x="266" y="503" on="1"/>
        <pt x="258" y="505" on="0"/>
        <pt x="253" y="515" on="0"/>
        <pt x="250" y="522" on="0"/>
        <pt x="247" y="525" on="0"/>
        <pt x="231" y="513" on="0"/>
        <pt x="229" y="512" on="0"/>
        <pt x="218" y="516" on="0"/>
        <pt x="208" y="510" on="0"/>
        <pt x="203" y="502" on="1"/>
        <pt x="185" y="471" on="0"/>
        <pt x="196" y="401" on="1"/>
        <pt x="200" y="380" on="0"/>
        <pt x="204" y="362" on="1"/>
        <pt x="212" y="317" on="0"/>
        <pt x="211" y="287" on="0"/>
        <pt x="200" y="254" on="0"/>
        <pt x="196" y="238" on="1"/>
        <pt x="184" y="197" on="0"/>
        <pt x="199" y="168" on="1"/>
        <pt x="217" y="133" on="0"/>
        <pt x="222" y="126" on="1"/>
        <pt x="231" y="117" on="0"/>
        <pt x="257" y="120" on="0"/>
        <pt x="271" y="143" on="0"/>
        <pt x="283" y="170" on="0"/>
        <pt x="297" y="194" on="0"/>
        <pt x="316" y="198" on="0"/>
        <pt x="346" y="195" on="0"/>
        <pt x="357" y="195" on="0"/>
        <pt x="373" y="182" on="0"/>
        <pt x="374" y="137" on="0"/>
        <pt x="376" y="110" on="0"/>
        <pt x="360" y="89" on="0"/>
        <pt x="355" y="72" on="0"/>
        <pt x="354" y="64" on="1"/>
        <pt x="353" y="43" on="0"/>
        <pt x="340" y="23" on="0"/>
        <pt x="329" y="10" on="0"/>
        <pt x="282" y="10" on="0"/>
        <pt x="244" y="-34" on="0"/>
        <pt x="210" y="-29" on="0"/>
        <pt x="203" y="-11" on="1"/>
        <pt x="196" y="5" on="0"/>
        <pt x="172" y="6" on="1"/>
        <pt x="165" y="7" on="0"/>
        <pt x="153" y="12" on="0"/>
        <pt x="137" y="15" on="0"/>
        <pt x="129" y="20" on="1"/>
        <pt x="109" y="31" on="0"/>
        <pt x="96" y="55" on="1"/>
        <pt x="88" y="70" on="0"/>
        <pt x="73" y="90" on="0"/>
        <pt x="68" y="99" on="1"/>
        <pt x="55" y="119" on="0"/>
        <pt x="58" y="137" on="1"/>
        <pt x="64" y="185" on="0"/>
        <pt x="45" y="200" on="1"/>
        <pt x="34" y="207" on="0"/>
        <pt x="34" y="215" on="0"/>
        <pt x="30" y="228" on="1"/>
        <pt x="24" y="246" on="0"/>
        <pt x="37" y="294" on="0"/>
        <pt x="33" y="325" on="0"/>
        <pt x="30" y="342" on="1"/>
        <pt x="24" y="386" on="0"/>
        <pt x="34" y="414" on="0"/>
        <pt x="29" y="466" on="0"/>
        <pt x="29" y="499" on="0"/>
        <pt x="24" y="553" on="0"/>
        <pt x="26" y="584" on="1"/>
        <pt x="33" y="662" on="0"/>
        <pt x="79" y="691" on="1"/>
        <pt x="148" y="732" on="0"/>
        <pt x="167" y="730" on="1"/>
        <pt x="173" y="730" on="0"/>
        <pt x="190" y="727" on="0"/>
        <pt x="206" y="731" on="0"/>
        <pt x="218" y="739" on="0"/>
        <pt x="224" y="744" on="1"/>
        <pt x="248" y="766" on="0"/>
        <pt x="267" y="749" on="1"/>
        <pt x="285" y="728" on="0"/>
        <pt x="295" y="721" on="1"/>
        <pt x="312" y="708" on="0"/>
      </contour>
    </TTGlyph>
    <TTGlyph name="Ccedilla" xMin="26" yMin="-220" xMax="429" yMax="749">
      <contour>
        <pt x="132" y="-201" on="0"/>
        <pt x="132" y="-153" on="0"/>
        <pt x="140" y="-153" on="1"/>
        <pt x="150" y="-154" on="0"/>
        <pt x="168" y="-142" on="0"/>
        <pt x="178" y="-146" on="1"/>
        <pt x="218" y="-163" on="0"/>
        <pt x="262" y="-146" on="0"/>
        <pt x="273" y="-131" on="0"/>
        <pt x="270" y="-116" on="0"/>
        <pt x="274" y="-110" on="0"/>
        <pt x="266" y="-105" on="1"/>
        <pt x="258" y="-100" on="0"/>
        <pt x="243" y="-80" on="0"/>
        <pt x="202" y="-84" on="0"/>
        <pt x="173" y="-69" on="0"/>
        <pt x="168" y="-53" on="0"/>
        <pt x="167" y="-36" on="0"/>
        <pt x="167" y="-22" on="0"/>
        <pt x="161" y="-16" on="0"/>
        <pt x="169" y="-10" on="0"/>
        <pt x="166" y="-4" on="1"/>
        <pt x="163" y="2" on="0"/>
        <pt x="165" y="7" on="1"/>
        <pt x="156" y="11" on="0"/>
        <pt x="137" y="15" on="0"/>
        <pt x="129" y="20" on="1"/>
        <pt x="109" y="31" on="0"/>
        <pt x="96" y="55" on="1"/>
        <pt x="88" y="70" on="0"/>
        <pt x="73" y="90" on="0"/>
        <pt x="68" y="99" on="1"/>
        <pt x="55" y="119" on="0"/>
        <pt x="58" y="137" on="1"/>
        <pt x="64" y="185" on="0"/>
        <pt x="45" y="200" on="1"/>
        <pt x="34" y="207" on="0"/>
        <pt x="34" y="215" on="0"/>
        <pt x="30" y="228" on="1"/>
        <pt x="24" y="246" on="0"/>
        <pt x="37" y="294" on="0"/>
        <pt x="33" y="325" on="0"/>
        <pt x="30" y="342" on="1"/>
        <pt x="24" y="386" on="0"/>
        <pt x="34" y="414" on="0"/>
        <pt x="29" y="466" on="0"/>
        <pt x="29" y="499" on="0"/>
        <pt x="24" y="553" on="0"/>
        <pt x="26" y="584" on="1"/>
        <pt x="33" y="662" on="0"/>
        <pt x="79" y="691" on="1"/>
        <pt x="148" y="732" on="0"/>
        <pt x="167" y="730" on="1"/>
        <pt x="173" y="730" on="0"/>
        <pt x="190" y="727" on="0"/>
        <pt x="206" y="731" on="0"/>
        <pt x="218" y="739" on="0"/>
        <pt x="224" y="744" on="1"/>
        <pt x="248" y="766" on="0"/>
        <pt x="267" y="749" on="1"/>
        <pt x="285" y="728" on="0"/>
        <pt x="295" y="721" on="1"/>
        <pt x="312" y="708" on="0"/>
        <pt x="346" y="706" on="1"/>
        <pt x="375" y="704" on="0"/>
        <pt x="398" y="676" on="1"/>
        <pt x="402" y="670" on="0"/>
        <pt x="410" y="659" on="0"/>
        <pt x="412" y="652" on="1"/>
        <pt x="418" y="637" on="0"/>
        <pt x="414" y="581" on="0"/>
        <pt x="424" y="546" on="0"/>
        <pt x="429" y="530" on="1"/>
        <pt x="438" y="502" on="0"/>
        <pt x="418" y="455" on="1"/>
        <pt x="403" y="412" on="0"/>
        <pt x="381" y="404" on="1"/>
        <pt x="363" y="398" on="1"/>
        <pt x="337" y="389" on="0"/>
        <pt x="300" y="394" on="0"/>
        <pt x="293" y="402" on="1"/>
        <pt x="273" y="428" on="0"/>
        <pt x="283" y="462" on="1"/>
        <pt x="285" y="469" on="0"/>
        <pt x="281" y="499" on="0"/>
        <pt x="266" y="503" on="1"/>
        <pt x="258" y="505" on="0"/>
        <pt x="253" y="515" on="0"/>
        <pt x="250" y="522" on="0"/>
        <pt x="247" y="525" on="0"/>
        <pt x="231" y="513" on="0"/>
        <pt x="229" y="512" on="0"/>
        <pt x="218" y="516" on="0"/>
        <pt x="208" y="510" on="0"/>
        <pt x="203" y="502" on="1"/>
        <pt x="185" y="471" on="0"/>
        <pt x="196" y="401" on="1"/>
        <pt x="200" y="380" on="0"/>
        <pt x="204" y="362" on="1"/>
        <pt x="212" y="317" on="0"/>
        <pt x="211" y="287" on="0"/>
        <pt x="200" y="254" on="0"/>
        <pt x="196" y="238" on="1"/>
        <pt x="184" y="197" on="0"/>
        <pt x="199" y="168" on="1"/>
        <pt x="217" y="133" on="0"/>
        <pt x="222" y="126" on="1"/>
        <pt x="231" y="117" on="0"/>
        <pt x="257" y="120" on="0"/>
        <pt x="271" y="143" on="0"/>
        <pt x="283" y="170" on="0"/>
        <pt x="297" y="194" on="0"/>
        <pt x="316" y="198" on="0"/>
        <pt x="346" y="195" on="0"/>
        <pt x="357" y="195" on="0"/>
        <pt x="373" y="182" on="0"/>
        <pt x="374" y="137" on="0"/>
        <pt x="376" y="110" on="0"/>
        <pt x="360" y="89" on="0"/>
        <pt x="355" y="72" on="0"/>
        <pt x="354" y="64" on="1"/>
        <pt x="353" y="43" on="0"/>
        <pt x="340" y="23" on="0"/>
        <pt x="329" y="10" on="0"/>
        <pt x="306" y="10" on="1"/>
        <pt x="278" y="10" on="0"/>
        <pt x="254" y="-21" on="1"/>
        <pt x="253" y="-23" on="0"/>
        <pt x="251" y="-25" on="1"/>
        <pt x="262" y="-33" on="0"/>
        <pt x="282" y="-25" on="0"/>
        <pt x="309" y="-34" on="0"/>
        <pt x="312" y="-46" on="1"/>
        <pt x="312" y="-48" on="0"/>
        <pt x="320" y="-51" on="1"/>
        <pt x="334" y="-56" on="0"/>
        <pt x="335" y="-65" on="1"/>
        <pt x="335" y="-70" on="0"/>
        <pt x="338" y="-75" on="1"/>
        <pt x="344" y="-81" on="0"/>
        <pt x="348" y="-111" on="0"/>
        <pt x="350" y="-123" on="0"/>
        <pt x="350" y="-126" on="1"/>
        <pt x="349" y="-131" on="0"/>
        <pt x="342" y="-151" on="0"/>
        <pt x="339" y="-162" on="1"/>
        <pt x="333" y="-187" on="0"/>
        <pt x="314" y="-194" on="1"/>
        <pt x="305" y="-197" on="0"/>
        <pt x="296" y="-208" on="1"/>
        <pt x="246" y="-223" on="0"/>
        <pt x="203" y="-216" on="0"/>
        <pt x="175" y="-217" on="0"/>
        <pt x="154" y="-202" on="0"/>
        <pt x="140" y="-201" on="1"/>
      </contour>
    </TTGlyph>
    <TTGlyph name="D" xMin="21" yMin="-15" xMax="453" yMax="741">
      <contour>
        <pt x="436" y="628" on="0"/>
        <pt x="442" y="589" on="0"/>
        <pt x="462" y="507" on="0"/>
        <pt x="448" y="460" on="1"/>
        <pt x="440" y="433" on="0"/>
        <pt x="438" y="416" on="1"/>
        <pt x="432" y="384" on="0"/>
        <pt x="417" y="339" on="0"/>
        <pt x="403" y="274" on="0"/>
        <pt x="381" y="227" on="0"/>
        <pt x="368" y="205" on="0"/>
        <pt x="363" y="196" on="1"/>
        <pt x="351" y="173" on="0"/>
        <pt x="346" y="149" on="0"/>
        <pt x="337" y="120" on="0"/>
        <pt x="330" y="106" on="1"/>
        <pt x="311" y="74" on="0"/>
        <pt x="284" y="82" on="1"/>
        <pt x="250" y="55" on="0"/>
        <pt x="230" y="24" on="0"/>
        <pt x="214" y="10" on="0"/>
        <pt x="199" y="4" on="0"/>
        <pt x="185" y="0" on="0"/>
        <pt x="171" y="-10" on="0"/>
        <pt x="146" y="-17" on="0"/>
        <pt x="133" y="-14" on="1"/>
        <pt x="101" y="-8" on="0"/>
        <pt x="99" y="38" on="1"/>
        <pt x="73" y="48" on="0"/>
        <pt x="66" y="57" on="1"/>
        <pt x="50" y="75" on="0"/>
        <pt x="50" y="132" on="0"/>
        <pt x="57" y="167" on="0"/>
        <pt x="60" y="183" on="1"/>
        <pt x="69" y="222" on="0"/>
        <pt x="57" y="267" on="0"/>
        <pt x="62" y="306" on="0"/>
        <pt x="59" y="353" on="0"/>
        <pt x="62" y="389" on="0"/>
        <pt x="65" y="422" on="0"/>
        <pt x="65" y="450" on="0"/>
        <pt x="53" y="475" on="0"/>
        <pt x="46" y="501" on="0"/>
        <pt x="44" y="512" on="1"/>
        <pt x="41" y="539" on="0"/>
        <pt x="28" y="563" on="0"/>
        <pt x="30" y="596" on="0"/>
        <pt x="23" y="629" on="0"/>
        <pt x="24" y="648" on="0"/>
        <pt x="19" y="669" on="0"/>
        <pt x="23" y="671" on="1"/>
        <pt x="29" y="674" on="0"/>
        <pt x="39" y="718" on="0"/>
        <pt x="53" y="729" on="0"/>
        <pt x="69" y="738" on="0"/>
        <pt x="79" y="740" on="1"/>
        <pt x="102" y="743" on="0"/>
        <pt x="141" y="721" on="0"/>
        <pt x="160" y="723" on="0"/>
        <pt x="170" y="728" on="1"/>
        <pt x="202" y="741" on="0"/>
        <pt x="262" y="741" on="0"/>
        <pt x="286" y="734" on="0"/>
        <pt x="300" y="727" on="0"/>
        <pt x="313" y="720" on="0"/>
        <pt x="338" y="720" on="0"/>
        <pt x="350" y="708" on="0"/>
        <pt x="361" y="692" on="0"/>
        <pt x="375" y="676" on="0"/>
        <pt x="398" y="671" on="0"/>
        <pt x="405" y="666" on="0"/>
        <pt x="409" y="659" on="0"/>
        <pt x="414" y="649" on="0"/>
      </contour>
      <contour>
        <pt x="204" y="473" on="0"/>
        <pt x="208" y="424" on="0"/>
        <pt x="218" y="363" on="0"/>
        <pt x="216" y="323" on="0"/>
        <pt x="211" y="285" on="0"/>
        <pt x="206" y="247" on="0"/>
        <pt x="206" y="210" on="0"/>
        <pt x="216" y="194" on="0"/>
        <pt x="228" y="195" on="0"/>
        <pt x="240" y="210" on="0"/>
        <pt x="245" y="245" on="0"/>
        <pt x="266" y="278" on="0"/>
        <pt x="278" y="312" on="0"/>
        <pt x="281" y="328" on="0"/>
        <pt x="283" y="341" on="0"/>
        <pt x="284" y="356" on="0"/>
        <pt x="294" y="388" on="0"/>
        <pt x="287" y="413" on="0"/>
        <pt x="283" y="445" on="0"/>
        <pt x="274" y="472" on="0"/>
        <pt x="258" y="477" on="1"/>
        <pt x="251" y="479" on="0"/>
        <pt x="240" y="487" on="0"/>
        <pt x="235" y="490" on="1"/>
        <pt x="224" y="495" on="0"/>
      </contour>
    </TTGlyph>
    <TTGlyph name="E" xMin="26" yMin="-22" xMax="417" yMax="749">
      <contour>
        <pt x="27" y="595" on="1"/>
        <pt x="29" y="652" on="1"/>
        <pt x="29" y="666" on="0"/>
        <pt x="24" y="694" on="0"/>
        <pt x="43" y="725" on="0"/>
        <pt x="81" y="749" on="0"/>
        <pt x="129" y="749" on="0"/>
        <pt x="157" y="733" on="0"/>
        <pt x="181" y="723" on="0"/>
        <pt x="196" y="720" on="1"/>
        <pt x="228" y="715" on="0"/>
        <pt x="258" y="729" on="1"/>
        <pt x="291" y="745" on="0"/>
        <pt x="311" y="727" on="1"/>
        <pt x="332" y="726" on="0"/>
        <pt x="355" y="731" on="1"/>
        <pt x="393" y="739" on="0"/>
        <pt x="407" y="732" on="1"/>
        <pt x="438" y="714" on="0"/>
        <pt x="417" y="660" on="1"/>
        <pt x="414" y="652" on="0"/>
        <pt x="414" y="640" on="0"/>
        <pt x="414" y="634" on="1"/>
        <pt x="414" y="616" on="0"/>
        <pt x="408" y="598" on="0"/>
        <pt x="408" y="586" on="0"/>
        <pt x="408" y="578" on="1"/>
        <pt x="410" y="562" on="0"/>
        <pt x="403" y="547" on="1"/>
        <pt x="399" y="538" on="0"/>
        <pt x="399" y="527" on="0"/>
        <pt x="399" y="522" on="1"/>
        <pt x="399" y="509" on="0"/>
        <pt x="385" y="497" on="1"/>
        <pt x="362" y="473" on="0"/>
        <pt x="347" y="473" on="1"/>
        <pt x="344" y="473" on="0"/>
        <pt x="338" y="477" on="0"/>
        <pt x="332" y="479" on="1"/>
        <pt x="308" y="487" on="0"/>
        <pt x="255" y="491" on="0"/>
        <pt x="243" y="488" on="1"/>
        <pt x="213" y="482" on="0"/>
        <pt x="206" y="459" on="1"/>
        <pt x="198" y="435" on="0"/>
        <pt x="210" y="422" on="1"/>
        <pt x="215" y="416" on="0"/>
        <pt x="227" y="412" on="0"/>
        <pt x="238" y="415" on="0"/>
        <pt x="257" y="411" on="0"/>
        <pt x="267" y="408" on="1"/>
        <pt x="294" y="402" on="0"/>
        <pt x="313" y="411" on="0"/>
        <pt x="320" y="409" on="0"/>
        <pt x="322" y="407" on="1"/>
        <pt x="329" y="400" on="0"/>
        <pt x="335" y="400" on="1"/>
        <pt x="351" y="401" on="0"/>
        <pt x="363" y="372" on="0"/>
        <pt x="355" y="351" on="1"/>
        <pt x="355" y="348" on="0"/>
        <pt x="352" y="336" on="1"/>
        <pt x="345" y="312" on="0"/>
        <pt x="346" y="294" on="0"/>
        <pt x="338" y="275" on="0"/>
        <pt x="331" y="268" on="1"/>
        <pt x="314" y="253" on="0"/>
        <pt x="294" y="259" on="1"/>
        <pt x="285" y="263" on="0"/>
        <pt x="278" y="270" on="1"/>
        <pt x="227" y="285" on="0"/>
        <pt x="209" y="263" on="1"/>
        <pt x="199" y="251" on="0"/>
        <pt x="197" y="233" on="0"/>
        <pt x="197" y="210" on="1"/>
        <pt x="197" y="173" on="1"/>
        <pt x="210" y="164" on="0"/>
        <pt x="232" y="141" on="0"/>
        <pt x="264" y="139" on="0"/>
        <pt x="289" y="146" on="0"/>
        <pt x="300" y="150" on="1"/>
        <pt x="324" y="160" on="0"/>
        <pt x="364" y="147" on="0"/>
        <pt x="374" y="125" on="0"/>
        <pt x="368" y="89" on="0"/>
        <pt x="369" y="72" on="0"/>
        <pt x="369" y="65" on="1"/>
        <pt x="369" y="48" on="0"/>
        <pt x="356" y="32" on="1"/>
        <pt x="342" y="11" on="0"/>
        <pt x="318" y="2" on="0"/>
        <pt x="280" y="7" on="0"/>
        <pt x="256" y="-2" on="0"/>
        <pt x="237" y="-16" on="0"/>
        <pt x="228" y="-22" on="1"/>
        <pt x="213" y="-32" on="0"/>
        <pt x="194" y="-22" on="1"/>
        <pt x="187" y="-18" on="0"/>
        <pt x="180" y="-14" on="1"/>
        <pt x="162" y="-5" on="0"/>
        <pt x="110" y="-8" on="0"/>
        <pt x="70" y="25" on="0"/>
        <pt x="69" y="73" on="0"/>
        <pt x="75" y="94" on="0"/>
        <pt x="78" y="100" on="1"/>
        <pt x="82" y="113" on="0"/>
        <pt x="74" y="120" on="1"/>
        <pt x="50" y="139" on="0"/>
        <pt x="57" y="170" on="1"/>
        <pt x="60" y="186" on="0"/>
        <pt x="66" y="204" on="0"/>
        <pt x="62" y="225" on="0"/>
        <pt x="63" y="242" on="0"/>
        <pt x="62" y="250" on="1"/>
        <pt x="60" y="266" on="0"/>
        <pt x="48" y="268" on="1"/>
        <pt x="33" y="270" on="0"/>
        <pt x="28" y="300" on="1"/>
        <pt x="22" y="329" on="0"/>
        <pt x="43" y="387" on="0"/>
        <pt x="39" y="420" on="0"/>
        <pt x="38" y="434" on="1"/>
        <pt x="39" y="473" on="1"/>
        <pt x="39" y="502" on="0"/>
        <pt x="29" y="522" on="0"/>
        <pt x="33" y="561" on="0"/>
        <pt x="27" y="582" on="0"/>
      </contour>
    </TTGlyph>
    <TTGlyph name="Eacute" xMin="26" yMin="-22" xMax="417" yMax="921">
      <component glyphName="E" x="0" y="0" flags="0x1204"/>
      <component glyphName="acute" x="31" y="154" flags="0x1004"/>
    </TTGlyph>
    <TTGlyph name="Ecircumflex" xMin="26" yMin="-22" xMax="417" yMax="948">
      <component glyphName="E" x="0" y="0" flags="0x1204"/>
      <component glyphName="circumflex" x="0" y="184" flags="0x1004"/>
    </TTGlyph>
    <TTGlyph name="Edieresis" xMin="26" yMin="-22" xMax="417" yMax="907">
      <component glyphName="E" x="0" y="0" flags="0x1204"/>
      <component glyphName="dieresis" x="0" y="154" flags="0x1004"/>
    </TTGlyph>
    <TTGlyph name="Egrave" xMin="26" yMin="-22" xMax="417" yMax="930">
      <component glyphName="E" x="0" y="0" flags="0x1204"/>
      <component glyphName="grave" x="0" y="164" flags="0x1004"/>
    </TTGlyph>
    <TTGlyph name="Eth" xMin="-31" yMin="-27" xMax="431" yMax="753">
      <contour>
        <pt x="41" y="412" on="1"/>
        <pt x="40" y="464" on="1"/>
        <pt x="40" y="494" on="1"/>
        <pt x="40" y="509" on="0"/>
        <pt x="43" y="522" on="1"/>
        <pt x="55" y="570" on="0"/>
        <pt x="48" y="604" on="1"/>
        <pt x="31" y="687" on="0"/>
        <pt x="53" y="720" on="1"/>
        <pt x="80" y="756" on="0"/>
        <pt x="122" y="753" on="1"/>
        <pt x="137" y="752" on="0"/>
        <pt x="170" y="730" on="0"/>
        <pt x="207" y="722" on="0"/>
        <pt x="224" y="721" on="1"/>
        <pt x="268" y="718" on="0"/>
        <pt x="288" y="702" on="0"/>
        <pt x="306" y="693" on="0"/>
        <pt x="314" y="690" on="1"/>
        <pt x="333" y="681" on="0"/>
        <pt x="341" y="662" on="0"/>
        <pt x="355" y="647" on="0"/>
        <pt x="363" y="638" on="1"/>
        <pt x="382" y="616" on="0"/>
        <pt x="387" y="589" on="1"/>
        <pt x="390" y="572" on="0"/>
        <pt x="394" y="546" on="0"/>
        <pt x="397" y="534" on="1"/>
        <pt x="406" y="495" on="0"/>
        <pt x="418" y="465" on="1"/>
        <pt x="441" y="405" on="0"/>
        <pt x="429" y="371" on="1"/>
        <pt x="428" y="367" on="1"/>
        <pt x="434" y="350" on="0"/>
        <pt x="428" y="319" on="0"/>
        <pt x="425" y="302" on="0"/>
        <pt x="420" y="283" on="0"/>
        <pt x="413" y="259" on="0"/>
        <pt x="403" y="222" on="0"/>
        <pt x="392" y="195" on="0"/>
        <pt x="386" y="184" on="1"/>
        <pt x="374" y="162" on="0"/>
        <pt x="324" y="110" on="1"/>
        <pt x="308" y="94" on="0"/>
        <pt x="293" y="60" on="0"/>
        <pt x="282" y="53" on="1"/>
        <pt x="270" y="26" on="0"/>
        <pt x="258" y="17" on="1"/>
        <pt x="234" y="-1" on="0"/>
        <pt x="196" y="4" on="1"/>
        <pt x="169" y="-17" on="0"/>
        <pt x="142" y="-27" on="0"/>
        <pt x="115" y="-27" on="0"/>
        <pt x="86" y="-11" on="0"/>
        <pt x="77" y="11" on="0"/>
        <pt x="77" y="38" on="0"/>
        <pt x="78" y="54" on="1"/>
        <pt x="80" y="83" on="0"/>
        <pt x="60" y="125" on="0"/>
        <pt x="58" y="135" on="1"/>
        <pt x="52" y="156" on="0"/>
        <pt x="54" y="196" on="1"/>
        <pt x="55" y="229" on="0"/>
        <pt x="53" y="235" on="1"/>
        <pt x="48" y="244" on="0"/>
        <pt x="55" y="295" on="1"/>
        <pt x="46" y="295" on="0"/>
        <pt x="31" y="293" on="0"/>
        <pt x="6" y="292" on="0"/>
        <pt x="-5" y="296" on="1"/>
        <pt x="-31" y="304" on="0"/>
        <pt x="-31" y="332" on="1"/>
        <pt x="-31" y="366" on="0"/>
        <pt x="10" y="368" on="1"/>
        <pt x="21" y="368" on="0"/>
        <pt x="30" y="365" on="1"/>
        <pt x="39" y="372" on="0"/>
        <pt x="50" y="372" on="1"/>
        <pt x="50" y="373" on="1"/>
        <pt x="44" y="383" on="0"/>
        <pt x="41" y="395" on="0"/>
      </contour>
      <contour>
        <pt x="194" y="487" on="1"/>
        <pt x="182" y="478" on="0"/>
        <pt x="182" y="436" on="0"/>
        <pt x="186" y="388" on="1"/>
        <pt x="186" y="376" on="1"/>
        <pt x="203" y="377" on="0"/>
        <pt x="225" y="367" on="0"/>
        <pt x="220" y="320" on="0"/>
        <pt x="203" y="301" on="0"/>
        <pt x="181" y="299" on="1"/>
        <pt x="185" y="276" on="0"/>
        <pt x="181" y="244" on="0"/>
        <pt x="189" y="225" on="0"/>
        <pt x="186" y="204" on="0"/>
        <pt x="185" y="194" on="1"/>
        <pt x="183" y="167" on="0"/>
        <pt x="196" y="166" on="1"/>
        <pt x="216" y="163" on="0"/>
        <pt x="232" y="223" on="1"/>
        <pt x="236" y="238" on="0"/>
        <pt x="238" y="250" on="1"/>
        <pt x="239" y="262" on="0"/>
        <pt x="247" y="280" on="0"/>
        <pt x="250" y="288" on="1"/>
        <pt x="260" y="312" on="0"/>
        <pt x="260" y="337" on="0"/>
        <pt x="263" y="344" on="0"/>
        <pt x="266" y="352" on="0"/>
        <pt x="270" y="362" on="0"/>
        <pt x="272" y="376" on="1"/>
        <pt x="276" y="419" on="0"/>
        <pt x="243" y="447" on="1"/>
        <pt x="229" y="458" on="0"/>
        <pt x="210" y="488" on="0"/>
        <pt x="201" y="492" on="0"/>
      </contour>
    </TTGlyph>
    <TTGlyph name="Euro" xMin="-5" yMin="62" xMax="364" yMax="683">
      <contour>
        <pt x="52" y="420" on="1"/>
        <pt x="51" y="488" on="1"/>
        <pt x="51" y="533" on="0"/>
        <pt x="59" y="560" on="0"/>
        <pt x="80" y="580" on="0"/>
        <pt x="90" y="607" on="0"/>
        <pt x="104" y="619" on="0"/>
        <pt x="110" y="631" on="1"/>
        <pt x="123" y="657" on="0"/>
        <pt x="142" y="667" on="1"/>
        <pt x="172" y="683" on="0"/>
        <pt x="203" y="683" on="0"/>
        <pt x="208" y="680" on="0"/>
        <pt x="212" y="677" on="0"/>
        <pt x="217" y="677" on="0"/>
        <pt x="225" y="679" on="1"/>
        <pt x="236" y="682" on="0"/>
        <pt x="261" y="676" on="0"/>
        <pt x="280" y="679" on="0"/>
        <pt x="295" y="674" on="0"/>
        <pt x="312" y="674" on="0"/>
        <pt x="323" y="662" on="0"/>
        <pt x="329" y="658" on="1"/>
        <pt x="343" y="650" on="0"/>
        <pt x="346" y="633" on="1"/>
        <pt x="352" y="631" on="0"/>
        <pt x="356" y="612" on="0"/>
        <pt x="361" y="605" on="1"/>
        <pt x="366" y="598" on="0"/>
        <pt x="362" y="577" on="0"/>
        <pt x="348" y="564" on="0"/>
        <pt x="341" y="552" on="0"/>
        <pt x="338" y="545" on="1"/>
        <pt x="331" y="530" on="0"/>
        <pt x="324" y="524" on="1"/>
        <pt x="307" y="513" on="0"/>
        <pt x="298" y="515" on="1"/>
        <pt x="264" y="522" on="0"/>
        <pt x="253" y="539" on="1"/>
        <pt x="245" y="550" on="0"/>
        <pt x="224" y="565" on="0"/>
        <pt x="193" y="556" on="0"/>
        <pt x="183" y="549" on="0"/>
        <pt x="178" y="538" on="0"/>
        <pt x="173" y="521" on="0"/>
        <pt x="168" y="509" on="1"/>
        <pt x="161" y="492" on="0"/>
        <pt x="160" y="482" on="1"/>
        <pt x="159" y="469" on="0"/>
        <pt x="153" y="450" on="0"/>
        <pt x="154" y="425" on="0"/>
        <pt x="149" y="401" on="0"/>
        <pt x="155" y="395" on="0"/>
        <pt x="166" y="394" on="0"/>
        <pt x="179" y="397" on="0"/>
        <pt x="195" y="398" on="0"/>
        <pt x="240" y="393" on="0"/>
        <pt x="263" y="397" on="1"/>
        <pt x="286" y="401" on="0"/>
        <pt x="315" y="405" on="0"/>
        <pt x="320" y="396" on="1"/>
        <pt x="331" y="378" on="0"/>
        <pt x="310" y="362" on="1"/>
        <pt x="307" y="360" on="0"/>
        <pt x="299" y="352" on="0"/>
        <pt x="292" y="349" on="1"/>
        <pt x="278" y="342" on="0"/>
        <pt x="251" y="347" on="1"/>
        <pt x="187" y="357" on="0"/>
        <pt x="151" y="341" on="1"/>
        <pt x="151" y="317" on="0"/>
        <pt x="156" y="288" on="0"/>
        <pt x="183" y="294" on="0"/>
        <pt x="191" y="294" on="1"/>
        <pt x="208" y="294" on="1"/>
        <pt x="214" y="294" on="0"/>
        <pt x="247" y="300" on="0"/>
        <pt x="265" y="299" on="0"/>
        <pt x="274" y="294" on="1"/>
        <pt x="284" y="287" on="0"/>
        <pt x="284" y="274" on="0"/>
        <pt x="274" y="266" on="0"/>
        <pt x="270" y="262" on="1"/>
        <pt x="266" y="258" on="0"/>
        <pt x="250" y="249" on="0"/>
        <pt x="224" y="254" on="1"/>
        <pt x="161" y="266" on="0"/>
        <pt x="159" y="249" on="1"/>
        <pt x="158" y="241" on="0"/>
        <pt x="164" y="214" on="0"/>
        <pt x="164" y="191" on="0"/>
        <pt x="183" y="163" on="0"/>
        <pt x="204" y="161" on="0"/>
        <pt x="211" y="151" on="0"/>
        <pt x="228" y="149" on="0"/>
        <pt x="248" y="147" on="0"/>
        <pt x="260" y="148" on="1"/>
        <pt x="291" y="150" on="0"/>
        <pt x="319" y="167" on="1"/>
        <pt x="349" y="167" on="0"/>
        <pt x="357" y="150" on="1"/>
        <pt x="361" y="140" on="0"/>
        <pt x="364" y="132" on="0"/>
        <pt x="360" y="124" on="1"/>
        <pt x="356" y="116" on="0"/>
        <pt x="355" y="95" on="0"/>
        <pt x="343" y="91" on="1"/>
        <pt x="304" y="78" on="0"/>
        <pt x="297" y="68" on="1"/>
        <pt x="282" y="47" on="0"/>
        <pt x="241" y="62" on="1"/>
        <pt x="227" y="68" on="0"/>
        <pt x="205" y="65" on="0"/>
        <pt x="190" y="65" on="0"/>
        <pt x="160" y="71" on="0"/>
        <pt x="137" y="75" on="0"/>
        <pt x="124" y="84" on="0"/>
        <pt x="114" y="104" on="0"/>
        <pt x="94" y="112" on="1"/>
        <pt x="75" y="120" on="0"/>
        <pt x="70" y="148" on="0"/>
        <pt x="61" y="177" on="0"/>
        <pt x="52" y="206" on="0"/>
        <pt x="54" y="217" on="1"/>
        <pt x="55" y="228" on="0"/>
        <pt x="52" y="246" on="0"/>
        <pt x="30" y="241" on="0"/>
        <pt x="13" y="235" on="0"/>
        <pt x="3" y="253" on="0"/>
        <pt x="-2" y="258" on="0"/>
        <pt x="-5" y="262" on="0"/>
        <pt x="-5" y="267" on="0"/>
        <pt x="-2" y="283" on="0"/>
        <pt x="2" y="280" on="0"/>
        <pt x="7" y="285" on="1"/>
        <pt x="12" y="290" on="0"/>
        <pt x="15" y="288" on="0"/>
        <pt x="26" y="281" on="0"/>
        <pt x="47" y="282" on="0"/>
        <pt x="53" y="293" on="0"/>
        <pt x="56" y="310" on="0"/>
        <pt x="56" y="319" on="1"/>
        <pt x="56" y="343" on="0"/>
        <pt x="44" y="354" on="0"/>
        <pt x="17" y="350" on="0"/>
        <pt x="1" y="364" on="0"/>
        <pt x="-6" y="372" on="0"/>
        <pt x="-1" y="381" on="1"/>
        <pt x="4" y="390" on="0"/>
        <pt x="15" y="400" on="0"/>
        <pt x="32" y="398" on="1"/>
        <pt x="54" y="397" on="0"/>
      </contour>
    </TTGlyph>
    <TTGlyph name="F" xMin="25" yMin="-10" xMax="423" yMax="736">
      <contour>
        <pt x="171" y="-3" on="0"/>
        <pt x="158" y="-14" on="0"/>
        <pt x="134" y="-5" on="0"/>
        <pt x="125" y="11" on="0"/>
        <pt x="120" y="30" on="0"/>
        <pt x="115" y="48" on="0"/>
        <pt x="108" y="54" on="1"/>
        <pt x="93" y="65" on="0"/>
        <pt x="89" y="84" on="1"/>
        <pt x="83" y="120" on="0"/>
        <pt x="82" y="220" on="0"/>
        <pt x="80" y="258" on="0"/>
        <pt x="75" y="276" on="0"/>
        <pt x="68" y="280" on="0"/>
        <pt x="62" y="283" on="1"/>
        <pt x="51" y="288" on="0"/>
        <pt x="41" y="349" on="0"/>
        <pt x="43" y="390" on="1"/>
        <pt x="47" y="467" on="0"/>
        <pt x="34" y="522" on="1"/>
        <pt x="22" y="574" on="0"/>
        <pt x="28" y="667" on="0"/>
        <pt x="34" y="686" on="1"/>
        <pt x="46" y="730" on="0"/>
        <pt x="109" y="718" on="0"/>
        <pt x="146" y="720" on="0"/>
        <pt x="170" y="728" on="0"/>
        <pt x="190" y="736" on="0"/>
        <pt x="223" y="735" on="0"/>
        <pt x="250" y="726" on="0"/>
        <pt x="264" y="722" on="1"/>
        <pt x="301" y="710" on="0"/>
        <pt x="343" y="712" on="0"/>
        <pt x="367" y="715" on="0"/>
        <pt x="376" y="715" on="1"/>
        <pt x="395" y="715" on="0"/>
        <pt x="420" y="695" on="0"/>
        <pt x="424" y="671" on="0"/>
        <pt x="423" y="658" on="1"/>
        <pt x="421" y="633" on="0"/>
        <pt x="407" y="600" on="0"/>
        <pt x="406" y="578" on="0"/>
        <pt x="408" y="557" on="0"/>
        <pt x="410" y="537" on="0"/>
        <pt x="405" y="514" on="0"/>
        <pt x="385" y="491" on="0"/>
        <pt x="372" y="482" on="1"/>
        <pt x="343" y="464" on="0"/>
        <pt x="307" y="474" on="0"/>
        <pt x="290" y="481" on="0"/>
        <pt x="282" y="483" on="1"/>
        <pt x="265" y="488" on="0"/>
        <pt x="233" y="480" on="0"/>
        <pt x="221" y="458" on="0"/>
        <pt x="224" y="434" on="0"/>
        <pt x="244" y="415" on="0"/>
        <pt x="279" y="413" on="0"/>
        <pt x="301" y="415" on="0"/>
        <pt x="308" y="415" on="1"/>
        <pt x="323" y="415" on="0"/>
        <pt x="335" y="402" on="1"/>
        <pt x="353" y="381" on="0"/>
        <pt x="332" y="339" on="1"/>
        <pt x="327" y="328" on="0"/>
        <pt x="320" y="292" on="0"/>
        <pt x="310" y="257" on="0"/>
        <pt x="295" y="234" on="0"/>
        <pt x="275" y="238" on="0"/>
        <pt x="268" y="246" on="0"/>
        <pt x="264" y="249" on="1"/>
        <pt x="256" y="257" on="0"/>
        <pt x="246" y="254" on="1"/>
        <pt x="230" y="250" on="0"/>
        <pt x="225" y="201" on="0"/>
        <pt x="227" y="153" on="0"/>
        <pt x="230" y="119" on="0"/>
        <pt x="228" y="102" on="1"/>
        <pt x="225" y="63" on="0"/>
        <pt x="198" y="43" on="1"/>
        <pt x="189" y="37" on="0"/>
        <pt x="180" y="16" on="0"/>
      </contour>
    </TTGlyph>
    <TTGlyph name="G" xMin="16" yMin="-10" xMax="461" yMax="765">
      <contour>
        <pt x="268" y="241" on="1"/>
        <pt x="240" y="241" on="0"/>
        <pt x="242" y="267" on="1"/>
        <pt x="244" y="288" on="0"/>
        <pt x="241" y="301" on="1"/>
        <pt x="236" y="323" on="0"/>
        <pt x="239" y="333" on="1"/>
        <pt x="247" y="363" on="0"/>
        <pt x="304" y="347" on="1"/>
        <pt x="314" y="344" on="0"/>
        <pt x="326" y="344" on="0"/>
        <pt x="332" y="345" on="1"/>
        <pt x="350" y="348" on="0"/>
        <pt x="379" y="343" on="0"/>
        <pt x="401" y="345" on="0"/>
        <pt x="420" y="349" on="0"/>
        <pt x="436" y="353" on="0"/>
        <pt x="443" y="353" on="1"/>
        <pt x="453" y="353" on="0"/>
        <pt x="462" y="320" on="0"/>
        <pt x="461" y="300" on="1"/>
        <pt x="458" y="249" on="0"/>
        <pt x="437" y="241" on="1"/>
        <pt x="422" y="235" on="0"/>
        <pt x="395" y="209" on="0"/>
        <pt x="402" y="158" on="0"/>
        <pt x="403" y="129" on="0"/>
        <pt x="402" y="108" on="0"/>
        <pt x="401" y="93" on="0"/>
        <pt x="404" y="70" on="0"/>
        <pt x="399" y="32" on="0"/>
        <pt x="392" y="17" on="1"/>
        <pt x="375" y="-19" on="0"/>
        <pt x="349" y="-10" on="1"/>
        <pt x="330" y="-4" on="0"/>
        <pt x="312" y="22" on="1"/>
        <pt x="306" y="31" on="0"/>
        <pt x="295" y="44" on="0"/>
        <pt x="277" y="39" on="0"/>
        <pt x="264" y="24" on="0"/>
        <pt x="257" y="16" on="1"/>
        <pt x="215" y="-36" on="0"/>
        <pt x="150" y="1" on="1"/>
        <pt x="117" y="19" on="0"/>
        <pt x="104" y="46" on="1"/>
        <pt x="99" y="58" on="0"/>
        <pt x="88" y="88" on="0"/>
        <pt x="81" y="102" on="1"/>
        <pt x="65" y="135" on="0"/>
        <pt x="50" y="146" on="1"/>
        <pt x="36" y="157" on="0"/>
        <pt x="34" y="254" on="1"/>
        <pt x="33" y="275" on="0"/>
        <pt x="37" y="306" on="0"/>
        <pt x="37" y="330" on="1"/>
        <pt x="37" y="376" on="1"/>
        <pt x="37" y="398" on="0"/>
        <pt x="36" y="418" on="1"/>
        <pt x="36" y="450" on="0"/>
        <pt x="41" y="474" on="1"/>
        <pt x="9" y="495" on="0"/>
        <pt x="16" y="555" on="1"/>
        <pt x="21" y="593" on="0"/>
        <pt x="40" y="628" on="0"/>
        <pt x="51" y="663" on="0"/>
        <pt x="63" y="702" on="0"/>
        <pt x="85" y="714" on="0"/>
        <pt x="91" y="722" on="0"/>
        <pt x="94" y="726" on="1"/>
        <pt x="113" y="754" on="0"/>
        <pt x="176" y="764" on="1"/>
        <pt x="204" y="769" on="0"/>
        <pt x="258" y="749" on="0"/>
        <pt x="294" y="745" on="0"/>
        <pt x="310" y="744" on="1"/>
        <pt x="379" y="740" on="0"/>
        <pt x="400" y="715" on="1"/>
        <pt x="415" y="698" on="0"/>
        <pt x="423" y="663" on="0"/>
        <pt x="436" y="642" on="0"/>
        <pt x="432" y="619" on="0"/>
        <pt x="435" y="604" on="0"/>
        <pt x="429" y="588" on="0"/>
        <pt x="426" y="580" on="1"/>
        <pt x="420" y="559" on="0"/>
        <pt x="435" y="541" on="0"/>
        <pt x="447" y="526" on="0"/>
        <pt x="450" y="518" on="1"/>
        <pt x="459" y="498" on="0"/>
        <pt x="445" y="470" on="0"/>
        <pt x="428" y="444" on="0"/>
        <pt x="415" y="443" on="1"/>
        <pt x="380" y="440" on="0"/>
        <pt x="356" y="423" on="0"/>
        <pt x="348" y="420" on="1"/>
        <pt x="328" y="411" on="0"/>
        <pt x="311" y="422" on="1"/>
        <pt x="283" y="435" on="0"/>
        <pt x="287" y="470" on="1"/>
        <pt x="289" y="512" on="0"/>
        <pt x="256" y="516" on="1"/>
        <pt x="241" y="518" on="0"/>
        <pt x="209" y="496" on="0"/>
        <pt x="200" y="478" on="1"/>
        <pt x="179" y="431" on="0"/>
        <pt x="195" y="391" on="1"/>
        <pt x="199" y="381" on="0"/>
        <pt x="199" y="366" on="1"/>
        <pt x="199" y="340" on="1"/>
        <pt x="199" y="317" on="0"/>
        <pt x="188" y="295" on="0"/>
        <pt x="186" y="266" on="0"/>
        <pt x="187" y="228" on="0"/>
        <pt x="192" y="185" on="0"/>
        <pt x="196" y="167" on="1"/>
        <pt x="207" y="125" on="0"/>
        <pt x="227" y="127" on="1"/>
        <pt x="243" y="127" on="0"/>
        <pt x="252" y="142" on="1"/>
        <pt x="255" y="148" on="0"/>
        <pt x="263" y="160" on="0"/>
        <pt x="279" y="167" on="0"/>
        <pt x="286" y="183" on="0"/>
        <pt x="286" y="194" on="1"/>
        <pt x="287" y="206" on="0"/>
        <pt x="284" y="243" on="1"/>
        <pt x="276" y="241" on="0"/>
      </contour>
    </TTGlyph>
    <TTGlyph name="H" xMin="26" yMin="-19" xMax="442" yMax="763">
      <contour>
        <pt x="123" y="744" on="1"/>
        <pt x="194" y="765" on="0"/>
        <pt x="205" y="718" on="1"/>
        <pt x="209" y="701" on="0"/>
        <pt x="205" y="679" on="0"/>
        <pt x="205" y="666" on="1"/>
        <pt x="205" y="636" on="1"/>
        <pt x="205" y="595" on="0"/>
        <pt x="199" y="562" on="0"/>
        <pt x="203" y="518" on="0"/>
        <pt x="196" y="478" on="0"/>
        <pt x="204" y="464" on="0"/>
        <pt x="210" y="460" on="1"/>
        <pt x="218" y="454" on="0"/>
        <pt x="231" y="454" on="1"/>
        <pt x="253" y="454" on="0"/>
        <pt x="260" y="474" on="1"/>
        <pt x="263" y="483" on="0"/>
        <pt x="258" y="526" on="0"/>
        <pt x="262" y="568" on="0"/>
        <pt x="257" y="603" on="0"/>
        <pt x="254" y="643" on="0"/>
        <pt x="254" y="664" on="1"/>
        <pt x="254" y="713" on="0"/>
        <pt x="276" y="739" on="0"/>
        <pt x="323" y="752" on="0"/>
        <pt x="350" y="752" on="1"/>
        <pt x="413" y="752" on="0"/>
        <pt x="433" y="724" on="1"/>
        <pt x="442" y="712" on="0"/>
        <pt x="442" y="688" on="0"/>
        <pt x="440" y="675" on="0"/>
        <pt x="441" y="666" on="1"/>
        <pt x="444" y="642" on="0"/>
        <pt x="432" y="594" on="0"/>
        <pt x="427" y="548" on="0"/>
        <pt x="426" y="521" on="1"/>
        <pt x="423" y="476" on="0"/>
        <pt x="423" y="425" on="1"/>
        <pt x="423" y="334" on="0"/>
        <pt x="416" y="310" on="1"/>
        <pt x="399" y="259" on="0"/>
        <pt x="410" y="233" on="1"/>
        <pt x="413" y="226" on="0"/>
        <pt x="412" y="207" on="0"/>
        <pt x="411" y="186" on="0"/>
        <pt x="411" y="166" on="0"/>
        <pt x="416" y="153" on="1"/>
        <pt x="425" y="126" on="0"/>
        <pt x="399" y="96" on="1"/>
        <pt x="390" y="86" on="0"/>
        <pt x="392" y="37" on="0"/>
        <pt x="392" y="14" on="0"/>
        <pt x="381" y="3" on="0"/>
        <pt x="346" y="-9" on="0"/>
        <pt x="325" y="-11" on="1"/>
        <pt x="272" y="-16" on="0"/>
        <pt x="258" y="10" on="1"/>
        <pt x="246" y="32" on="0"/>
        <pt x="259" y="163" on="0"/>
        <pt x="264" y="229" on="0"/>
        <pt x="256" y="255" on="0"/>
        <pt x="238" y="261" on="0"/>
        <pt x="228" y="260" on="1"/>
        <pt x="206" y="258" on="0"/>
        <pt x="198" y="247" on="1"/>
        <pt x="199" y="224" on="0"/>
        <pt x="199" y="143" on="0"/>
        <pt x="198" y="102" on="1"/>
        <pt x="195" y="1" on="0"/>
        <pt x="186" y="-12" on="0"/>
        <pt x="162" y="-18" on="0"/>
        <pt x="148" y="-18" on="1"/>
        <pt x="116" y="-20" on="0"/>
        <pt x="96" y="5" on="0"/>
        <pt x="84" y="19" on="0"/>
        <pt x="63" y="26" on="0"/>
        <pt x="59" y="42" on="0"/>
        <pt x="57" y="54" on="1"/>
        <pt x="52" y="82" on="0"/>
        <pt x="62" y="97" on="0"/>
        <pt x="63" y="123" on="0"/>
        <pt x="55" y="130" on="0"/>
        <pt x="48" y="180" on="0"/>
        <pt x="44" y="242" on="0"/>
        <pt x="44" y="299" on="0"/>
        <pt x="50" y="313" on="1"/>
        <pt x="64" y="345" on="0"/>
        <pt x="41" y="405" on="0"/>
        <pt x="37" y="440" on="0"/>
        <pt x="36" y="454" on="1"/>
        <pt x="35" y="491" on="0"/>
        <pt x="29" y="511" on="0"/>
        <pt x="27" y="546" on="0"/>
        <pt x="27" y="586" on="0"/>
        <pt x="28" y="628" on="0"/>
        <pt x="25" y="680" on="0"/>
        <pt x="30" y="732" on="0"/>
        <pt x="61" y="760" on="0"/>
        <pt x="106" y="766" on="0"/>
      </contour>
    </TTGlyph>
    <TTGlyph name="I" xMin="15" yMin="-23" xMax="297" yMax="754">
      <contour>
        <pt x="230" y="155" on="1"/>
        <pt x="237" y="138" on="0"/>
        <pt x="251" y="138" on="1"/>
        <pt x="264" y="138" on="0"/>
        <pt x="268" y="133" on="1"/>
        <pt x="275" y="122" on="0"/>
        <pt x="268" y="91" on="1"/>
        <pt x="264" y="73" on="0"/>
        <pt x="263" y="53" on="0"/>
        <pt x="262" y="46" on="1"/>
        <pt x="260" y="34" on="0"/>
        <pt x="248" y="20" on="1"/>
        <pt x="235" y="9" on="0"/>
        <pt x="204" y="0" on="0"/>
        <pt x="184" y="-5" on="0"/>
        <pt x="172" y="-11" on="1"/>
        <pt x="154" y="-20" on="0"/>
        <pt x="129" y="-18" on="0"/>
        <pt x="116" y="-17" on="0"/>
        <pt x="99" y="-23" on="0"/>
        <pt x="89" y="-22" on="0"/>
        <pt x="84" y="-20" on="1"/>
        <pt x="69" y="-14" on="0"/>
        <pt x="56" y="-14" on="1"/>
        <pt x="38" y="-14" on="0"/>
        <pt x="32" y="46" on="1"/>
        <pt x="29" y="70" on="0"/>
        <pt x="33" y="114" on="0"/>
        <pt x="43" y="127" on="0"/>
        <pt x="57" y="132" on="0"/>
        <pt x="69" y="135" on="0"/>
        <pt x="74" y="136" on="1"/>
        <pt x="80" y="139" on="0"/>
        <pt x="81" y="176" on="0"/>
        <pt x="82" y="192" on="1"/>
        <pt x="83" y="236" on="0"/>
        <pt x="89" y="254" on="1"/>
        <pt x="99" y="281" on="0"/>
        <pt x="86" y="300" on="1"/>
        <pt x="73" y="323" on="0"/>
        <pt x="76" y="386" on="1"/>
        <pt x="78" y="424" on="0"/>
        <pt x="75" y="448" on="1"/>
        <pt x="71" y="495" on="0"/>
        <pt x="72" y="514" on="1"/>
        <pt x="73" y="528" on="0"/>
        <pt x="73" y="544" on="0"/>
        <pt x="72" y="548" on="1"/>
        <pt x="69" y="556" on="0"/>
        <pt x="39" y="557" on="0"/>
        <pt x="13" y="583" on="0"/>
        <pt x="15" y="611" on="1"/>
        <pt x="18" y="639" on="0"/>
        <pt x="12" y="685" on="0"/>
        <pt x="24" y="711" on="0"/>
        <pt x="26" y="729" on="0"/>
        <pt x="28" y="736" on="1"/>
        <pt x="34" y="752" on="0"/>
        <pt x="77" y="756" on="0"/>
        <pt x="114" y="751" on="0"/>
        <pt x="130" y="747" on="1"/>
        <pt x="172" y="737" on="0"/>
        <pt x="185" y="737" on="1"/>
        <pt x="195" y="737" on="0"/>
        <pt x="220" y="742" on="0"/>
        <pt x="232" y="744" on="1"/>
        <pt x="260" y="749" on="0"/>
        <pt x="289" y="733" on="0"/>
        <pt x="296" y="711" on="0"/>
        <pt x="296" y="686" on="0"/>
        <pt x="293" y="658" on="0"/>
        <pt x="296" y="642" on="1"/>
        <pt x="305" y="606" on="0"/>
        <pt x="289" y="561" on="0"/>
        <pt x="275" y="552" on="0"/>
        <pt x="262" y="550" on="0"/>
        <pt x="249" y="549" on="0"/>
        <pt x="244" y="542" on="1"/>
        <pt x="236" y="529" on="0"/>
        <pt x="236" y="442" on="1"/>
        <pt x="238" y="275" on="1"/>
        <pt x="238" y="211" on="0"/>
      </contour>
    </TTGlyph>
    <TTGlyph name="Iacute" xMin="15" yMin="-23" xMax="297" yMax="951">
      <component glyphName="I" x="0" y="0" flags="0x1204"/>
      <component glyphName="acute" x="-40" y="184" flags="0x1004"/>
    </TTGlyph>
    <TTGlyph name="Icircumflex" xMin="15" yMin="-23" xMax="297" yMax="948">
      <component glyphName="I" x="0" y="0" flags="0x1204"/>
      <component glyphName="circumflex" x="-71" y="184" flags="0x1004"/>
    </TTGlyph>
    <TTGlyph name="Idieresis" xMin="12" yMin="-23" xMax="313" yMax="917">
      <component glyphName="I" x="0" y="0" flags="0x1204"/>
      <component glyphName="dieresis" x="-71" y="164" flags="0x1004"/>
    </TTGlyph>
    <TTGlyph name="Igrave" xMin="15" yMin="-23" xMax="297" yMax="950">
      <component glyphName="I" x="0" y="0" flags="0x1204"/>
      <component glyphName="grave" x="-71" y="184" flags="0x1004"/>
    </TTGlyph>
    <TTGlyph name="J" xMin="-31" yMin="-31" xMax="362" yMax="765">
      <contour>
        <pt x="175" y="461" on="1"/>
        <pt x="172" y="482" on="0"/>
        <pt x="172" y="507" on="1"/>
        <pt x="172" y="550" on="0"/>
        <pt x="158" y="580" on="0"/>
        <pt x="160" y="599" on="0"/>
        <pt x="156" y="606" on="1"/>
        <pt x="153" y="613" on="0"/>
        <pt x="154" y="641" on="0"/>
        <pt x="133" y="669" on="0"/>
        <pt x="129" y="704" on="0"/>
        <pt x="138" y="716" on="1"/>
        <pt x="148" y="727" on="0"/>
        <pt x="167" y="729" on="0"/>
        <pt x="181" y="730" on="0"/>
        <pt x="191" y="736" on="1"/>
        <pt x="201" y="742" on="0"/>
        <pt x="223" y="741" on="0"/>
        <pt x="234" y="740" on="1"/>
        <pt x="265" y="739" on="0"/>
        <pt x="280" y="749" on="1"/>
        <pt x="314" y="771" on="0"/>
        <pt x="336" y="765" on="1"/>
        <pt x="382" y="751" on="0"/>
        <pt x="362" y="654" on="1"/>
        <pt x="350" y="600" on="0"/>
        <pt x="351" y="393" on="0"/>
        <pt x="349" y="325" on="0"/>
        <pt x="340" y="310" on="1"/>
        <pt x="327" y="290" on="0"/>
        <pt x="327" y="250" on="1"/>
        <pt x="328" y="175" on="1"/>
        <pt x="326" y="136" on="0"/>
        <pt x="308" y="66" on="0"/>
        <pt x="279" y="46" on="1"/>
        <pt x="263" y="35" on="0"/>
        <pt x="226" y="-15" on="0"/>
        <pt x="207" y="-32" on="0"/>
        <pt x="180" y="-29" on="0"/>
        <pt x="171" y="-19" on="0"/>
        <pt x="167" y="-14" on="1"/>
        <pt x="157" y="-2" on="0"/>
        <pt x="92" y="-10" on="0"/>
        <pt x="52" y="-10" on="0"/>
        <pt x="36" y="10" on="1"/>
        <pt x="25" y="22" on="0"/>
        <pt x="22" y="33" on="1"/>
        <pt x="17" y="53" on="0"/>
        <pt x="-2" y="73" on="0"/>
        <pt x="-10" y="92" on="0"/>
        <pt x="-13" y="110" on="0"/>
        <pt x="-16" y="130" on="0"/>
        <pt x="-33" y="168" on="0"/>
        <pt x="-28" y="213" on="0"/>
        <pt x="-19" y="224" on="1"/>
        <pt x="2" y="251" on="0"/>
        <pt x="38" y="255" on="1"/>
        <pt x="67" y="274" on="0"/>
        <pt x="83" y="264" on="1"/>
        <pt x="89" y="260" on="0"/>
        <pt x="100" y="257" on="0"/>
        <pt x="104" y="254" on="1"/>
        <pt x="111" y="250" on="0"/>
        <pt x="109" y="224" on="1"/>
        <pt x="104" y="194" on="0"/>
        <pt x="111" y="165" on="0"/>
        <pt x="120" y="158" on="1"/>
        <pt x="139" y="144" on="0"/>
        <pt x="160" y="157" on="1"/>
        <pt x="165" y="180" on="0"/>
        <pt x="180" y="200" on="1"/>
        <pt x="180" y="245" on="1"/>
        <pt x="180" y="322" on="0"/>
        <pt x="174" y="348" on="0"/>
        <pt x="177" y="360" on="0"/>
        <pt x="180" y="366" on="1"/>
        <pt x="193" y="401" on="0"/>
        <pt x="176" y="426" on="1"/>
        <pt x="165" y="441" on="0"/>
      </contour>
    </TTGlyph>
    <TTGlyph name="K" xMin="31" yMin="-15" xMax="495" yMax="758">
      <contour>
        <pt x="40" y="573" on="1"/>
        <pt x="41" y="592" on="1"/>
        <pt x="41" y="595" on="0"/>
        <pt x="34" y="620" on="0"/>
        <pt x="33" y="642" on="0"/>
        <pt x="34" y="657" on="0"/>
        <pt x="35" y="670" on="0"/>
        <pt x="28" y="693" on="0"/>
        <pt x="40" y="713" on="0"/>
        <pt x="42" y="732" on="0"/>
        <pt x="52" y="751" on="0"/>
        <pt x="83" y="763" on="0"/>
        <pt x="100" y="753" on="0"/>
        <pt x="110" y="746" on="1"/>
        <pt x="138" y="726" on="0"/>
        <pt x="191" y="730" on="0"/>
        <pt x="211" y="719" on="0"/>
        <pt x="221" y="701" on="0"/>
        <pt x="225" y="681" on="0"/>
        <pt x="231" y="661" on="0"/>
        <pt x="235" y="629" on="0"/>
        <pt x="216" y="596" on="0"/>
        <pt x="217" y="572" on="0"/>
        <pt x="220" y="558" on="1"/>
        <pt x="226" y="520" on="0"/>
        <pt x="216" y="488" on="1"/>
        <pt x="214" y="484" on="0"/>
        <pt x="213" y="477" on="0"/>
        <pt x="211" y="474" on="1"/>
        <pt x="254" y="503" on="0"/>
        <pt x="264" y="517" on="1"/>
        <pt x="276" y="531" on="0"/>
        <pt x="290" y="572" on="0"/>
        <pt x="296" y="582" on="0"/>
        <pt x="298" y="585" on="1"/>
        <pt x="303" y="590" on="0"/>
        <pt x="306" y="606" on="1"/>
        <pt x="314" y="648" on="0"/>
        <pt x="328" y="659" on="1"/>
        <pt x="325" y="689" on="0"/>
        <pt x="347" y="744" on="0"/>
        <pt x="411" y="753" on="0"/>
        <pt x="425" y="741" on="1"/>
        <pt x="450" y="746" on="0"/>
        <pt x="474" y="741" on="0"/>
        <pt x="486" y="728" on="1"/>
        <pt x="508" y="706" on="0"/>
        <pt x="495" y="648" on="1"/>
        <pt x="492" y="637" on="0"/>
        <pt x="491" y="612" on="0"/>
        <pt x="489" y="600" on="1"/>
        <pt x="484" y="572" on="0"/>
        <pt x="464" y="555" on="1"/>
        <pt x="426" y="523" on="0"/>
        <pt x="426" y="463" on="1"/>
        <pt x="426" y="437" on="0"/>
        <pt x="407" y="418" on="0"/>
        <pt x="383" y="420" on="0"/>
        <pt x="362" y="406" on="0"/>
        <pt x="353" y="396" on="1"/>
        <pt x="331" y="370" on="0"/>
        <pt x="330" y="342" on="0"/>
        <pt x="348" y="312" on="0"/>
        <pt x="360" y="290" on="1"/>
        <pt x="383" y="249" on="1"/>
        <pt x="426" y="172" on="0"/>
        <pt x="426" y="82" on="1"/>
        <pt x="426" y="67" on="0"/>
        <pt x="445" y="26" on="0"/>
        <pt x="426" y="-12" on="0"/>
        <pt x="412" y="-15" on="1"/>
        <pt x="360" y="-30" on="0"/>
        <pt x="343" y="46" on="1"/>
        <pt x="330" y="100" on="0"/>
        <pt x="281" y="139" on="1"/>
        <pt x="268" y="150" on="0"/>
        <pt x="263" y="167" on="1"/>
        <pt x="255" y="192" on="1"/>
        <pt x="252" y="202" on="0"/>
        <pt x="241" y="217" on="0"/>
        <pt x="229" y="234" on="0"/>
        <pt x="220" y="233" on="1"/>
        <pt x="206" y="231" on="0"/>
        <pt x="205" y="203" on="1"/>
        <pt x="205" y="176" on="1"/>
        <pt x="205" y="95" on="0"/>
        <pt x="184" y="83" on="1"/>
        <pt x="175" y="78" on="0"/>
        <pt x="170" y="64" on="1"/>
        <pt x="161" y="36" on="1"/>
        <pt x="156" y="21" on="0"/>
        <pt x="141" y="-4" on="0"/>
        <pt x="125" y="-6" on="1"/>
        <pt x="94" y="-10" on="0"/>
        <pt x="71" y="56" on="0"/>
        <pt x="69" y="140" on="0"/>
        <pt x="65" y="162" on="0"/>
        <pt x="58" y="177" on="0"/>
        <pt x="51" y="190" on="0"/>
        <pt x="47" y="201" on="1"/>
        <pt x="38" y="227" on="0"/>
        <pt x="35" y="294" on="0"/>
        <pt x="38" y="316" on="0"/>
        <pt x="35" y="333" on="1"/>
        <pt x="31" y="350" on="0"/>
        <pt x="37" y="377" on="0"/>
        <pt x="35" y="400" on="0"/>
        <pt x="39" y="420" on="0"/>
        <pt x="41" y="432" on="1"/>
        <pt x="46" y="459" on="0"/>
        <pt x="42" y="504" on="0"/>
        <pt x="43" y="522" on="0"/>
        <pt x="44" y="534" on="0"/>
        <pt x="44" y="540" on="1"/>
      </contour>
    </TTGlyph>
    <TTGlyph name="L" xMin="26" yMin="1" xMax="390" yMax="745">
      <contour>
        <pt x="204" y="143" on="1"/>
        <pt x="216" y="148" on="0"/>
        <pt x="244" y="148" on="0"/>
        <pt x="260" y="140" on="0"/>
        <pt x="268" y="135" on="1"/>
        <pt x="287" y="122" on="0"/>
        <pt x="331" y="123" on="0"/>
        <pt x="361" y="126" on="0"/>
        <pt x="375" y="116" on="1"/>
        <pt x="392" y="101" on="0"/>
        <pt x="390" y="66" on="1"/>
        <pt x="388" y="33" on="0"/>
        <pt x="362" y="14" on="0"/>
        <pt x="340" y="14" on="0"/>
        <pt x="318" y="17" on="0"/>
        <pt x="298" y="19" on="0"/>
        <pt x="291" y="13" on="1"/>
        <pt x="255" y="-12" on="0"/>
        <pt x="234" y="8" on="1"/>
        <pt x="224" y="19" on="0"/>
        <pt x="192" y="17" on="0"/>
        <pt x="167" y="6" on="0"/>
        <pt x="154" y="2" on="1"/>
        <pt x="95" y="-20" on="0"/>
        <pt x="74" y="34" on="1"/>
        <pt x="70" y="45" on="0"/>
        <pt x="65" y="64" on="0"/>
        <pt x="62" y="70" on="1"/>
        <pt x="55" y="84" on="0"/>
        <pt x="58" y="118" on="1"/>
        <pt x="61" y="165" on="0"/>
        <pt x="53" y="209" on="0"/>
        <pt x="50" y="222" on="1"/>
        <pt x="43" y="256" on="0"/>
        <pt x="44" y="275" on="1"/>
        <pt x="47" y="308" on="0"/>
        <pt x="41" y="346" on="1"/>
        <pt x="40" y="357" on="0"/>
        <pt x="48" y="376" on="1"/>
        <pt x="74" y="436" on="0"/>
        <pt x="48" y="468" on="1"/>
        <pt x="43" y="474" on="0"/>
        <pt x="35" y="484" on="0"/>
        <pt x="35" y="493" on="1"/>
        <pt x="26" y="574" on="0"/>
        <pt x="26" y="701" on="1"/>
        <pt x="26" y="712" on="0"/>
        <pt x="36" y="722" on="1"/>
        <pt x="55" y="741" on="0"/>
        <pt x="66" y="739" on="1"/>
        <pt x="103" y="729" on="0"/>
        <pt x="162" y="744" on="0"/>
        <pt x="206" y="745" on="0"/>
        <pt x="222" y="724" on="1"/>
        <pt x="258" y="674" on="0"/>
        <pt x="240" y="605" on="1"/>
        <pt x="235" y="589" on="0"/>
        <pt x="237" y="560" on="0"/>
        <pt x="224" y="527" on="0"/>
        <pt x="226" y="499" on="0"/>
        <pt x="228" y="474" on="1"/>
        <pt x="233" y="409" on="0"/>
        <pt x="210" y="373" on="1"/>
        <pt x="198" y="354" on="0"/>
        <pt x="201" y="300" on="0"/>
        <pt x="204" y="265" on="0"/>
        <pt x="201" y="224" on="0"/>
        <pt x="201" y="169" on="0"/>
      </contour>
    </TTGlyph>
    <TTGlyph name="Lslash" xMin="-31" yMin="1" xMax="390" yMax="745">
      <contour>
        <pt x="204" y="143" on="1"/>
        <pt x="216" y="148" on="0"/>
        <pt x="244" y="148" on="0"/>
        <pt x="260" y="140" on="0"/>
        <pt x="268" y="135" on="1"/>
        <pt x="287" y="122" on="0"/>
        <pt x="331" y="123" on="0"/>
        <pt x="361" y="126" on="0"/>
        <pt x="375" y="116" on="1"/>
        <pt x="392" y="101" on="0"/>
        <pt x="390" y="66" on="1"/>
        <pt x="388" y="33" on="0"/>
        <pt x="362" y="14" on="0"/>
        <pt x="340" y="14" on="0"/>
        <pt x="318" y="17" on="0"/>
        <pt x="298" y="19" on="0"/>
        <pt x="291" y="13" on="1"/>
        <pt x="255" y="-12" on="0"/>
        <pt x="234" y="8" on="1"/>
        <pt x="224" y="19" on="0"/>
        <pt x="192" y="17" on="0"/>
        <pt x="167" y="6" on="0"/>
        <pt x="154" y="2" on="1"/>
        <pt x="95" y="-20" on="0"/>
        <pt x="74" y="34" on="1"/>
        <pt x="70" y="45" on="0"/>
        <pt x="65" y="64" on="0"/>
        <pt x="62" y="70" on="1"/>
        <pt x="55" y="84" on="0"/>
        <pt x="60" y="153" on="0"/>
        <pt x="57" y="192" on="0"/>
        <pt x="45" y="241" on="0"/>
        <pt x="44" y="262" on="1"/>
        <pt x="30" y="253" on="0"/>
        <pt x="8" y="240" on="0"/>
        <pt x="-2" y="242" on="1"/>
        <pt x="-28" y="247" on="0"/>
        <pt x="-31" y="284" on="1"/>
        <pt x="-33" y="310" on="0"/>
        <pt x="-14" y="330" on="1"/>
        <pt x="-4" y="339" on="0"/>
        <pt x="8" y="342" on="1"/>
        <pt x="26" y="347" on="0"/>
        <pt x="41" y="355" on="1"/>
        <pt x="42" y="363" on="0"/>
        <pt x="50" y="380" on="0"/>
        <pt x="54" y="389" on="1"/>
        <pt x="64" y="411" on="0"/>
        <pt x="60" y="448" on="0"/>
        <pt x="52" y="463" on="0"/>
        <pt x="43" y="474" on="0"/>
        <pt x="35" y="484" on="0"/>
        <pt x="35" y="493" on="1"/>
        <pt x="26" y="574" on="0"/>
        <pt x="26" y="701" on="1"/>
        <pt x="26" y="712" on="0"/>
        <pt x="36" y="722" on="1"/>
        <pt x="55" y="741" on="0"/>
        <pt x="66" y="739" on="1"/>
        <pt x="103" y="729" on="0"/>
        <pt x="162" y="744" on="0"/>
        <pt x="206" y="745" on="0"/>
        <pt x="222" y="724" on="1"/>
        <pt x="258" y="674" on="0"/>
        <pt x="240" y="605" on="1"/>
        <pt x="235" y="589" on="0"/>
        <pt x="237" y="560" on="0"/>
        <pt x="224" y="527" on="0"/>
        <pt x="226" y="499" on="0"/>
        <pt x="228" y="479" on="1"/>
        <pt x="253" y="493" on="0"/>
        <pt x="272" y="494" on="0"/>
        <pt x="293" y="484" on="0"/>
        <pt x="300" y="474" on="1"/>
        <pt x="318" y="453" on="0"/>
        <pt x="294" y="409" on="0"/>
        <pt x="271" y="396" on="0"/>
        <pt x="248" y="393" on="0"/>
        <pt x="227" y="395" on="0"/>
        <pt x="220" y="395" on="1"/>
        <pt x="217" y="386" on="0"/>
        <pt x="203" y="362" on="0"/>
        <pt x="199" y="333" on="0"/>
        <pt x="201" y="300" on="0"/>
        <pt x="204" y="265" on="0"/>
        <pt x="201" y="224" on="0"/>
        <pt x="201" y="169" on="0"/>
      </contour>
    </TTGlyph>
    <TTGlyph name="M" xMin="31" yMin="-12" xMax="646" yMax="744">
      <contour>
        <pt x="481" y="744" on="1"/>
        <pt x="513" y="744" on="0"/>
        <pt x="540" y="727" on="1"/>
        <pt x="556" y="732" on="0"/>
        <pt x="585" y="732" on="0"/>
        <pt x="628" y="724" on="0"/>
        <pt x="647" y="692" on="0"/>
        <pt x="646" y="681" on="1"/>
        <pt x="644" y="661" on="0"/>
        <pt x="639" y="652" on="1"/>
        <pt x="648" y="628" on="0"/>
        <pt x="630" y="593" on="1"/>
        <pt x="654" y="535" on="0"/>
        <pt x="629" y="420" on="1"/>
        <pt x="623" y="392" on="0"/>
        <pt x="617" y="366" on="1"/>
        <pt x="603" y="305" on="0"/>
        <pt x="603" y="280" on="1"/>
        <pt x="603" y="264" on="0"/>
        <pt x="608" y="202" on="0"/>
        <pt x="612" y="138" on="0"/>
        <pt x="612" y="84" on="0"/>
        <pt x="601" y="69" on="0"/>
        <pt x="596" y="38" on="0"/>
        <pt x="588" y="8" on="0"/>
        <pt x="574" y="-13" on="0"/>
        <pt x="553" y="-10" on="0"/>
        <pt x="548" y="-4" on="0"/>
        <pt x="546" y="0" on="1"/>
        <pt x="543" y="10" on="0"/>
        <pt x="534" y="13" on="1"/>
        <pt x="520" y="17" on="0"/>
        <pt x="519" y="46" on="0"/>
        <pt x="528" y="59" on="0"/>
        <pt x="528" y="74" on="0"/>
        <pt x="525" y="82" on="1"/>
        <pt x="518" y="98" on="0"/>
        <pt x="496" y="103" on="0"/>
        <pt x="482" y="122" on="0"/>
        <pt x="477" y="134" on="1"/>
        <pt x="465" y="163" on="0"/>
        <pt x="472" y="193" on="0"/>
        <pt x="467" y="214" on="1"/>
        <pt x="451" y="278" on="0"/>
        <pt x="465" y="311" on="1"/>
        <pt x="470" y="325" on="0"/>
        <pt x="466" y="335" on="1"/>
        <pt x="460" y="356" on="0"/>
        <pt x="463" y="371" on="1"/>
        <pt x="469" y="401" on="0"/>
        <pt x="469" y="452" on="0"/>
        <pt x="456" y="452" on="1"/>
        <pt x="444" y="452" on="0"/>
        <pt x="440" y="388" on="1"/>
        <pt x="436" y="317" on="0"/>
        <pt x="419" y="291" on="0"/>
        <pt x="407" y="274" on="0"/>
        <pt x="402" y="263" on="1"/>
        <pt x="392" y="241" on="0"/>
        <pt x="392" y="188" on="0"/>
        <pt x="389" y="178" on="0"/>
        <pt x="388" y="172" on="1"/>
        <pt x="383" y="154" on="0"/>
        <pt x="383" y="128" on="1"/>
        <pt x="383" y="92" on="0"/>
        <pt x="368" y="70" on="1"/>
        <pt x="366" y="67" on="0"/>
        <pt x="362" y="48" on="0"/>
        <pt x="358" y="38" on="1"/>
        <pt x="348" y="14" on="0"/>
        <pt x="316" y="15" on="0"/>
        <pt x="299" y="34" on="0"/>
        <pt x="289" y="60" on="0"/>
        <pt x="283" y="86" on="0"/>
        <pt x="276" y="98" on="1"/>
        <pt x="266" y="115" on="0"/>
        <pt x="281" y="168" on="1"/>
        <pt x="287" y="189" on="0"/>
        <pt x="285" y="216" on="0"/>
        <pt x="272" y="224" on="1"/>
        <pt x="266" y="228" on="0"/>
        <pt x="253" y="307" on="0"/>
        <pt x="244" y="360" on="0"/>
        <pt x="240" y="382" on="1"/>
        <pt x="229" y="433" on="0"/>
        <pt x="216" y="435" on="0"/>
        <pt x="213" y="424" on="0"/>
        <pt x="215" y="408" on="0"/>
        <pt x="218" y="392" on="0"/>
        <pt x="219" y="378" on="0"/>
        <pt x="206" y="339" on="0"/>
        <pt x="216" y="289" on="0"/>
        <pt x="216" y="263" on="0"/>
        <pt x="210" y="232" on="0"/>
        <pt x="213" y="208" on="0"/>
        <pt x="214" y="198" on="1"/>
        <pt x="216" y="173" on="0"/>
        <pt x="190" y="157" on="0"/>
        <pt x="191" y="121" on="0"/>
        <pt x="213" y="98" on="0"/>
        <pt x="207" y="78" on="0"/>
        <pt x="199" y="66" on="0"/>
        <pt x="201" y="58" on="0"/>
        <pt x="200" y="52" on="1"/>
        <pt x="198" y="28" on="0"/>
        <pt x="162" y="8" on="1"/>
        <pt x="133" y="-8" on="0"/>
        <pt x="95" y="-1" on="0"/>
        <pt x="77" y="19" on="0"/>
        <pt x="81" y="44" on="0"/>
        <pt x="78" y="65" on="0"/>
        <pt x="77" y="87" on="0"/>
        <pt x="76" y="98" on="1"/>
        <pt x="75" y="128" on="0"/>
        <pt x="65" y="149" on="0"/>
        <pt x="63" y="171" on="0"/>
        <pt x="64" y="190" on="0"/>
        <pt x="66" y="206" on="0"/>
        <pt x="59" y="224" on="0"/>
        <pt x="65" y="252" on="0"/>
        <pt x="61" y="278" on="0"/>
        <pt x="66" y="299" on="0"/>
        <pt x="68" y="310" on="1"/>
        <pt x="71" y="336" on="0"/>
        <pt x="57" y="345" on="1"/>
        <pt x="41" y="358" on="0"/>
        <pt x="30" y="387" on="0"/>
        <pt x="31" y="410" on="1"/>
        <pt x="32" y="433" on="0"/>
        <pt x="30" y="462" on="0"/>
        <pt x="43" y="503" on="0"/>
        <pt x="43" y="547" on="0"/>
        <pt x="40" y="579" on="0"/>
        <pt x="36" y="607" on="0"/>
        <pt x="34" y="622" on="1"/>
        <pt x="31" y="653" on="0"/>
        <pt x="37" y="674" on="1"/>
        <pt x="45" y="694" on="0"/>
        <pt x="70" y="721" on="0"/>
        <pt x="98" y="720" on="1"/>
        <pt x="152" y="718" on="0"/>
        <pt x="163" y="725" on="1"/>
        <pt x="186" y="739" on="0"/>
        <pt x="215" y="726" on="1"/>
        <pt x="223" y="723" on="0"/>
        <pt x="229" y="718" on="1"/>
        <pt x="285" y="704" on="0"/>
        <pt x="292" y="673" on="1"/>
        <pt x="312" y="589" on="0"/>
        <pt x="312" y="534" on="0"/>
        <pt x="315" y="524" on="0"/>
        <pt x="318" y="519" on="0"/>
        <pt x="318" y="513" on="0"/>
        <pt x="316" y="500" on="1"/>
        <pt x="314" y="487" on="0"/>
        <pt x="324" y="473" on="0"/>
        <pt x="337" y="473" on="0"/>
        <pt x="343" y="480" on="1"/>
        <pt x="350" y="488" on="0"/>
        <pt x="355" y="535" on="0"/>
        <pt x="355" y="540" on="1"/>
        <pt x="355" y="549" on="0"/>
        <pt x="362" y="564" on="0"/>
        <pt x="364" y="582" on="0"/>
        <pt x="366" y="592" on="1"/>
        <pt x="369" y="618" on="0"/>
        <pt x="389" y="638" on="0"/>
        <pt x="411" y="653" on="0"/>
        <pt x="417" y="681" on="0"/>
        <pt x="424" y="705" on="0"/>
        <pt x="431" y="716" on="1"/>
        <pt x="448" y="744" on="0"/>
      </contour>
    </TTGlyph>
    <TTGlyph name="N" xMin="25" yMin="-7" xMax="503" yMax="750">
      <contour>
        <pt x="391" y="746" on="1"/>
        <pt x="422" y="755" on="0"/>
        <pt x="436" y="739" on="1"/>
        <pt x="462" y="744" on="0"/>
        <pt x="506" y="710" on="0"/>
        <pt x="495" y="662" on="1"/>
        <pt x="488" y="638" on="0"/>
        <pt x="494" y="618" on="0"/>
        <pt x="505" y="598" on="0"/>
        <pt x="501" y="571" on="0"/>
        <pt x="498" y="555" on="1"/>
        <pt x="488" y="510" on="0"/>
        <pt x="494" y="482" on="1"/>
        <pt x="509" y="416" on="0"/>
        <pt x="482" y="344" on="1"/>
        <pt x="453" y="265" on="0"/>
        <pt x="464" y="154" on="1"/>
        <pt x="473" y="74" on="0"/>
        <pt x="468" y="25" on="0"/>
        <pt x="450" y="-5" on="0"/>
        <pt x="429" y="-5" on="1"/>
        <pt x="393" y="-5" on="0"/>
        <pt x="379" y="16" on="1"/>
        <pt x="371" y="28" on="0"/>
        <pt x="371" y="66" on="0"/>
        <pt x="360" y="96" on="0"/>
        <pt x="352" y="109" on="1"/>
        <pt x="333" y="137" on="0"/>
        <pt x="316" y="148" on="1"/>
        <pt x="288" y="167" on="0"/>
        <pt x="273" y="239" on="1"/>
        <pt x="264" y="292" on="0"/>
        <pt x="250" y="326" on="1"/>
        <pt x="246" y="336" on="0"/>
        <pt x="242" y="359" on="0"/>
        <pt x="240" y="370" on="1"/>
        <pt x="234" y="394" on="0"/>
        <pt x="219" y="394" on="1"/>
        <pt x="196" y="394" on="0"/>
        <pt x="201" y="328" on="1"/>
        <pt x="202" y="314" on="0"/>
        <pt x="209" y="291" on="0"/>
        <pt x="203" y="259" on="0"/>
        <pt x="198" y="242" on="1"/>
        <pt x="186" y="198" on="0"/>
        <pt x="193" y="177" on="1"/>
        <pt x="200" y="153" on="0"/>
        <pt x="196" y="100" on="0"/>
        <pt x="184" y="71" on="0"/>
        <pt x="169" y="65" on="1"/>
        <pt x="160" y="49" on="0"/>
        <pt x="148" y="8" on="0"/>
        <pt x="143" y="-6" on="0"/>
        <pt x="139" y="-7" on="1"/>
        <pt x="122" y="-13" on="0"/>
        <pt x="87" y="3" on="0"/>
        <pt x="77" y="32" on="0"/>
        <pt x="78" y="58" on="0"/>
        <pt x="71" y="79" on="0"/>
        <pt x="72" y="93" on="0"/>
        <pt x="72" y="100" on="1"/>
        <pt x="74" y="116" on="0"/>
        <pt x="67" y="124" on="1"/>
        <pt x="58" y="134" on="0"/>
        <pt x="57" y="168" on="0"/>
        <pt x="57" y="192" on="0"/>
        <pt x="59" y="200" on="1"/>
        <pt x="66" y="219" on="0"/>
        <pt x="65" y="258" on="1"/>
        <pt x="62" y="331" on="0"/>
        <pt x="47" y="346" on="1"/>
        <pt x="28" y="365" on="0"/>
        <pt x="26" y="416" on="1"/>
        <pt x="25" y="428" on="0"/>
        <pt x="30" y="449" on="0"/>
        <pt x="27" y="471" on="0"/>
        <pt x="32" y="482" on="1"/>
        <pt x="40" y="503" on="0"/>
        <pt x="34" y="580" on="0"/>
        <pt x="33" y="613" on="0"/>
        <pt x="30" y="650" on="0"/>
        <pt x="39" y="679" on="0"/>
        <pt x="50" y="690" on="1"/>
        <pt x="75" y="717" on="0"/>
        <pt x="120" y="717" on="1"/>
        <pt x="140" y="731" on="0"/>
        <pt x="193" y="747" on="0"/>
        <pt x="229" y="733" on="0"/>
        <pt x="243" y="703" on="0"/>
        <pt x="252" y="669" on="0"/>
        <pt x="261" y="634" on="0"/>
        <pt x="272" y="623" on="1"/>
        <pt x="283" y="612" on="0"/>
        <pt x="293" y="581" on="0"/>
        <pt x="301" y="553" on="0"/>
        <pt x="309" y="534" on="0"/>
        <pt x="318" y="534" on="1"/>
        <pt x="327" y="534" on="0"/>
        <pt x="330" y="585" on="0"/>
        <pt x="329" y="651" on="0"/>
        <pt x="328" y="714" on="0"/>
        <pt x="340" y="743" on="0"/>
        <pt x="371" y="757" on="0"/>
      </contour>
    </TTGlyph>
    <TTGlyph name="Ntilde" xMin="25" yMin="-7" xMax="503" yMax="914">
      <component glyphName="N" x="0" y="0" flags="0x1204"/>
      <component glyphName="tilde" x="31" y="164" flags="0x1004"/>
    </TTGlyph>
    <TTGlyph name="O" xMin="18" yMin="-6" xMax="446" yMax="754">
      <contour>
        <pt x="36" y="572" on="0"/>
        <pt x="36" y="598" on="0"/>
        <pt x="44" y="633" on="0"/>
        <pt x="77" y="662" on="0"/>
        <pt x="101" y="691" on="0"/>
        <pt x="119" y="721" on="0"/>
        <pt x="132" y="730" on="1"/>
        <pt x="177" y="761" on="0"/>
        <pt x="258" y="754" on="1"/>
        <pt x="291" y="751" on="0"/>
        <pt x="328" y="730" on="1"/>
        <pt x="346" y="720" on="0"/>
        <pt x="372" y="667" on="0"/>
        <pt x="377" y="657" on="1"/>
        <pt x="382" y="647" on="0"/>
        <pt x="398" y="638" on="0"/>
        <pt x="411" y="622" on="0"/>
        <pt x="426" y="587" on="0"/>
        <pt x="432" y="564" on="1"/>
        <pt x="448" y="511" on="0"/>
        <pt x="444" y="439" on="0"/>
        <pt x="443" y="402" on="1"/>
        <pt x="441" y="336" on="0"/>
        <pt x="419" y="278" on="0"/>
        <pt x="408" y="239" on="0"/>
        <pt x="406" y="207" on="0"/>
        <pt x="406" y="192" on="1"/>
        <pt x="404" y="152" on="0"/>
        <pt x="397" y="136" on="0"/>
        <pt x="381" y="120" on="0"/>
        <pt x="362" y="105" on="0"/>
        <pt x="344" y="91" on="0"/>
        <pt x="336" y="82" on="0"/>
        <pt x="325" y="66" on="0"/>
        <pt x="314" y="48" on="0"/>
        <pt x="305" y="33" on="0"/>
        <pt x="301" y="26" on="0"/>
        <pt x="291" y="8" on="0"/>
        <pt x="284" y="-2" on="1"/>
        <pt x="245" y="-50" on="0"/>
        <pt x="210" y="-6" on="1"/>
        <pt x="207" y="-1" on="0"/>
        <pt x="194" y="-1" on="0"/>
        <pt x="177" y="-10" on="0"/>
        <pt x="162" y="-5" on="1"/>
        <pt x="147" y="0" on="0"/>
        <pt x="130" y="23" on="0"/>
        <pt x="115" y="37" on="0"/>
        <pt x="101" y="45" on="0"/>
        <pt x="94" y="48" on="1"/>
        <pt x="75" y="58" on="0"/>
        <pt x="73" y="71" on="0"/>
        <pt x="72" y="83" on="0"/>
        <pt x="70" y="92" on="1"/>
        <pt x="62" y="140" on="0"/>
        <pt x="31" y="228" on="1"/>
        <pt x="7" y="294" on="0"/>
        <pt x="18" y="365" on="1"/>
        <pt x="26" y="417" on="0"/>
        <pt x="33" y="452" on="1"/>
        <pt x="44" y="505" on="0"/>
        <pt x="39" y="547" on="0"/>
      </contour>
      <contour>
        <pt x="213" y="501" on="0"/>
        <pt x="201" y="476" on="0"/>
        <pt x="195" y="453" on="0"/>
        <pt x="186" y="439" on="0"/>
        <pt x="182" y="432" on="1"/>
        <pt x="165" y="407" on="0"/>
        <pt x="178" y="380" on="1"/>
        <pt x="197" y="341" on="0"/>
        <pt x="199" y="316" on="0"/>
        <pt x="201" y="269" on="0"/>
        <pt x="204" y="244" on="1"/>
        <pt x="213" y="181" on="0"/>
        <pt x="231" y="181" on="1"/>
        <pt x="241" y="181" on="0"/>
        <pt x="250" y="204" on="1"/>
        <pt x="252" y="209" on="0"/>
        <pt x="253" y="233" on="0"/>
        <pt x="256" y="249" on="1"/>
        <pt x="267" y="306" on="0"/>
        <pt x="262" y="350" on="0"/>
        <pt x="261" y="384" on="0"/>
        <pt x="261" y="402" on="1"/>
        <pt x="261" y="463" on="1"/>
        <pt x="261" y="485" on="0"/>
        <pt x="250" y="504" on="0"/>
      </contour>
    </TTGlyph>
    <TTGlyph name="OE" xMin="10" yMin="-39" xMax="657" yMax="740">
      <contour>
        <pt x="654" y="698" on="0"/>
        <pt x="658" y="688" on="0"/>
        <pt x="655" y="661" on="0"/>
        <pt x="646" y="609" on="0"/>
        <pt x="648" y="580" on="0"/>
        <pt x="649" y="553" on="0"/>
        <pt x="648" y="540" on="1"/>
        <pt x="647" y="509" on="0"/>
        <pt x="621" y="493" on="0"/>
        <pt x="609" y="489" on="0"/>
        <pt x="594" y="499" on="1"/>
        <pt x="583" y="504" on="0"/>
        <pt x="542" y="482" on="0"/>
        <pt x="521" y="478" on="0"/>
        <pt x="509" y="497" on="0"/>
        <pt x="483" y="509" on="0"/>
        <pt x="470" y="510" on="1"/>
        <pt x="437" y="512" on="0"/>
        <pt x="417" y="464" on="0"/>
        <pt x="421" y="409" on="0"/>
        <pt x="439" y="393" on="0"/>
        <pt x="457" y="394" on="0"/>
        <pt x="467" y="396" on="1"/>
        <pt x="496" y="400" on="0"/>
        <pt x="528" y="391" on="0"/>
        <pt x="545" y="354" on="0"/>
        <pt x="540" y="300" on="0"/>
        <pt x="530" y="275" on="1"/>
        <pt x="515" y="238" on="0"/>
        <pt x="488" y="258" on="1"/>
        <pt x="454" y="283" on="0"/>
        <pt x="439" y="270" on="1"/>
        <pt x="416" y="252" on="0"/>
        <pt x="423" y="222" on="1"/>
        <pt x="425" y="214" on="0"/>
        <pt x="419" y="196" on="0"/>
        <pt x="416" y="186" on="1"/>
        <pt x="408" y="159" on="0"/>
        <pt x="428" y="117" on="0"/>
        <pt x="467" y="119" on="0"/>
        <pt x="518" y="135" on="0"/>
        <pt x="565" y="160" on="0"/>
        <pt x="583" y="160" on="0"/>
        <pt x="591" y="153" on="0"/>
        <pt x="600" y="146" on="1"/>
        <pt x="626" y="123" on="0"/>
        <pt x="621" y="85" on="1"/>
        <pt x="608" y="-11" on="0"/>
        <pt x="580" y="-15" on="1"/>
        <pt x="571" y="-16" on="0"/>
        <pt x="550" y="-12" on="0"/>
        <pt x="526" y="-8" on="0"/>
        <pt x="499" y="-8" on="0"/>
        <pt x="458" y="-25" on="0"/>
        <pt x="408" y="-16" on="0"/>
        <pt x="362" y="-1" on="0"/>
        <pt x="320" y="8" on="0"/>
        <pt x="291" y="-9" on="0"/>
        <pt x="280" y="-19" on="1"/>
        <pt x="256" y="-39" on="0"/>
        <pt x="214" y="-39" on="1"/>
        <pt x="174" y="-39" on="0"/>
        <pt x="158" y="-18" on="1"/>
        <pt x="150" y="-7" on="0"/>
        <pt x="133" y="16" on="0"/>
        <pt x="115" y="37" on="0"/>
        <pt x="103" y="40" on="1"/>
        <pt x="74" y="47" on="0"/>
        <pt x="62" y="83" on="1"/>
        <pt x="58" y="95" on="0"/>
        <pt x="55" y="129" on="0"/>
        <pt x="54" y="141" on="1"/>
        <pt x="50" y="170" on="0"/>
        <pt x="36" y="185" on="0"/>
        <pt x="32" y="202" on="0"/>
        <pt x="30" y="212" on="1"/>
        <pt x="26" y="237" on="0"/>
        <pt x="17" y="249" on="0"/>
        <pt x="11" y="283" on="0"/>
        <pt x="10" y="304" on="1"/>
        <pt x="9" y="356" on="0"/>
        <pt x="29" y="382" on="0"/>
        <pt x="40" y="400" on="0"/>
        <pt x="42" y="408" on="1"/>
        <pt x="46" y="420" on="0"/>
        <pt x="35" y="471" on="0"/>
        <pt x="46" y="512" on="0"/>
        <pt x="54" y="550" on="0"/>
        <pt x="61" y="569" on="0"/>
        <pt x="64" y="577" on="1"/>
        <pt x="71" y="591" on="0"/>
        <pt x="83" y="629" on="0"/>
        <pt x="92" y="644" on="0"/>
        <pt x="97" y="650" on="1"/>
        <pt x="111" y="665" on="0"/>
        <pt x="115" y="672" on="1"/>
        <pt x="133" y="703" on="0"/>
        <pt x="171" y="722" on="1"/>
        <pt x="197" y="735" on="0"/>
        <pt x="256" y="735" on="0"/>
        <pt x="276" y="731" on="1"/>
        <pt x="321" y="722" on="0"/>
        <pt x="338" y="692" on="1"/>
        <pt x="353" y="704" on="0"/>
        <pt x="353" y="719" on="0"/>
        <pt x="361" y="731" on="0"/>
        <pt x="370" y="736" on="1"/>
        <pt x="390" y="747" on="0"/>
        <pt x="427" y="740" on="1"/>
        <pt x="454" y="736" on="0"/>
        <pt x="472" y="725" on="1"/>
        <pt x="497" y="735" on="0"/>
        <pt x="533" y="727" on="0"/>
        <pt x="542" y="726" on="0"/>
        <pt x="547" y="724" on="1"/>
        <pt x="609" y="745" on="0"/>
        <pt x="628" y="726" on="1"/>
        <pt x="635" y="717" on="0"/>
        <pt x="646" y="707" on="0"/>
      </contour>
      <contour>
        <pt x="272" y="389" on="0"/>
        <pt x="264" y="440" on="0"/>
        <pt x="253" y="465" on="0"/>
        <pt x="222" y="465" on="0"/>
        <pt x="202" y="447" on="0"/>
        <pt x="191" y="420" on="0"/>
        <pt x="188" y="403" on="1"/>
        <pt x="180" y="366" on="0"/>
        <pt x="183" y="326" on="0"/>
        <pt x="180" y="303" on="0"/>
        <pt x="179" y="294" on="1"/>
        <pt x="177" y="272" on="0"/>
        <pt x="186" y="263" on="1"/>
        <pt x="197" y="255" on="0"/>
        <pt x="199" y="225" on="0"/>
        <pt x="199" y="207" on="0"/>
        <pt x="204" y="186" on="0"/>
        <pt x="218" y="173" on="1"/>
        <pt x="248" y="147" on="0"/>
        <pt x="259" y="183" on="1"/>
        <pt x="273" y="226" on="0"/>
        <pt x="274" y="325" on="0"/>
      </contour>
    </TTGlyph>
    <TTGlyph name="Oacute" xMin="18" yMin="-6" xMax="446" yMax="941">
      <component glyphName="O" x="0" y="0" flags="0x1204"/>
      <component glyphName="acute" x="10" y="174" flags="0x1004"/>
    </TTGlyph>
    <TTGlyph name="Ocircumflex" xMin="18" yMin="-6" xMax="446" yMax="959">
      <component glyphName="O" x="0" y="0" flags="0x1204"/>
      <component glyphName="circumflex" x="0" y="195" flags="0x1004"/>
    </TTGlyph>
    <TTGlyph name="Odieresis" xMin="18" yMin="-6" xMax="446" yMax="907">
      <component glyphName="O" x="0" y="0" flags="0x1204"/>
      <component glyphName="dieresis" x="10" y="154" flags="0x1004"/>
    </TTGlyph>
    <TTGlyph name="Ograve" xMin="18" yMin="-6" xMax="446" yMax="950">
      <component glyphName="O" x="0" y="0" flags="0x1204"/>
      <component glyphName="grave" x="0" y="184" flags="0x1004"/>
    </TTGlyph>
    <TTGlyph name="Oslash" xMin="20" yMin="-46" xMax="473" yMax="750">
      <contour>
        <pt x="449" y="728" on="1"/>
        <pt x="477" y="724" on="0"/>
        <pt x="473" y="685" on="1"/>
        <pt x="473" y="674" on="0"/>
        <pt x="458" y="651" on="0"/>
        <pt x="448" y="643" on="0"/>
        <pt x="439" y="633" on="0"/>
        <pt x="432" y="608" on="0"/>
        <pt x="425" y="597" on="1"/>
        <pt x="426" y="586" on="0"/>
        <pt x="430" y="577" on="1"/>
        <pt x="444" y="550" on="0"/>
        <pt x="435" y="479" on="0"/>
        <pt x="438" y="450" on="0"/>
        <pt x="445" y="436" on="0"/>
        <pt x="448" y="429" on="1"/>
        <pt x="456" y="410" on="0"/>
        <pt x="456" y="391" on="1"/>
        <pt x="456" y="367" on="0"/>
        <pt x="440" y="343" on="1"/>
        <pt x="433" y="334" on="0"/>
        <pt x="437" y="282" on="0"/>
        <pt x="438" y="256" on="1"/>
        <pt x="439" y="191" on="0"/>
        <pt x="423" y="160" on="0"/>
        <pt x="416" y="154" on="0"/>
        <pt x="413" y="152" on="1"/>
        <pt x="398" y="145" on="0"/>
        <pt x="375" y="76" on="0"/>
        <pt x="337" y="33" on="0"/>
        <pt x="296" y="6" on="0"/>
        <pt x="273" y="-9" on="0"/>
        <pt x="263" y="-23" on="0"/>
        <pt x="258" y="-30" on="1"/>
        <pt x="245" y="-46" on="0"/>
        <pt x="225" y="-46" on="1"/>
        <pt x="191" y="-46" on="0"/>
        <pt x="175" y="-30" on="1"/>
        <pt x="168" y="-21" on="0"/>
        <pt x="160" y="-4" on="1"/>
        <pt x="145" y="23" on="0"/>
        <pt x="120" y="40" on="1"/>
        <pt x="103" y="51" on="0"/>
        <pt x="98" y="62" on="1"/>
        <pt x="82" y="46" on="0"/>
        <pt x="81" y="33" on="1"/>
        <pt x="79" y="10" on="0"/>
        <pt x="72" y="1" on="0"/>
        <pt x="58" y="1" on="0"/>
        <pt x="51" y="4" on="1"/>
        <pt x="34" y="13" on="0"/>
        <pt x="32" y="31" on="1"/>
        <pt x="30" y="51" on="0"/>
        <pt x="58" y="89" on="1"/>
        <pt x="70" y="105" on="0"/>
        <pt x="81" y="126" on="0"/>
        <pt x="85" y="133" on="1"/>
        <pt x="85" y="165" on="0"/>
        <pt x="69" y="208" on="0"/>
        <pt x="68" y="222" on="1"/>
        <pt x="63" y="264" on="0"/>
        <pt x="40" y="267" on="1"/>
        <pt x="23" y="269" on="0"/>
        <pt x="20" y="318" on="1"/>
        <pt x="19" y="343" on="0"/>
        <pt x="25" y="388" on="0"/>
        <pt x="30" y="404" on="1"/>
        <pt x="38" y="433" on="0"/>
        <pt x="32" y="510" on="0"/>
        <pt x="35" y="540" on="1"/>
        <pt x="40" y="596" on="0"/>
        <pt x="59" y="631" on="1"/>
        <pt x="68" y="646" on="0"/>
        <pt x="103" y="676" on="0"/>
        <pt x="120" y="690" on="1"/>
        <pt x="131" y="700" on="0"/>
        <pt x="147" y="723" on="0"/>
        <pt x="160" y="733" on="1"/>
        <pt x="195" y="762" on="0"/>
        <pt x="230" y="750" on="1"/>
        <pt x="273" y="734" on="0"/>
        <pt x="345" y="726" on="0"/>
        <pt x="378" y="698" on="0"/>
        <pt x="392" y="680" on="0"/>
        <pt x="395" y="675" on="0"/>
        <pt x="397" y="673" on="1"/>
        <pt x="420" y="719" on="0"/>
        <pt x="439" y="730" on="0"/>
      </contour>
      <contour>
        <pt x="233" y="388" on="1"/>
        <pt x="255" y="413" on="0"/>
        <pt x="255" y="454" on="0"/>
        <pt x="276" y="472" on="1"/>
        <pt x="261" y="511" on="0"/>
        <pt x="237" y="511" on="1"/>
        <pt x="215" y="511" on="0"/>
        <pt x="197" y="462" on="1"/>
        <pt x="181" y="419" on="0"/>
        <pt x="186" y="390" on="0"/>
        <pt x="194" y="382" on="1"/>
        <pt x="206" y="367" on="0"/>
        <pt x="206" y="338" on="1"/>
        <pt x="228" y="381" on="0"/>
      </contour>
      <contour>
        <pt x="210" y="228" on="1"/>
        <pt x="220" y="180" on="0"/>
        <pt x="245" y="180" on="1"/>
        <pt x="276" y="180" on="0"/>
        <pt x="288" y="300" on="1"/>
        <pt x="292" y="333" on="0"/>
        <pt x="292" y="354" on="1"/>
        <pt x="292" y="381" on="1"/>
        <pt x="292" y="387" on="0"/>
        <pt x="291" y="393" on="1"/>
        <pt x="287" y="388" on="0"/>
        <pt x="280" y="380" on="0"/>
        <pt x="270" y="362" on="0"/>
        <pt x="261" y="320" on="0"/>
        <pt x="241" y="284" on="0"/>
        <pt x="218" y="254" on="0"/>
      </contour>
    </TTGlyph>
    <TTGlyph name="Otilde" xMin="18" yMin="-6" xMax="446" yMax="924">
      <component glyphName="O" x="0" y="0" flags="0x1204"/>
      <component glyphName="tilde" x="0" y="174" flags="0x1004"/>
    </TTGlyph>
    <TTGlyph name="P" xMin="21" yMin="-19" xMax="449" yMax="739">
      <contour>
        <pt x="28" y="523" on="1"/>
        <pt x="23" y="606" on="1"/>
        <pt x="23" y="627" on="0"/>
        <pt x="22" y="651" on="1"/>
        <pt x="18" y="711" on="0"/>
        <pt x="30" y="718" on="1"/>
        <pt x="41" y="724" on="0"/>
        <pt x="50" y="738" on="0"/>
        <pt x="61" y="738" on="0"/>
        <pt x="84" y="739" on="0"/>
        <pt x="97" y="738" on="1"/>
        <pt x="128" y="736" on="0"/>
        <pt x="149" y="722" on="0"/>
        <pt x="175" y="718" on="0"/>
        <pt x="202" y="717" on="0"/>
        <pt x="226" y="718" on="0"/>
        <pt x="245" y="718" on="0"/>
        <pt x="248" y="716" on="1"/>
        <pt x="260" y="711" on="0"/>
        <pt x="277" y="713" on="0"/>
        <pt x="293" y="696" on="0"/>
        <pt x="299" y="687" on="0"/>
        <pt x="332" y="683" on="0"/>
        <pt x="354" y="680" on="0"/>
        <pt x="376" y="664" on="0"/>
        <pt x="390" y="660" on="0"/>
        <pt x="407" y="638" on="0"/>
        <pt x="413" y="628" on="0"/>
        <pt x="414" y="616" on="1"/>
        <pt x="415" y="588" on="0"/>
        <pt x="441" y="562" on="0"/>
        <pt x="444" y="538" on="0"/>
        <pt x="446" y="506" on="0"/>
        <pt x="451" y="459" on="0"/>
        <pt x="426" y="402" on="0"/>
        <pt x="401" y="380" on="0"/>
        <pt x="385" y="349" on="0"/>
        <pt x="378" y="310" on="0"/>
        <pt x="360" y="290" on="1"/>
        <pt x="349" y="276" on="0"/>
        <pt x="336" y="270" on="0"/>
        <pt x="324" y="263" on="0"/>
        <pt x="308" y="252" on="0"/>
        <pt x="298" y="248" on="1"/>
        <pt x="273" y="236" on="0"/>
        <pt x="255" y="243" on="1"/>
        <pt x="244" y="238" on="0"/>
        <pt x="223" y="235" on="0"/>
        <pt x="212" y="232" on="1"/>
        <pt x="189" y="224" on="0"/>
        <pt x="184" y="186" on="0"/>
        <pt x="197" y="146" on="0"/>
        <pt x="198" y="132" on="1"/>
        <pt x="203" y="87" on="0"/>
        <pt x="176" y="54" on="1"/>
        <pt x="159" y="34" on="0"/>
        <pt x="149" y="-11" on="0"/>
        <pt x="136" y="-19" on="1"/>
        <pt x="114" y="-39" on="0"/>
        <pt x="94" y="-10" on="1"/>
        <pt x="91" y="-7" on="0"/>
        <pt x="81" y="-2" on="1"/>
        <pt x="67" y="6" on="0"/>
        <pt x="60" y="41" on="0"/>
        <pt x="60" y="77" on="0"/>
        <pt x="54" y="109" on="0"/>
        <pt x="50" y="127" on="1"/>
        <pt x="41" y="176" on="0"/>
        <pt x="41" y="212" on="0"/>
        <pt x="40" y="250" on="0"/>
        <pt x="51" y="280" on="0"/>
        <pt x="49" y="290" on="0"/>
        <pt x="55" y="303" on="0"/>
        <pt x="63" y="322" on="0"/>
        <pt x="65" y="332" on="1"/>
        <pt x="69" y="353" on="0"/>
        <pt x="53" y="368" on="1"/>
        <pt x="35" y="385" on="0"/>
        <pt x="35" y="404" on="1"/>
        <pt x="35" y="410" on="1"/>
        <pt x="38" y="444" on="0"/>
        <pt x="36" y="456" on="1"/>
        <pt x="28" y="490" on="0"/>
      </contour>
      <contour>
        <pt x="190" y="473" on="0"/>
        <pt x="193" y="458" on="0"/>
        <pt x="196" y="430" on="0"/>
        <pt x="193" y="399" on="0"/>
        <pt x="192" y="386" on="1"/>
        <pt x="190" y="353" on="0"/>
        <pt x="200" y="349" on="1"/>
        <pt x="211" y="344" on="0"/>
        <pt x="236" y="376" on="1"/>
        <pt x="263" y="409" on="0"/>
        <pt x="281" y="456" on="1"/>
        <pt x="290" y="481" on="0"/>
        <pt x="282" y="493" on="1"/>
        <pt x="265" y="513" on="0"/>
        <pt x="268" y="529" on="1"/>
        <pt x="269" y="530" on="0"/>
        <pt x="268" y="534" on="1"/>
        <pt x="266" y="536" on="0"/>
        <pt x="260" y="543" on="0"/>
        <pt x="254" y="546" on="1"/>
        <pt x="231" y="555" on="0"/>
        <pt x="194" y="538" on="0"/>
        <pt x="183" y="506" on="0"/>
        <pt x="184" y="489" on="0"/>
        <pt x="186" y="482" on="0"/>
      </contour>
    </TTGlyph>
    <TTGlyph name="Q" xMin="23" yMin="-32" xMax="463" yMax="758">
      <contour>
        <pt x="426" y="240" on="1"/>
        <pt x="402" y="176" on="0"/>
        <pt x="399" y="148" on="0"/>
        <pt x="398" y="145" on="1"/>
        <pt x="406" y="113" on="0"/>
        <pt x="437" y="84" on="0"/>
        <pt x="450" y="68" on="0"/>
        <pt x="451" y="39" on="0"/>
        <pt x="435" y="19" on="0"/>
        <pt x="424" y="4" on="1"/>
        <pt x="395" y="-35" on="0"/>
        <pt x="379" y="-32" on="1"/>
        <pt x="368" y="-29" on="0"/>
        <pt x="335" y="9" on="0"/>
        <pt x="319" y="26" on="0"/>
        <pt x="307" y="27" on="0"/>
        <pt x="295" y="16" on="0"/>
        <pt x="286" y="8" on="1"/>
        <pt x="256" y="-19" on="0"/>
        <pt x="208" y="-11" on="1"/>
        <pt x="187" y="-8" on="0"/>
        <pt x="170" y="6" on="0"/>
        <pt x="151" y="14" on="0"/>
        <pt x="132" y="20" on="0"/>
        <pt x="122" y="34" on="1"/>
        <pt x="110" y="54" on="0"/>
        <pt x="79" y="164" on="0"/>
        <pt x="74" y="189" on="0"/>
        <pt x="71" y="198" on="1"/>
        <pt x="55" y="207" on="0"/>
        <pt x="50" y="223" on="1"/>
        <pt x="38" y="257" on="0"/>
        <pt x="43" y="307" on="0"/>
        <pt x="36" y="327" on="0"/>
        <pt x="26" y="340" on="1"/>
        <pt x="3" y="374" on="0"/>
        <pt x="23" y="413" on="1"/>
        <pt x="38" y="446" on="0"/>
        <pt x="38" y="486" on="1"/>
        <pt x="37" y="541" on="0"/>
        <pt x="57" y="614" on="1"/>
        <pt x="69" y="656" on="0"/>
        <pt x="107" y="714" on="0"/>
        <pt x="135" y="726" on="0"/>
        <pt x="149" y="729" on="0"/>
        <pt x="168" y="732" on="0"/>
        <pt x="189" y="736" on="0"/>
        <pt x="209" y="739" on="0"/>
        <pt x="225" y="744" on="0"/>
        <pt x="248" y="758" on="0"/>
        <pt x="280" y="757" on="0"/>
        <pt x="290" y="748" on="1"/>
        <pt x="302" y="739" on="0"/>
        <pt x="336" y="731" on="0"/>
        <pt x="343" y="731" on="1"/>
        <pt x="381" y="713" on="0"/>
        <pt x="390" y="695" on="1"/>
        <pt x="396" y="681" on="0"/>
        <pt x="423" y="656" on="0"/>
        <pt x="428" y="646" on="1"/>
        <pt x="445" y="611" on="0"/>
        <pt x="453" y="564" on="1"/>
        <pt x="454" y="549" on="0"/>
        <pt x="456" y="531" on="0"/>
        <pt x="457" y="516" on="0"/>
        <pt x="458" y="499" on="0"/>
        <pt x="460" y="480" on="1"/>
        <pt x="465" y="406" on="0"/>
        <pt x="460" y="370" on="0"/>
        <pt x="446" y="341" on="0"/>
        <pt x="436" y="310" on="0"/>
        <pt x="437" y="270" on="0"/>
      </contour>
      <contour>
        <pt x="236" y="234" on="1"/>
        <pt x="234" y="276" on="1"/>
        <pt x="234" y="284" on="0"/>
        <pt x="250" y="301" on="0"/>
        <pt x="256" y="308" on="1"/>
        <pt x="265" y="316" on="0"/>
        <pt x="285" y="309" on="1"/>
        <pt x="310" y="354" on="0"/>
        <pt x="295" y="380" on="1"/>
        <pt x="287" y="395" on="0"/>
        <pt x="295" y="429" on="0"/>
        <pt x="298" y="463" on="0"/>
        <pt x="294" y="475" on="0"/>
        <pt x="289" y="484" on="0"/>
        <pt x="282" y="491" on="0"/>
        <pt x="275" y="511" on="0"/>
        <pt x="243" y="523" on="0"/>
        <pt x="221" y="506" on="0"/>
        <pt x="210" y="483" on="0"/>
        <pt x="203" y="459" on="0"/>
        <pt x="198" y="436" on="0"/>
        <pt x="194" y="423" on="0"/>
        <pt x="189" y="392" on="0"/>
        <pt x="188" y="374" on="1"/>
        <pt x="184" y="328" on="0"/>
        <pt x="200" y="294" on="0"/>
        <pt x="197" y="268" on="0"/>
        <pt x="207" y="245" on="0"/>
        <pt x="210" y="228" on="0"/>
        <pt x="212" y="220" on="1"/>
        <pt x="215" y="201" on="0"/>
        <pt x="236" y="201" on="0"/>
      </contour>
    </TTGlyph>
    <TTGlyph name="R" xMin="26" yMin="-9" xMax="448" yMax="754">
      <contour>
        <pt x="196" y="180" on="1"/>
        <pt x="199" y="132" on="1"/>
        <pt x="201" y="93" on="0"/>
        <pt x="179" y="81" on="1"/>
        <pt x="173" y="41" on="0"/>
        <pt x="173" y="10" on="1"/>
        <pt x="166" y="-4" on="0"/>
        <pt x="150" y="-7" on="1"/>
        <pt x="120" y="-11" on="0"/>
        <pt x="111" y="9" on="1"/>
        <pt x="98" y="34" on="0"/>
        <pt x="90" y="36" on="1"/>
        <pt x="88" y="37" on="0"/>
        <pt x="79" y="38" on="0"/>
        <pt x="67" y="43" on="0"/>
        <pt x="70" y="69" on="0"/>
        <pt x="66" y="85" on="0"/>
        <pt x="63" y="94" on="1"/>
        <pt x="55" y="120" on="0"/>
        <pt x="55" y="144" on="1"/>
        <pt x="55" y="161" on="0"/>
        <pt x="56" y="189" on="0"/>
        <pt x="56" y="203" on="1"/>
        <pt x="54" y="248" on="0"/>
        <pt x="35" y="312" on="0"/>
        <pt x="32" y="322" on="1"/>
        <pt x="26" y="344" on="0"/>
        <pt x="26" y="364" on="1"/>
        <pt x="26" y="376" on="0"/>
        <pt x="32" y="387" on="0"/>
        <pt x="35" y="393" on="1"/>
        <pt x="43" y="408" on="0"/>
        <pt x="40" y="448" on="0"/>
        <pt x="37" y="489" on="0"/>
        <pt x="34" y="540" on="0"/>
        <pt x="31" y="598" on="0"/>
        <pt x="31" y="625" on="1"/>
        <pt x="31" y="713" on="0"/>
        <pt x="53" y="724" on="1"/>
        <pt x="57" y="726" on="0"/>
        <pt x="68" y="731" on="0"/>
        <pt x="84" y="741" on="0"/>
        <pt x="97" y="751" on="0"/>
        <pt x="104" y="754" on="1"/>
        <pt x="117" y="760" on="0"/>
        <pt x="154" y="745" on="0"/>
        <pt x="170" y="740" on="0"/>
        <pt x="186" y="737" on="0"/>
        <pt x="207" y="738" on="0"/>
        <pt x="246" y="739" on="0"/>
        <pt x="291" y="737" on="0"/>
        <pt x="312" y="732" on="1"/>
        <pt x="380" y="718" on="0"/>
        <pt x="417" y="657" on="1"/>
        <pt x="433" y="630" on="0"/>
        <pt x="435" y="588" on="0"/>
        <pt x="438" y="549" on="0"/>
        <pt x="450" y="500" on="0"/>
        <pt x="446" y="456" on="0"/>
        <pt x="441" y="439" on="0"/>
        <pt x="438" y="432" on="1"/>
        <pt x="433" y="417" on="0"/>
        <pt x="434" y="401" on="1"/>
        <pt x="436" y="375" on="0"/>
        <pt x="424" y="346" on="0"/>
        <pt x="418" y="331" on="1"/>
        <pt x="401" y="294" on="0"/>
        <pt x="381" y="289" on="1"/>
        <pt x="370" y="287" on="0"/>
        <pt x="356" y="283" on="0"/>
        <pt x="355" y="276" on="1"/>
        <pt x="353" y="271" on="0"/>
        <pt x="369" y="258" on="0"/>
        <pt x="386" y="232" on="0"/>
        <pt x="398" y="224" on="0"/>
        <pt x="403" y="223" on="1"/>
        <pt x="418" y="220" on="0"/>
        <pt x="422" y="216" on="1"/>
        <pt x="431" y="205" on="0"/>
        <pt x="440" y="191" on="0"/>
        <pt x="438" y="177" on="1"/>
        <pt x="436" y="163" on="0"/>
        <pt x="440" y="133" on="0"/>
        <pt x="444" y="100" on="0"/>
        <pt x="441" y="78" on="0"/>
        <pt x="441" y="73" on="1"/>
        <pt x="445" y="47" on="1"/>
        <pt x="445" y="23" on="0"/>
        <pt x="417" y="-7" on="0"/>
        <pt x="401" y="-11" on="0"/>
        <pt x="387" y="-5" on="0"/>
        <pt x="377" y="4" on="0"/>
        <pt x="371" y="7" on="0"/>
        <pt x="362" y="8" on="0"/>
        <pt x="357" y="10" on="1"/>
        <pt x="339" y="15" on="0"/>
        <pt x="326" y="80" on="1"/>
        <pt x="319" y="112" on="0"/>
        <pt x="302" y="121" on="1"/>
        <pt x="276" y="134" on="0"/>
        <pt x="274" y="157" on="1"/>
        <pt x="273" y="168" on="0"/>
        <pt x="272" y="187" on="1"/>
        <pt x="268" y="225" on="0"/>
        <pt x="246" y="234" on="1"/>
        <pt x="235" y="238" on="0"/>
        <pt x="217" y="238" on="0"/>
        <pt x="208" y="228" on="1"/>
        <pt x="196" y="213" on="0"/>
      </contour>
      <contour>
        <pt x="259" y="382" on="0"/>
        <pt x="284" y="401" on="0"/>
        <pt x="301" y="432" on="0"/>
        <pt x="306" y="448" on="1"/>
        <pt x="314" y="478" on="0"/>
        <pt x="309" y="529" on="0"/>
        <pt x="302" y="546" on="0"/>
        <pt x="269" y="546" on="0"/>
        <pt x="236" y="562" on="0"/>
        <pt x="234" y="573" on="1"/>
        <pt x="232" y="597" on="0"/>
        <pt x="219" y="590" on="1"/>
        <pt x="212" y="586" on="0"/>
        <pt x="206" y="579" on="0"/>
        <pt x="204" y="562" on="1"/>
        <pt x="201" y="527" on="0"/>
        <pt x="208" y="487" on="0"/>
        <pt x="210" y="474" on="0"/>
        <pt x="211" y="459" on="0"/>
        <pt x="212" y="440" on="0"/>
        <pt x="215" y="399" on="0"/>
        <pt x="213" y="371" on="0"/>
        <pt x="217" y="356" on="1"/>
        <pt x="233" y="358" on="0"/>
      </contour>
    </TTGlyph>
    <TTGlyph name="S" xMin="11" yMin="-12" xMax="416" yMax="756">
      <contour>
        <pt x="49" y="684" on="1"/>
        <pt x="73" y="713" on="0"/>
        <pt x="107" y="720" on="1"/>
        <pt x="122" y="724" on="0"/>
        <pt x="152" y="730" on="0"/>
        <pt x="168" y="739" on="1"/>
        <pt x="198" y="756" on="0"/>
        <pt x="221" y="756" on="0"/>
        <pt x="234" y="752" on="0"/>
        <pt x="251" y="750" on="0"/>
        <pt x="270" y="750" on="0"/>
        <pt x="282" y="748" on="1"/>
        <pt x="320" y="743" on="0"/>
        <pt x="362" y="698" on="1"/>
        <pt x="389" y="669" on="0"/>
        <pt x="402" y="607" on="0"/>
        <pt x="401" y="577" on="1"/>
        <pt x="400" y="534" on="0"/>
        <pt x="414" y="492" on="0"/>
        <pt x="418" y="470" on="0"/>
        <pt x="409" y="431" on="0"/>
        <pt x="389" y="415" on="0"/>
        <pt x="365" y="411" on="0"/>
        <pt x="343" y="413" on="0"/>
        <pt x="336" y="413" on="1"/>
        <pt x="329" y="413" on="0"/>
        <pt x="324" y="406" on="0"/>
        <pt x="321" y="402" on="1"/>
        <pt x="314" y="395" on="0"/>
        <pt x="274" y="407" on="0"/>
        <pt x="248" y="446" on="0"/>
        <pt x="258" y="477" on="1"/>
        <pt x="261" y="487" on="0"/>
        <pt x="267" y="504" on="0"/>
        <pt x="265" y="510" on="1"/>
        <pt x="261" y="524" on="0"/>
        <pt x="231" y="526" on="0"/>
        <pt x="220" y="517" on="1"/>
        <pt x="205" y="503" on="0"/>
        <pt x="196" y="462" on="0"/>
        <pt x="199" y="444" on="0"/>
        <pt x="199" y="424" on="0"/>
        <pt x="200" y="413" on="1"/>
        <pt x="204" y="387" on="0"/>
        <pt x="221" y="369" on="0"/>
        <pt x="233" y="367" on="0"/>
        <pt x="244" y="368" on="0"/>
        <pt x="256" y="368" on="0"/>
        <pt x="278" y="358" on="0"/>
        <pt x="301" y="348" on="0"/>
        <pt x="319" y="326" on="0"/>
        <pt x="332" y="320" on="0"/>
        <pt x="342" y="315" on="0"/>
        <pt x="351" y="311" on="0"/>
        <pt x="354" y="303" on="1"/>
        <pt x="367" y="268" on="0"/>
        <pt x="360" y="222" on="1"/>
        <pt x="358" y="205" on="0"/>
        <pt x="355" y="185" on="0"/>
        <pt x="353" y="170" on="0"/>
        <pt x="351" y="159" on="0"/>
        <pt x="351" y="148" on="1"/>
        <pt x="351" y="107" on="0"/>
        <pt x="324" y="63" on="0"/>
        <pt x="296" y="47" on="0"/>
        <pt x="288" y="39" on="0"/>
        <pt x="283" y="27" on="0"/>
        <pt x="278" y="20" on="1"/>
        <pt x="266" y="3" on="0"/>
        <pt x="243" y="-4" on="1"/>
        <pt x="217" y="-12" on="0"/>
        <pt x="158" y="-11" on="0"/>
        <pt x="126" y="-5" on="0"/>
        <pt x="99" y="19" on="0"/>
        <pt x="82" y="48" on="0"/>
        <pt x="72" y="51" on="0"/>
        <pt x="66" y="51" on="1"/>
        <pt x="54" y="51" on="1"/>
        <pt x="38" y="51" on="0"/>
        <pt x="27" y="70" on="0"/>
        <pt x="30" y="87" on="0"/>
        <pt x="29" y="103" on="1"/>
        <pt x="29" y="119" on="0"/>
        <pt x="30" y="147" on="0"/>
        <pt x="41" y="157" on="1"/>
        <pt x="65" y="176" on="0"/>
        <pt x="101" y="178" on="0"/>
        <pt x="113" y="190" on="0"/>
        <pt x="120" y="200" on="0"/>
        <pt x="133" y="202" on="0"/>
        <pt x="140" y="200" on="1"/>
        <pt x="157" y="195" on="0"/>
        <pt x="157" y="165" on="0"/>
        <pt x="158" y="140" on="0"/>
        <pt x="161" y="130" on="1"/>
        <pt x="168" y="104" on="0"/>
        <pt x="187" y="106" on="1"/>
        <pt x="208" y="108" on="0"/>
        <pt x="210" y="148" on="1"/>
        <pt x="210" y="159" on="0"/>
        <pt x="210" y="169" on="1"/>
        <pt x="210" y="191" on="1"/>
        <pt x="210" y="238" on="0"/>
        <pt x="165" y="263" on="1"/>
        <pt x="147" y="273" on="0"/>
        <pt x="113" y="291" on="0"/>
        <pt x="98" y="304" on="1"/>
        <pt x="64" y="334" on="0"/>
        <pt x="46" y="412" on="0"/>
        <pt x="38" y="435" on="0"/>
        <pt x="31" y="443" on="0"/>
        <pt x="23" y="447" on="0"/>
        <pt x="16" y="457" on="1"/>
        <pt x="5" y="472" on="0"/>
        <pt x="17" y="512" on="0"/>
        <pt x="25" y="539" on="0"/>
        <pt x="25" y="555" on="1"/>
        <pt x="25" y="571" on="0"/>
        <pt x="22" y="602" on="0"/>
        <pt x="22" y="618" on="1"/>
        <pt x="24" y="654" on="0"/>
      </contour>
    </TTGlyph>
    <TTGlyph name="Scaron" xMin="11" yMin="-12" xMax="416" yMax="937">
      <component glyphName="S" x="0" y="0" flags="0x1204"/>
      <component glyphName="caron" x="-19" y="174" flags="0x1004"/>
    </TTGlyph>
    <TTGlyph name="T" xMin="1" yMin="-22" xMax="411" yMax="753">
      <contour>
        <pt x="409" y="661" on="1"/>
        <pt x="414" y="616" on="0"/>
        <pt x="411" y="585" on="1"/>
        <pt x="411" y="585" on="0"/>
        <pt x="405" y="536" on="1"/>
        <pt x="403" y="519" on="0"/>
        <pt x="406" y="465" on="0"/>
        <pt x="392" y="442" on="0"/>
        <pt x="359" y="436" on="0"/>
        <pt x="340" y="445" on="0"/>
        <pt x="332" y="450" on="1"/>
        <pt x="312" y="461" on="0"/>
        <pt x="287" y="445" on="0"/>
        <pt x="277" y="413" on="0"/>
        <pt x="276" y="392" on="1"/>
        <pt x="273" y="361" on="0"/>
        <pt x="276" y="311" on="1"/>
        <pt x="277" y="293" on="0"/>
        <pt x="276" y="272" on="0"/>
        <pt x="276" y="264" on="1"/>
        <pt x="276" y="245" on="0"/>
        <pt x="288" y="209" on="0"/>
        <pt x="288" y="191" on="0"/>
        <pt x="283" y="180" on="0"/>
        <pt x="273" y="173" on="0"/>
        <pt x="265" y="166" on="0"/>
        <pt x="256" y="159" on="0"/>
        <pt x="251" y="155" on="1"/>
        <pt x="256" y="106" on="0"/>
        <pt x="250" y="49" on="0"/>
        <pt x="248" y="9" on="0"/>
        <pt x="239" y="-2" on="1"/>
        <pt x="227" y="-16" on="0"/>
        <pt x="191" y="-22" on="1"/>
        <pt x="170" y="-23" on="0"/>
        <pt x="150" y="22" on="0"/>
        <pt x="153" y="86" on="0"/>
        <pt x="147" y="121" on="0"/>
        <pt x="138" y="145" on="0"/>
        <pt x="130" y="164" on="0"/>
        <pt x="124" y="198" on="0"/>
        <pt x="131" y="218" on="1"/>
        <pt x="117" y="234" on="0"/>
        <pt x="107" y="270" on="0"/>
        <pt x="120" y="329" on="0"/>
        <pt x="125" y="377" on="0"/>
        <pt x="124" y="397" on="1"/>
        <pt x="122" y="443" on="0"/>
        <pt x="103" y="450" on="1"/>
        <pt x="89" y="454" on="0"/>
        <pt x="56" y="432" on="0"/>
        <pt x="38" y="426" on="0"/>
        <pt x="21" y="440" on="0"/>
        <pt x="22" y="460" on="0"/>
        <pt x="28" y="483" on="0"/>
        <pt x="33" y="505" on="0"/>
        <pt x="29" y="515" on="1"/>
        <pt x="25" y="525" on="0"/>
        <pt x="13" y="531" on="0"/>
        <pt x="8" y="538" on="1"/>
        <pt x="-5" y="554" on="0"/>
        <pt x="7" y="635" on="0"/>
        <pt x="13" y="687" on="0"/>
        <pt x="16" y="712" on="0"/>
        <pt x="26" y="732" on="0"/>
        <pt x="36" y="740" on="1"/>
        <pt x="61" y="758" on="0"/>
        <pt x="101" y="753" on="1"/>
        <pt x="285" y="728" on="0"/>
        <pt x="310" y="736" on="1"/>
        <pt x="320" y="739" on="0"/>
        <pt x="328" y="742" on="1"/>
        <pt x="397" y="770" on="0"/>
      </contour>
    </TTGlyph>
    <TTGlyph name="Thorn" xMin="15" yMin="-20" xMax="444" yMax="743">
      <contour>
        <pt x="183" y="86" on="1"/>
        <pt x="188" y="76" on="0"/>
        <pt x="188" y="58" on="1"/>
        <pt x="188" y="25" on="0"/>
        <pt x="175" y="12" on="1"/>
        <pt x="154" y="-9" on="0"/>
        <pt x="120" y="-20" on="1"/>
        <pt x="105" y="-25" on="0"/>
        <pt x="74" y="-10" on="0"/>
        <pt x="37" y="-7" on="0"/>
        <pt x="26" y="11" on="0"/>
        <pt x="26" y="22" on="1"/>
        <pt x="26" y="45" on="0"/>
        <pt x="51" y="83" on="0"/>
        <pt x="55" y="106" on="1"/>
        <pt x="66" y="166" on="0"/>
        <pt x="50" y="252" on="0"/>
        <pt x="44" y="291" on="0"/>
        <pt x="39" y="326" on="0"/>
        <pt x="52" y="333" on="0"/>
        <pt x="54" y="345" on="0"/>
        <pt x="53" y="359" on="0"/>
        <pt x="49" y="373" on="0"/>
        <pt x="47" y="382" on="0"/>
        <pt x="42" y="411" on="0"/>
        <pt x="40" y="430" on="1"/>
        <pt x="36" y="487" on="0"/>
        <pt x="42" y="555" on="0"/>
        <pt x="30" y="622" on="0"/>
        <pt x="17" y="679" on="0"/>
        <pt x="14" y="723" on="0"/>
        <pt x="34" y="744" on="0"/>
        <pt x="56" y="742" on="0"/>
        <pt x="82" y="736" on="0"/>
        <pt x="107" y="731" on="0"/>
        <pt x="116" y="737" on="1"/>
        <pt x="154" y="760" on="0"/>
        <pt x="163" y="738" on="1"/>
        <pt x="166" y="732" on="0"/>
        <pt x="174" y="726" on="0"/>
        <pt x="177" y="722" on="1"/>
        <pt x="184" y="714" on="0"/>
        <pt x="179" y="683" on="0"/>
        <pt x="179" y="666" on="0"/>
        <pt x="180" y="660" on="1"/>
        <pt x="184" y="632" on="0"/>
        <pt x="180" y="610" on="1"/>
        <pt x="186" y="610" on="0"/>
        <pt x="198" y="608" on="0"/>
        <pt x="212" y="612" on="0"/>
        <pt x="232" y="606" on="0"/>
        <pt x="240" y="607" on="1"/>
        <pt x="248" y="608" on="0"/>
        <pt x="262" y="604" on="0"/>
        <pt x="270" y="604" on="1"/>
        <pt x="288" y="604" on="1"/>
        <pt x="297" y="604" on="0"/>
        <pt x="307" y="598" on="0"/>
        <pt x="319" y="595" on="0"/>
        <pt x="326" y="593" on="1"/>
        <pt x="344" y="588" on="0"/>
        <pt x="347" y="578" on="1"/>
        <pt x="351" y="563" on="0"/>
        <pt x="367" y="551" on="0"/>
        <pt x="375" y="545" on="0"/>
        <pt x="378" y="541" on="1"/>
        <pt x="383" y="531" on="0"/>
        <pt x="408" y="516" on="0"/>
        <pt x="413" y="507" on="1"/>
        <pt x="418" y="498" on="0"/>
        <pt x="435" y="479" on="0"/>
        <pt x="435" y="456" on="0"/>
        <pt x="441" y="442" on="0"/>
        <pt x="444" y="433" on="1"/>
        <pt x="452" y="402" on="0"/>
        <pt x="429" y="344" on="1"/>
        <pt x="422" y="327" on="0"/>
        <pt x="425" y="291" on="0"/>
        <pt x="411" y="267" on="0"/>
        <pt x="405" y="252" on="0"/>
        <pt x="397" y="246" on="0"/>
        <pt x="394" y="242" on="1"/>
        <pt x="385" y="230" on="0"/>
        <pt x="386" y="209" on="1"/>
        <pt x="388" y="167" on="0"/>
        <pt x="354" y="144" on="1"/>
        <pt x="332" y="129" on="0"/>
        <pt x="287" y="134" on="0"/>
        <pt x="255" y="139" on="0"/>
        <pt x="238" y="136" on="1"/>
        <pt x="210" y="133" on="0"/>
        <pt x="189" y="122" on="1"/>
        <pt x="191" y="94" on="0"/>
      </contour>
      <contour>
        <pt x="188" y="437" on="0"/>
        <pt x="188" y="422" on="0"/>
        <pt x="195" y="409" on="0"/>
        <pt x="192" y="399" on="1"/>
        <pt x="186" y="380" on="0"/>
        <pt x="189" y="352" on="0"/>
        <pt x="189" y="317" on="0"/>
        <pt x="179" y="276" on="0"/>
        <pt x="186" y="256" on="1"/>
        <pt x="188" y="249" on="0"/>
        <pt x="201" y="251" on="1"/>
        <pt x="226" y="256" on="0"/>
        <pt x="235" y="281" on="0"/>
        <pt x="256" y="292" on="0"/>
        <pt x="261" y="315" on="0"/>
        <pt x="275" y="336" on="0"/>
        <pt x="275" y="365" on="0"/>
        <pt x="286" y="388" on="0"/>
        <pt x="276" y="406" on="0"/>
        <pt x="271" y="410" on="0"/>
        <pt x="263" y="412" on="0"/>
        <pt x="256" y="414" on="1"/>
        <pt x="235" y="418" on="0"/>
        <pt x="217" y="435" on="0"/>
        <pt x="212" y="440" on="1"/>
        <pt x="201" y="449" on="0"/>
      </contour>
    </TTGlyph>
    <TTGlyph name="U" xMin="27" yMin="-16" xMax="470" yMax="741">
      <contour>
        <pt x="230" y="632" on="1"/>
        <pt x="226" y="524" on="1"/>
        <pt x="226" y="506" on="0"/>
        <pt x="229" y="483" on="0"/>
        <pt x="230" y="475" on="1"/>
        <pt x="234" y="446" on="0"/>
        <pt x="214" y="359" on="0"/>
        <pt x="220" y="324" on="1"/>
        <pt x="221" y="316" on="0"/>
        <pt x="225" y="310" on="0"/>
        <pt x="226" y="307" on="1"/>
        <pt x="231" y="298" on="0"/>
        <pt x="232" y="270" on="0"/>
        <pt x="252" y="238" on="0"/>
        <pt x="281" y="241" on="0"/>
        <pt x="300" y="297" on="0"/>
        <pt x="291" y="393" on="0"/>
        <pt x="288" y="443" on="0"/>
        <pt x="288" y="463" on="1"/>
        <pt x="287" y="498" on="0"/>
        <pt x="291" y="533" on="1"/>
        <pt x="300" y="607" on="0"/>
        <pt x="294" y="657" on="1"/>
        <pt x="292" y="675" on="0"/>
        <pt x="288" y="720" on="0"/>
        <pt x="300" y="731" on="1"/>
        <pt x="312" y="742" on="0"/>
        <pt x="338" y="739" on="0"/>
        <pt x="376" y="735" on="0"/>
        <pt x="400" y="738" on="0"/>
        <pt x="410" y="740" on="1"/>
        <pt x="436" y="743" on="0"/>
        <pt x="452" y="730" on="0"/>
        <pt x="460" y="720" on="0"/>
        <pt x="463" y="708" on="1"/>
        <pt x="469" y="684" on="0"/>
        <pt x="467" y="629" on="1"/>
        <pt x="465" y="538" on="0"/>
        <pt x="473" y="406" on="0"/>
        <pt x="465" y="338" on="0"/>
        <pt x="468" y="280" on="0"/>
        <pt x="454" y="228" on="0"/>
        <pt x="443" y="180" on="0"/>
        <pt x="433" y="154" on="0"/>
        <pt x="428" y="142" on="1"/>
        <pt x="417" y="112" on="0"/>
        <pt x="413" y="85" on="1"/>
        <pt x="406" y="43" on="0"/>
        <pt x="384" y="29" on="1"/>
        <pt x="374" y="21" on="0"/>
        <pt x="350" y="20" on="0"/>
        <pt x="338" y="13" on="0"/>
        <pt x="326" y="2" on="0"/>
        <pt x="319" y="-4" on="1"/>
        <pt x="301" y="-18" on="0"/>
        <pt x="286" y="-14" on="0"/>
        <pt x="276" y="-2" on="0"/>
        <pt x="272" y="5" on="1"/>
        <pt x="261" y="24" on="0"/>
        <pt x="251" y="26" on="0"/>
        <pt x="230" y="20" on="0"/>
        <pt x="216" y="17" on="1"/>
        <pt x="148" y="3" on="0"/>
        <pt x="112" y="50" on="1"/>
        <pt x="83" y="88" on="0"/>
        <pt x="70" y="146" on="1"/>
        <pt x="65" y="171" on="0"/>
        <pt x="54" y="231" on="0"/>
        <pt x="35" y="276" on="0"/>
        <pt x="29" y="306" on="0"/>
        <pt x="34" y="334" on="0"/>
        <pt x="37" y="351" on="1"/>
        <pt x="46" y="400" on="0"/>
        <pt x="37" y="458" on="0"/>
        <pt x="30" y="495" on="0"/>
        <pt x="28" y="513" on="1"/>
        <pt x="23" y="549" on="0"/>
        <pt x="30" y="599" on="1"/>
        <pt x="34" y="626" on="0"/>
        <pt x="37" y="669" on="0"/>
        <pt x="39" y="685" on="1"/>
        <pt x="45" y="735" on="0"/>
        <pt x="80" y="738" on="1"/>
        <pt x="98" y="740" on="0"/>
        <pt x="139" y="736" on="0"/>
        <pt x="147" y="737" on="1"/>
        <pt x="178" y="740" on="1"/>
        <pt x="202" y="740" on="0"/>
        <pt x="211" y="726" on="1"/>
        <pt x="230" y="702" on="0"/>
      </contour>
    </TTGlyph>
    <TTGlyph name="Uacute" xMin="27" yMin="-16" xMax="470" yMax="931">
      <component glyphName="U" x="0" y="0" flags="0x1204"/>
      <component glyphName="acute" x="41" y="164" flags="0x1004"/>
    </TTGlyph>
    <TTGlyph name="Ucircumflex" xMin="27" yMin="-16" xMax="470" yMax="948">
      <component glyphName="U" x="0" y="0" flags="0x1204"/>
      <component glyphName="circumflex" x="20" y="184" flags="0x1004"/>
    </TTGlyph>
    <TTGlyph name="Udieresis" xMin="27" yMin="-16" xMax="470" yMax="917">
      <component glyphName="U" x="0" y="0" flags="0x1204"/>
      <component glyphName="dieresis" x="31" y="164" flags="0x1004"/>
    </TTGlyph>
    <TTGlyph name="Ugrave" xMin="27" yMin="-16" xMax="470" yMax="940">
      <component glyphName="U" x="0" y="0" flags="0x1204"/>
      <component glyphName="grave" x="10" y="174" flags="0x1004"/>
    </TTGlyph>
    <TTGlyph name="V" xMin="0" yMin="-19" xMax="439" yMax="750">
      <contour>
        <pt x="0" y="703" on="1"/>
        <pt x="-4" y="745" on="0"/>
        <pt x="42" y="740" on="1"/>
        <pt x="52" y="739" on="0"/>
        <pt x="75" y="735" on="0"/>
        <pt x="99" y="734" on="0"/>
        <pt x="117" y="740" on="0"/>
        <pt x="126" y="742" on="1"/>
        <pt x="145" y="745" on="0"/>
        <pt x="162" y="733" on="1"/>
        <pt x="173" y="725" on="0"/>
        <pt x="178" y="694" on="0"/>
        <pt x="179" y="653" on="0"/>
        <pt x="180" y="605" on="0"/>
        <pt x="195" y="553" on="0"/>
        <pt x="197" y="526" on="0"/>
        <pt x="196" y="514" on="1"/>
        <pt x="195" y="482" on="0"/>
        <pt x="205" y="439" on="0"/>
        <pt x="207" y="424" on="0"/>
        <pt x="210" y="409" on="0"/>
        <pt x="216" y="400" on="0"/>
        <pt x="222" y="403" on="1"/>
        <pt x="228" y="407" on="0"/>
        <pt x="227" y="416" on="1"/>
        <pt x="225" y="441" on="0"/>
        <pt x="242" y="461" on="1"/>
        <pt x="262" y="482" on="0"/>
        <pt x="243" y="538" on="0"/>
        <pt x="251" y="595" on="0"/>
        <pt x="261" y="639" on="0"/>
        <pt x="259" y="672" on="0"/>
        <pt x="257" y="701" on="0"/>
        <pt x="257" y="723" on="0"/>
        <pt x="275" y="747" on="0"/>
        <pt x="323" y="752" on="0"/>
        <pt x="349" y="741" on="1"/>
        <pt x="354" y="745" on="0"/>
        <pt x="374" y="741" on="0"/>
        <pt x="379" y="734" on="1"/>
        <pt x="392" y="742" on="0"/>
        <pt x="430" y="735" on="0"/>
        <pt x="441" y="717" on="0"/>
        <pt x="437" y="700" on="0"/>
        <pt x="434" y="685" on="1"/>
        <pt x="418" y="619" on="0"/>
        <pt x="418" y="502" on="0"/>
        <pt x="406" y="457" on="0"/>
        <pt x="394" y="425" on="0"/>
        <pt x="387" y="409" on="1"/>
        <pt x="371" y="373" on="0"/>
        <pt x="366" y="348" on="1"/>
        <pt x="363" y="334" on="0"/>
        <pt x="349" y="315" on="0"/>
        <pt x="343" y="304" on="1"/>
        <pt x="327" y="273" on="0"/>
        <pt x="329" y="224" on="1"/>
        <pt x="334" y="131" on="0"/>
        <pt x="317" y="121" on="1"/>
        <pt x="309" y="114" on="0"/>
        <pt x="300" y="118" on="0"/>
        <pt x="292" y="107" on="0"/>
        <pt x="286" y="70" on="0"/>
        <pt x="278" y="48" on="1"/>
        <pt x="258" y="-9" on="0"/>
        <pt x="217" y="-19" on="1"/>
        <pt x="192" y="-25" on="0"/>
        <pt x="171" y="-8" on="0"/>
        <pt x="162" y="21" on="0"/>
        <pt x="156" y="52" on="0"/>
        <pt x="147" y="58" on="1"/>
        <pt x="112" y="93" on="0"/>
        <pt x="120" y="150" on="1"/>
        <pt x="122" y="168" on="0"/>
        <pt x="114" y="183" on="0"/>
        <pt x="111" y="199" on="0"/>
        <pt x="109" y="208" on="1"/>
        <pt x="104" y="230" on="0"/>
        <pt x="92" y="242" on="0"/>
        <pt x="83" y="253" on="0"/>
        <pt x="80" y="263" on="1"/>
        <pt x="71" y="288" on="0"/>
        <pt x="67" y="356" on="0"/>
        <pt x="61" y="391" on="0"/>
        <pt x="57" y="406" on="1"/>
        <pt x="47" y="444" on="0"/>
        <pt x="42" y="500" on="0"/>
        <pt x="31" y="539" on="0"/>
        <pt x="25" y="558" on="1"/>
        <pt x="9" y="610" on="0"/>
        <pt x="4" y="665" on="0"/>
        <pt x="1" y="693" on="0"/>
      </contour>
    </TTGlyph>
    <TTGlyph name="W" xMin="-8" yMin="-18" xMax="606" yMax="741">
      <contour>
        <pt x="589" y="697" on="0"/>
        <pt x="596" y="686" on="0"/>
        <pt x="606" y="675" on="0"/>
        <pt x="606" y="665" on="0"/>
        <pt x="604" y="653" on="0"/>
        <pt x="601" y="642" on="0"/>
        <pt x="606" y="628" on="0"/>
        <pt x="592" y="605" on="0"/>
        <pt x="572" y="557" on="0"/>
        <pt x="563" y="497" on="0"/>
        <pt x="557" y="438" on="0"/>
        <pt x="552" y="383" on="0"/>
        <pt x="537" y="339" on="0"/>
        <pt x="528" y="286" on="0"/>
        <pt x="524" y="258" on="1"/>
        <pt x="514" y="187" on="0"/>
        <pt x="500" y="145" on="0"/>
        <pt x="500" y="131" on="0"/>
        <pt x="498" y="121" on="1"/>
        <pt x="493" y="95" on="0"/>
        <pt x="458" y="50" on="0"/>
        <pt x="450" y="24" on="0"/>
        <pt x="443" y="1" on="0"/>
        <pt x="433" y="-14" on="0"/>
        <pt x="414" y="-12" on="0"/>
        <pt x="407" y="-8" on="0"/>
        <pt x="404" y="-6" on="1"/>
        <pt x="394" y="5" on="0"/>
        <pt x="363" y="3" on="0"/>
        <pt x="356" y="4" on="1"/>
        <pt x="340" y="5" on="0"/>
        <pt x="331" y="29" on="0"/>
        <pt x="324" y="81" on="0"/>
        <pt x="320" y="108" on="1"/>
        <pt x="308" y="175" on="0"/>
        <pt x="292" y="175" on="1"/>
        <pt x="283" y="175" on="0"/>
        <pt x="281" y="147" on="0"/>
        <pt x="280" y="129" on="0"/>
        <pt x="276" y="105" on="0"/>
        <pt x="264" y="57" on="0"/>
        <pt x="256" y="35" on="1"/>
        <pt x="235" y="-18" on="0"/>
        <pt x="206" y="-18" on="1"/>
        <pt x="183" y="-18" on="0"/>
        <pt x="173" y="-1" on="1"/>
        <pt x="169" y="6" on="0"/>
        <pt x="161" y="21" on="0"/>
        <pt x="140" y="32" on="0"/>
        <pt x="126" y="44" on="0"/>
        <pt x="122" y="54" on="1"/>
        <pt x="116" y="67" on="0"/>
        <pt x="109" y="134" on="0"/>
        <pt x="97" y="172" on="0"/>
        <pt x="90" y="190" on="1"/>
        <pt x="74" y="237" on="0"/>
        <pt x="75" y="281" on="0"/>
        <pt x="70" y="313" on="0"/>
        <pt x="62" y="343" on="0"/>
        <pt x="51" y="375" on="0"/>
        <pt x="42" y="412" on="0"/>
        <pt x="31" y="445" on="0"/>
        <pt x="26" y="460" on="1"/>
        <pt x="16" y="495" on="0"/>
        <pt x="35" y="547" on="0"/>
        <pt x="21" y="601" on="0"/>
        <pt x="0" y="654" on="0"/>
        <pt x="-15" y="699" on="0"/>
        <pt x="3" y="728" on="0"/>
        <pt x="36" y="734" on="0"/>
        <pt x="70" y="729" on="0"/>
        <pt x="86" y="725" on="1"/>
        <pt x="111" y="719" on="0"/>
        <pt x="130" y="730" on="0"/>
        <pt x="142" y="735" on="0"/>
        <pt x="158" y="735" on="0"/>
        <pt x="183" y="721" on="0"/>
        <pt x="192" y="703" on="0"/>
        <pt x="195" y="679" on="0"/>
        <pt x="195" y="650" on="0"/>
        <pt x="202" y="622" on="1"/>
        <pt x="224" y="539" on="0"/>
        <pt x="209" y="474" on="1"/>
        <pt x="200" y="436" on="0"/>
        <pt x="212" y="387" on="0"/>
        <pt x="223" y="389" on="1"/>
        <pt x="233" y="391" on="0"/>
        <pt x="239" y="418" on="0"/>
        <pt x="240" y="459" on="0"/>
        <pt x="240" y="506" on="0"/>
        <pt x="248" y="546" on="0"/>
        <pt x="252" y="568" on="0"/>
        <pt x="254" y="574" on="1"/>
        <pt x="259" y="586" on="0"/>
        <pt x="267" y="589" on="1"/>
        <pt x="263" y="698" on="0"/>
        <pt x="300" y="733" on="1"/>
        <pt x="307" y="739" on="0"/>
        <pt x="326" y="739" on="0"/>
        <pt x="344" y="713" on="0"/>
        <pt x="345" y="680" on="1"/>
        <pt x="347" y="627" on="0"/>
        <pt x="363" y="527" on="0"/>
        <pt x="370" y="481" on="0"/>
        <pt x="374" y="462" on="1"/>
        <pt x="387" y="384" on="0"/>
        <pt x="403" y="438" on="1"/>
        <pt x="416" y="484" on="0"/>
        <pt x="416" y="556" on="0"/>
        <pt x="411" y="561" on="1"/>
        <pt x="389" y="581" on="0"/>
        <pt x="411" y="617" on="1"/>
        <pt x="420" y="633" on="0"/>
        <pt x="421" y="657" on="1"/>
        <pt x="425" y="705" on="0"/>
        <pt x="432" y="722" on="0"/>
        <pt x="451" y="737" on="0"/>
        <pt x="462" y="741" on="1"/>
        <pt x="490" y="752" on="0"/>
        <pt x="508" y="731" on="1"/>
        <pt x="518" y="718" on="0"/>
        <pt x="562" y="716" on="0"/>
        <pt x="569" y="708" on="0"/>
      </contour>
    </TTGlyph>
    <TTGlyph name="X" xMin="-19" yMin="-9" xMax="487" yMax="744">
      <contour>
        <pt x="226" y="247" on="1"/>
        <pt x="183" y="168" on="1"/>
        <pt x="183" y="134" on="0"/>
        <pt x="163" y="114" on="1"/>
        <pt x="155" y="106" on="0"/>
        <pt x="142" y="105" on="1"/>
        <pt x="138" y="98" on="0"/>
        <pt x="130" y="74" on="0"/>
        <pt x="125" y="60" on="1"/>
        <pt x="113" y="27" on="0"/>
        <pt x="96" y="8" on="1"/>
        <pt x="60" y="-32" on="0"/>
        <pt x="41" y="-6" on="1"/>
        <pt x="35" y="2" on="0"/>
        <pt x="31" y="15" on="1"/>
        <pt x="24" y="38" on="0"/>
        <pt x="17" y="41" on="1"/>
        <pt x="9" y="46" on="0"/>
        <pt x="14" y="81" on="0"/>
        <pt x="36" y="118" on="0"/>
        <pt x="50" y="168" on="0"/>
        <pt x="65" y="189" on="0"/>
        <pt x="69" y="202" on="0"/>
        <pt x="70" y="209" on="1"/>
        <pt x="74" y="226" on="0"/>
        <pt x="84" y="241" on="1"/>
        <pt x="95" y="257" on="0"/>
        <pt x="100" y="281" on="1"/>
        <pt x="111" y="330" on="0"/>
        <pt x="120" y="347" on="1"/>
        <pt x="136" y="378" on="0"/>
        <pt x="143" y="389" on="1"/>
        <pt x="135" y="401" on="0"/>
        <pt x="123" y="418" on="0"/>
        <pt x="118" y="426" on="1"/>
        <pt x="111" y="439" on="0"/>
        <pt x="102" y="479" on="0"/>
        <pt x="90" y="503" on="0"/>
        <pt x="82" y="514" on="1"/>
        <pt x="55" y="556" on="0"/>
        <pt x="31" y="620" on="1"/>
        <pt x="24" y="639" on="0"/>
        <pt x="6" y="654" on="1"/>
        <pt x="-40" y="692" on="0"/>
        <pt x="-19" y="722" on="1"/>
        <pt x="-8" y="739" on="0"/>
        <pt x="24" y="739" on="0"/>
        <pt x="52" y="728" on="0"/>
        <pt x="61" y="729" on="0"/>
        <pt x="65" y="730" on="1"/>
        <pt x="76" y="735" on="0"/>
        <pt x="106" y="730" on="0"/>
        <pt x="125" y="734" on="0"/>
        <pt x="133" y="737" on="1"/>
        <pt x="153" y="745" on="0"/>
        <pt x="183" y="731" on="0"/>
        <pt x="185" y="701" on="0"/>
        <pt x="184" y="656" on="0"/>
        <pt x="191" y="636" on="0"/>
        <pt x="197" y="626" on="1"/>
        <pt x="216" y="592" on="0"/>
        <pt x="225" y="561" on="0"/>
        <pt x="229" y="555" on="1"/>
        <pt x="246" y="587" on="0"/>
        <pt x="275" y="638" on="0"/>
        <pt x="281" y="668" on="0"/>
        <pt x="283" y="694" on="0"/>
        <pt x="285" y="706" on="1"/>
        <pt x="289" y="733" on="0"/>
        <pt x="307" y="743" on="1"/>
        <pt x="342" y="764" on="0"/>
        <pt x="387" y="731" on="1"/>
        <pt x="403" y="733" on="0"/>
        <pt x="438" y="733" on="0"/>
        <pt x="452" y="730" on="1"/>
        <pt x="485" y="723" on="0"/>
        <pt x="487" y="701" on="1"/>
        <pt x="490" y="685" on="0"/>
        <pt x="471" y="662" on="0"/>
        <pt x="462" y="649" on="0"/>
        <pt x="462" y="634" on="1"/>
        <pt x="462" y="604" on="0"/>
        <pt x="432" y="590" on="1"/>
        <pt x="416" y="582" on="0"/>
        <pt x="413" y="568" on="0"/>
        <pt x="415" y="566" on="1"/>
        <pt x="421" y="560" on="0"/>
        <pt x="387" y="526" on="0"/>
        <pt x="368" y="498" on="0"/>
        <pt x="360" y="484" on="1"/>
        <pt x="340" y="451" on="0"/>
        <pt x="331" y="443" on="1"/>
        <pt x="317" y="433" on="0"/>
        <pt x="314" y="395" on="0"/>
        <pt x="327" y="374" on="1"/>
        <pt x="338" y="351" on="0"/>
        <pt x="356" y="308" on="0"/>
        <pt x="347" y="291" on="0"/>
        <pt x="351" y="282" on="0"/>
        <pt x="356" y="276" on="1"/>
        <pt x="374" y="255" on="0"/>
        <pt x="384" y="227" on="1"/>
        <pt x="391" y="208" on="0"/>
        <pt x="409" y="176" on="0"/>
        <pt x="417" y="160" on="1"/>
        <pt x="447" y="99" on="0"/>
        <pt x="457" y="26" on="1"/>
        <pt x="460" y="3" on="0"/>
        <pt x="438" y="-7" on="1"/>
        <pt x="422" y="-16" on="0"/>
        <pt x="381" y="-2" on="0"/>
        <pt x="365" y="41" on="0"/>
        <pt x="346" y="58" on="0"/>
        <pt x="327" y="72" on="0"/>
        <pt x="309" y="90" on="0"/>
        <pt x="300" y="120" on="0"/>
        <pt x="286" y="156" on="0"/>
        <pt x="276" y="176" on="1"/>
        <pt x="253" y="220" on="0"/>
      </contour>
    </TTGlyph>
    <TTGlyph name="Y" xMin="-20" yMin="-15" xMax="423" yMax="742">
      <contour>
        <pt x="271" y="151" on="1"/>
        <pt x="276" y="106" on="0"/>
        <pt x="277" y="69" on="0"/>
        <pt x="274" y="45" on="0"/>
        <pt x="271" y="35" on="1"/>
        <pt x="264" y="12" on="0"/>
        <pt x="251" y="10" on="1"/>
        <pt x="242" y="10" on="0"/>
        <pt x="225" y="-7" on="0"/>
        <pt x="215" y="-15" on="0"/>
        <pt x="196" y="-15" on="0"/>
        <pt x="173" y="-9" on="0"/>
        <pt x="164" y="4" on="1"/>
        <pt x="144" y="33" on="0"/>
        <pt x="151" y="118" on="1"/>
        <pt x="137" y="128" on="0"/>
        <pt x="126" y="166" on="0"/>
        <pt x="139" y="240" on="0"/>
        <pt x="142" y="274" on="0"/>
        <pt x="139" y="297" on="0"/>
        <pt x="131" y="312" on="0"/>
        <pt x="117" y="341" on="0"/>
        <pt x="112" y="368" on="0"/>
        <pt x="100" y="381" on="0"/>
        <pt x="96" y="402" on="0"/>
        <pt x="91" y="412" on="1"/>
        <pt x="86" y="422" on="0"/>
        <pt x="83" y="460" on="0"/>
        <pt x="68" y="485" on="0"/>
        <pt x="53" y="502" on="0"/>
        <pt x="46" y="510" on="1"/>
        <pt x="26" y="532" on="0"/>
        <pt x="10" y="563" on="0"/>
        <pt x="9" y="585" on="0"/>
        <pt x="10" y="595" on="1"/>
        <pt x="13" y="621" on="0"/>
        <pt x="8" y="630" on="1"/>
        <pt x="-3" y="652" on="1"/>
        <pt x="-20" y="686" on="0"/>
        <pt x="-20" y="726" on="0"/>
        <pt x="1" y="746" on="0"/>
        <pt x="25" y="738" on="0"/>
        <pt x="67" y="729" on="0"/>
        <pt x="90" y="734" on="0"/>
        <pt x="100" y="738" on="1"/>
        <pt x="125" y="746" on="0"/>
        <pt x="155" y="735" on="0"/>
        <pt x="166" y="710" on="0"/>
        <pt x="168" y="680" on="0"/>
        <pt x="169" y="650" on="0"/>
        <pt x="182" y="628" on="0"/>
        <pt x="190" y="612" on="0"/>
        <pt x="195" y="595" on="0"/>
        <pt x="197" y="577" on="0"/>
        <pt x="200" y="551" on="0"/>
        <pt x="208" y="540" on="0"/>
        <pt x="213" y="540" on="1"/>
        <pt x="225" y="542" on="0"/>
        <pt x="233" y="587" on="0"/>
        <pt x="243" y="618" on="0"/>
        <pt x="247" y="630" on="1"/>
        <pt x="256" y="654" on="0"/>
        <pt x="253" y="673" on="0"/>
        <pt x="252" y="694" on="0"/>
        <pt x="256" y="703" on="1"/>
        <pt x="266" y="725" on="0"/>
        <pt x="331" y="717" on="0"/>
        <pt x="371" y="715" on="0"/>
        <pt x="393" y="733" on="0"/>
        <pt x="415" y="731" on="0"/>
        <pt x="423" y="723" on="1"/>
        <pt x="442" y="704" on="0"/>
        <pt x="399" y="633" on="0"/>
        <pt x="385" y="592" on="0"/>
        <pt x="392" y="563" on="0"/>
        <pt x="390" y="549" on="0"/>
        <pt x="382" y="534" on="0"/>
        <pt x="376" y="524" on="1"/>
        <pt x="333" y="448" on="0"/>
        <pt x="299" y="334" on="1"/>
        <pt x="282" y="278" on="0"/>
        <pt x="276" y="196" on="1"/>
        <pt x="274" y="165" on="0"/>
      </contour>
    </TTGlyph>
    <TTGlyph name="Yacute" xMin="-20" yMin="-15" xMax="423" yMax="910">
      <component glyphName="Y" x="0" y="0" flags="0x1204"/>
      <component glyphName="acute" x="0" y="143" flags="0x1004"/>
    </TTGlyph>
    <TTGlyph name="Ydieresis" xMin="-20" yMin="-15" xMax="423" yMax="907">
      <component glyphName="Y" x="0" y="0" flags="0x1204"/>
      <component glyphName="dieresis" x="-19" y="154" flags="0x1004"/>
    </TTGlyph>
    <TTGlyph name="Z" xMin="0" yMin="-11" xMax="375" yMax="746">
      <contour>
        <pt x="309" y="-6" on="0"/>
        <pt x="286" y="-7" on="0"/>
        <pt x="263" y="-13" on="0"/>
        <pt x="243" y="-8" on="0"/>
        <pt x="233" y="-5" on="1"/>
        <pt x="183" y="10" on="0"/>
        <pt x="156" y="-6" on="1"/>
        <pt x="151" y="-8" on="0"/>
        <pt x="140" y="-8" on="0"/>
        <pt x="129" y="-3" on="1"/>
        <pt x="118" y="2" on="0"/>
        <pt x="99" y="0" on="0"/>
        <pt x="90" y="0" on="1"/>
        <pt x="69" y="-2" on="0"/>
        <pt x="58" y="14" on="1"/>
        <pt x="52" y="23" on="0"/>
        <pt x="49" y="78" on="0"/>
        <pt x="46" y="89" on="1"/>
        <pt x="39" y="107" on="0"/>
        <pt x="48" y="129" on="0"/>
        <pt x="54" y="141" on="0"/>
        <pt x="57" y="153" on="0"/>
        <pt x="61" y="166" on="0"/>
        <pt x="64" y="175" on="1"/>
        <pt x="72" y="195" on="0"/>
        <pt x="104" y="255" on="0"/>
        <pt x="115" y="284" on="0"/>
        <pt x="120" y="303" on="0"/>
        <pt x="122" y="315" on="0"/>
        <pt x="131" y="329" on="0"/>
        <pt x="149" y="338" on="0"/>
        <pt x="156" y="351" on="0"/>
        <pt x="154" y="359" on="0"/>
        <pt x="151" y="366" on="0"/>
        <pt x="147" y="374" on="0"/>
        <pt x="149" y="385" on="0"/>
        <pt x="167" y="416" on="0"/>
        <pt x="176" y="434" on="1"/>
        <pt x="200" y="482" on="0"/>
        <pt x="193" y="500" on="0"/>
        <pt x="183" y="500" on="0"/>
        <pt x="177" y="498" on="1"/>
        <pt x="157" y="489" on="0"/>
        <pt x="146" y="495" on="1"/>
        <pt x="124" y="506" on="0"/>
        <pt x="89" y="487" on="1"/>
        <pt x="48" y="466" on="0"/>
        <pt x="20" y="486" on="1"/>
        <pt x="10" y="493" on="0"/>
        <pt x="-1" y="528" on="0"/>
        <pt x="1" y="567" on="0"/>
        <pt x="4" y="585" on="1"/>
        <pt x="12" y="634" on="0"/>
        <pt x="4" y="658" on="0"/>
        <pt x="0" y="680" on="0"/>
        <pt x="0" y="692" on="1"/>
        <pt x="2" y="719" on="0"/>
        <pt x="20" y="734" on="1"/>
        <pt x="36" y="747" on="0"/>
        <pt x="74" y="740" on="0"/>
        <pt x="98" y="733" on="0"/>
        <pt x="137" y="728" on="0"/>
        <pt x="184" y="737" on="0"/>
        <pt x="223" y="736" on="0"/>
        <pt x="244" y="732" on="0"/>
        <pt x="254" y="731" on="1"/>
        <pt x="278" y="729" on="0"/>
        <pt x="316" y="742" on="0"/>
        <pt x="344" y="749" on="0"/>
        <pt x="358" y="741" on="1"/>
        <pt x="392" y="721" on="0"/>
        <pt x="375" y="663" on="1"/>
        <pt x="349" y="575" on="0"/>
        <pt x="367" y="532" on="1"/>
        <pt x="375" y="509" on="0"/>
        <pt x="372" y="466" on="0"/>
        <pt x="339" y="429" on="0"/>
        <pt x="326" y="404" on="0"/>
        <pt x="315" y="379" on="0"/>
        <pt x="303" y="351" on="0"/>
        <pt x="294" y="336" on="1"/>
        <pt x="280" y="313" on="0"/>
        <pt x="282" y="305" on="0"/>
        <pt x="284" y="302" on="0"/>
        <pt x="280" y="295" on="1"/>
        <pt x="275" y="287" on="0"/>
        <pt x="265" y="287" on="0"/>
        <pt x="258" y="279" on="0"/>
        <pt x="253" y="264" on="1"/>
        <pt x="238" y="219" on="0"/>
        <pt x="210" y="177" on="0"/>
        <pt x="199" y="162" on="1"/>
        <pt x="193" y="156" on="0"/>
        <pt x="185" y="143" on="0"/>
        <pt x="181" y="138" on="1"/>
        <pt x="207" y="146" on="0"/>
        <pt x="247" y="142" on="0"/>
        <pt x="265" y="142" on="0"/>
        <pt x="294" y="159" on="0"/>
        <pt x="333" y="165" on="0"/>
        <pt x="355" y="150" on="0"/>
        <pt x="358" y="138" on="0"/>
        <pt x="356" y="123" on="0"/>
        <pt x="353" y="104" on="0"/>
        <pt x="356" y="68" on="0"/>
        <pt x="364" y="24" on="0"/>
        <pt x="350" y="4" on="0"/>
        <pt x="331" y="-3" on="0"/>
      </contour>
    </TTGlyph>
    <TTGlyph name="Zcaron" xMin="0" yMin="-11" xMax="375" yMax="937">
      <component glyphName="Z" x="0" y="0" flags="0x1204"/>
      <component glyphName="caron" x="-30" y="174" flags="0x1004"/>
    </TTGlyph>
    <TTGlyph name="a" xMin="16" yMin="-13" xMax="418" yMax="745">
      <contour>
        <pt x="97" y="-12" on="1"/>
        <pt x="87" y="-15" on="0"/>
        <pt x="62" y="-6" on="0"/>
        <pt x="52" y="19" on="0"/>
        <pt x="49" y="52" on="0"/>
        <pt x="51" y="90" on="0"/>
        <pt x="51" y="108" on="1"/>
        <pt x="51" y="148" on="0"/>
        <pt x="38" y="159" on="1"/>
        <pt x="11" y="179" on="0"/>
        <pt x="16" y="261" on="1"/>
        <pt x="21" y="308" on="0"/>
        <pt x="27" y="336" on="1"/>
        <pt x="37" y="382" on="0"/>
        <pt x="36" y="446" on="0"/>
        <pt x="41" y="482" on="0"/>
        <pt x="48" y="506" on="0"/>
        <pt x="58" y="532" on="0"/>
        <pt x="62" y="562" on="1"/>
        <pt x="72" y="637" on="0"/>
        <pt x="80" y="655" on="1"/>
        <pt x="91" y="680" on="0"/>
        <pt x="122" y="733" on="0"/>
        <pt x="132" y="742" on="1"/>
        <pt x="155" y="759" on="0"/>
        <pt x="198" y="745" on="1"/>
        <pt x="230" y="734" on="0"/>
        <pt x="285" y="742" on="0"/>
        <pt x="314" y="741" on="0"/>
        <pt x="350" y="720" on="0"/>
        <pt x="370" y="691" on="0"/>
        <pt x="374" y="674" on="1"/>
        <pt x="381" y="645" on="0"/>
        <pt x="369" y="556" on="0"/>
        <pt x="372" y="501" on="0"/>
        <pt x="393" y="452" on="0"/>
        <pt x="400" y="423" on="0"/>
        <pt x="405" y="394" on="0"/>
        <pt x="408" y="361" on="0"/>
        <pt x="417" y="319" on="0"/>
        <pt x="418" y="294" on="0"/>
        <pt x="416" y="278" on="0"/>
        <pt x="413" y="265" on="0"/>
        <pt x="418" y="238" on="0"/>
        <pt x="413" y="206" on="0"/>
        <pt x="410" y="191" on="1"/>
        <pt x="399" y="145" on="0"/>
        <pt x="401" y="126" on="1"/>
        <pt x="405" y="92" on="0"/>
        <pt x="397" y="63" on="0"/>
        <pt x="390" y="45" on="0"/>
        <pt x="381" y="13" on="0"/>
        <pt x="353" y="-13" on="0"/>
        <pt x="328" y="-3" on="0"/>
        <pt x="321" y="16" on="0"/>
        <pt x="316" y="36" on="0"/>
        <pt x="309" y="52" on="0"/>
        <pt x="300" y="53" on="1"/>
        <pt x="284" y="55" on="0"/>
        <pt x="282" y="88" on="0"/>
        <pt x="285" y="113" on="0"/>
        <pt x="279" y="139" on="0"/>
        <pt x="272" y="151" on="1"/>
        <pt x="254" y="182" on="0"/>
        <pt x="230" y="185" on="1"/>
        <pt x="194" y="190" on="0"/>
        <pt x="180" y="150" on="1"/>
        <pt x="177" y="140" on="0"/>
        <pt x="174" y="107" on="0"/>
        <pt x="161" y="81" on="0"/>
        <pt x="146" y="63" on="0"/>
        <pt x="133" y="48" on="0"/>
        <pt x="131" y="37" on="1"/>
        <pt x="123" y="-6" on="0"/>
      </contour>
      <contour>
        <pt x="186" y="407" on="1"/>
        <pt x="166" y="353" on="0"/>
        <pt x="181" y="321" on="1"/>
        <pt x="191" y="303" on="0"/>
        <pt x="207" y="302" on="1"/>
        <pt x="237" y="299" on="0"/>
        <pt x="247" y="314" on="0"/>
        <pt x="262" y="331" on="0"/>
        <pt x="258" y="366" on="0"/>
        <pt x="256" y="393" on="0"/>
        <pt x="239" y="427" on="0"/>
        <pt x="233" y="466" on="0"/>
        <pt x="232" y="484" on="1"/>
        <pt x="228" y="524" on="0"/>
        <pt x="214" y="524" on="1"/>
        <pt x="204" y="524" on="0"/>
        <pt x="199" y="503" on="0"/>
        <pt x="198" y="486" on="1"/>
        <pt x="197" y="434" on="0"/>
      </contour>
    </TTGlyph>
    <TTGlyph name="aacute" xMin="16" yMin="-13" xMax="418" yMax="951">
      <component glyphName="a" x="0" y="0" flags="0x1204"/>
      <component glyphName="acute" x="31" y="184" flags="0x1004"/>
    </TTGlyph>
    <TTGlyph name="acircumflex" xMin="16" yMin="-13" xMax="418" yMax="938">
      <component glyphName="a" x="0" y="0" flags="0x1204"/>
      <component glyphName="circumflex" x="0" y="174" flags="0x1004"/>
    </TTGlyph>
    <TTGlyph name="acute" xMin="153" yMin="625" xMax="314" yMax="767">
      <contour>
        <pt x="192" y="623" on="0"/>
        <pt x="164" y="628" on="0"/>
        <pt x="147" y="650" on="0"/>
        <pt x="159" y="687" on="0"/>
        <pt x="171" y="694" on="1"/>
        <pt x="207" y="715" on="0"/>
        <pt x="220" y="734" on="0"/>
        <pt x="239" y="749" on="0"/>
        <pt x="250" y="755" on="1"/>
        <pt x="278" y="770" on="0"/>
        <pt x="294" y="763" on="0"/>
        <pt x="312" y="758" on="0"/>
        <pt x="316" y="725" on="0"/>
        <pt x="301" y="703" on="0"/>
        <pt x="292" y="700" on="0"/>
        <pt x="282" y="692" on="0"/>
        <pt x="277" y="688" on="1"/>
        <pt x="264" y="678" on="0"/>
        <pt x="258" y="682" on="1"/>
        <pt x="255" y="684" on="0"/>
        <pt x="241" y="669" on="0"/>
        <pt x="239" y="660" on="1"/>
        <pt x="237" y="655" on="0"/>
        <pt x="219" y="651" on="0"/>
      </contour>
    </TTGlyph>
    <TTGlyph name="adieresis" xMin="16" yMin="-13" xMax="418" yMax="907">
      <component glyphName="a" x="0" y="0" flags="0x1204"/>
      <component glyphName="dieresis" x="10" y="154" flags="0x1004"/>
    </TTGlyph>
    <TTGlyph name="ae" xMin="-41" yMin="-36" xMax="639" yMax="742">
      <component glyphName="AE" x="0" y="0" flags="0x1204"/>
    </TTGlyph>
    <TTGlyph name="agrave" xMin="16" yMin="-13" xMax="418" yMax="950">
      <component glyphName="a" x="0" y="0" flags="0x1204"/>
      <component glyphName="grave" x="-9" y="184" flags="0x1004"/>
    </TTGlyph>
    <TTGlyph name="ampersand" xMin="6" yMin="-16" xMax="476" yMax="745">
      <contour>
        <pt x="247" y="386" on="1"/>
        <pt x="311" y="287" on="0"/>
        <pt x="326" y="287" on="1"/>
        <pt x="337" y="287" on="0"/>
        <pt x="353" y="308" on="1"/>
        <pt x="382" y="346" on="0"/>
        <pt x="386" y="372" on="1"/>
        <pt x="394" y="428" on="0"/>
        <pt x="426" y="430" on="1"/>
        <pt x="443" y="432" on="0"/>
        <pt x="461" y="402" on="0"/>
        <pt x="470" y="357" on="0"/>
        <pt x="475" y="328" on="0"/>
        <pt x="476" y="314" on="1"/>
        <pt x="477" y="282" on="0"/>
        <pt x="456" y="260" on="0"/>
        <pt x="439" y="255" on="1"/>
        <pt x="432" y="244" on="0"/>
        <pt x="416" y="219" on="0"/>
        <pt x="408" y="206" on="1"/>
        <pt x="391" y="179" on="0"/>
        <pt x="385" y="162" on="1"/>
        <pt x="394" y="123" on="0"/>
        <pt x="421" y="101" on="1"/>
        <pt x="443" y="82" on="0"/>
        <pt x="448" y="69" on="1"/>
        <pt x="458" y="44" on="0"/>
        <pt x="435" y="13" on="0"/>
        <pt x="412" y="-9" on="0"/>
        <pt x="374" y="1" on="0"/>
        <pt x="352" y="6" on="0"/>
        <pt x="344" y="13" on="1"/>
        <pt x="326" y="29" on="0"/>
        <pt x="326" y="73" on="1"/>
        <pt x="313" y="59" on="0"/>
        <pt x="283" y="39" on="0"/>
        <pt x="269" y="18" on="0"/>
        <pt x="253" y="-2" on="0"/>
        <pt x="243" y="-10" on="1"/>
        <pt x="220" y="-27" on="0"/>
        <pt x="161" y="-5" on="0"/>
        <pt x="125" y="14" on="0"/>
        <pt x="99" y="14" on="0"/>
        <pt x="81" y="25" on="0"/>
        <pt x="74" y="32" on="1"/>
        <pt x="53" y="52" on="0"/>
        <pt x="15" y="59" on="0"/>
        <pt x="3" y="90" on="0"/>
        <pt x="6" y="104" on="1"/>
        <pt x="17" y="143" on="0"/>
        <pt x="9" y="208" on="0"/>
        <pt x="15" y="251" on="0"/>
        <pt x="22" y="272" on="1"/>
        <pt x="39" y="321" on="0"/>
        <pt x="72" y="344" on="1"/>
        <pt x="88" y="356" on="0"/>
        <pt x="108" y="369" on="0"/>
        <pt x="114" y="373" on="1"/>
        <pt x="129" y="384" on="0"/>
        <pt x="120" y="407" on="1"/>
        <pt x="115" y="418" on="0"/>
        <pt x="109" y="430" on="1"/>
        <pt x="92" y="461" on="0"/>
        <pt x="91" y="481" on="1"/>
        <pt x="89" y="508" on="0"/>
        <pt x="83" y="520" on="0"/>
        <pt x="74" y="548" on="0"/>
        <pt x="76" y="580" on="0"/>
        <pt x="75" y="591" on="1"/>
        <pt x="73" y="608" on="0"/>
        <pt x="79" y="616" on="1"/>
        <pt x="87" y="628" on="1"/>
        <pt x="90" y="633" on="0"/>
        <pt x="91" y="667" on="0"/>
        <pt x="107" y="690" on="0"/>
        <pt x="115" y="701" on="1"/>
        <pt x="118" y="707" on="0"/>
        <pt x="122" y="707" on="1"/>
        <pt x="129" y="707" on="0"/>
        <pt x="146" y="729" on="0"/>
        <pt x="168" y="738" on="0"/>
        <pt x="199" y="742" on="0"/>
        <pt x="216" y="742" on="1"/>
        <pt x="269" y="744" on="0"/>
        <pt x="294" y="745" on="1"/>
        <pt x="349" y="747" on="0"/>
        <pt x="351" y="707" on="1"/>
        <pt x="352" y="696" on="0"/>
        <pt x="352" y="688" on="1"/>
        <pt x="352" y="674" on="1"/>
        <pt x="378" y="652" on="0"/>
        <pt x="380" y="603" on="0"/>
        <pt x="362" y="580" on="0"/>
        <pt x="359" y="570" on="0"/>
        <pt x="355" y="555" on="0"/>
        <pt x="352" y="546" on="1"/>
        <pt x="345" y="525" on="0"/>
        <pt x="332" y="506" on="0"/>
        <pt x="316" y="486" on="0"/>
        <pt x="306" y="474" on="1"/>
        <pt x="275" y="434" on="0"/>
      </contour>
      <contour>
        <pt x="231" y="540" on="0"/>
        <pt x="215" y="544" on="0"/>
        <pt x="175" y="549" on="0"/>
        <pt x="169" y="525" on="0"/>
        <pt x="174" y="513" on="1"/>
        <pt x="181" y="497" on="0"/>
        <pt x="186" y="465" on="1"/>
        <pt x="194" y="474" on="0"/>
        <pt x="211" y="489" on="0"/>
        <pt x="218" y="496" on="1"/>
        <pt x="233" y="511" on="0"/>
      </contour>
      <contour>
        <pt x="118" y="158" on="0"/>
        <pt x="140" y="130" on="0"/>
        <pt x="163" y="115" on="1"/>
        <pt x="186" y="100" on="0"/>
        <pt x="207" y="107" on="0"/>
        <pt x="218" y="120" on="0"/>
        <pt x="230" y="124" on="0"/>
        <pt x="236" y="126" on="1"/>
        <pt x="253" y="131" on="0"/>
        <pt x="256" y="144" on="1"/>
        <pt x="262" y="172" on="0"/>
        <pt x="226" y="198" on="1"/>
        <pt x="209" y="209" on="0"/>
        <pt x="197" y="230" on="0"/>
        <pt x="195" y="253" on="1"/>
        <pt x="187" y="301" on="0"/>
        <pt x="168" y="302" on="1"/>
        <pt x="151" y="302" on="0"/>
        <pt x="133" y="264" on="1"/>
        <pt x="114" y="225" on="0"/>
      </contour>
    </TTGlyph>
    <TTGlyph name="aring" xMin="16" yMin="-13" xMax="418" yMax="877">
      <contour>
        <pt x="166" y="847" on="1"/>
        <pt x="170" y="857" on="0"/>
        <pt x="186" y="861" on="0"/>
        <pt x="191" y="866" on="1"/>
        <pt x="196" y="871" on="0"/>
        <pt x="208" y="868" on="0"/>
        <pt x="217" y="878" on="0"/>
        <pt x="241" y="874" on="0"/>
        <pt x="246" y="877" on="1"/>
        <pt x="251" y="880" on="0"/>
        <pt x="268" y="871" on="0"/>
        <pt x="277" y="868" on="0"/>
        <pt x="286" y="864" on="0"/>
        <pt x="296" y="841" on="0"/>
        <pt x="305" y="834" on="0"/>
        <pt x="306" y="827" on="1"/>
        <pt x="310" y="810" on="0"/>
        <pt x="309" y="786" on="0"/>
        <pt x="309" y="760" on="0"/>
        <pt x="295" y="752" on="0"/>
        <pt x="290" y="741" on="1"/>
        <pt x="308" y="742" on="0"/>
        <pt x="332" y="731" on="1"/>
        <pt x="379" y="702" on="0"/>
        <pt x="378" y="638" on="1"/>
        <pt x="377" y="618" on="0"/>
        <pt x="373" y="587" on="1"/>
        <pt x="364" y="519" on="0"/>
        <pt x="385" y="470" on="1"/>
        <pt x="401" y="433" on="0"/>
        <pt x="408" y="361" on="0"/>
        <pt x="417" y="319" on="0"/>
        <pt x="418" y="294" on="0"/>
        <pt x="416" y="278" on="0"/>
        <pt x="413" y="265" on="0"/>
        <pt x="418" y="238" on="0"/>
        <pt x="413" y="206" on="0"/>
        <pt x="410" y="191" on="1"/>
        <pt x="399" y="145" on="0"/>
        <pt x="401" y="126" on="1"/>
        <pt x="405" y="92" on="0"/>
        <pt x="397" y="63" on="0"/>
        <pt x="390" y="45" on="0"/>
        <pt x="381" y="13" on="0"/>
        <pt x="353" y="-13" on="0"/>
        <pt x="328" y="-3" on="0"/>
        <pt x="321" y="16" on="0"/>
        <pt x="316" y="36" on="0"/>
        <pt x="309" y="52" on="0"/>
        <pt x="300" y="53" on="1"/>
        <pt x="284" y="55" on="0"/>
        <pt x="282" y="88" on="0"/>
        <pt x="285" y="113" on="0"/>
        <pt x="279" y="139" on="0"/>
        <pt x="272" y="151" on="1"/>
        <pt x="254" y="182" on="0"/>
        <pt x="230" y="185" on="1"/>
        <pt x="194" y="190" on="0"/>
        <pt x="180" y="150" on="1"/>
        <pt x="177" y="140" on="0"/>
        <pt x="174" y="107" on="0"/>
        <pt x="161" y="81" on="0"/>
        <pt x="146" y="63" on="0"/>
        <pt x="133" y="48" on="0"/>
        <pt x="131" y="37" on="1"/>
        <pt x="123" y="-6" on="0"/>
        <pt x="97" y="-12" on="1"/>
        <pt x="87" y="-15" on="0"/>
        <pt x="62" y="-6" on="0"/>
        <pt x="52" y="19" on="0"/>
        <pt x="49" y="52" on="0"/>
        <pt x="51" y="90" on="0"/>
        <pt x="51" y="108" on="1"/>
        <pt x="51" y="148" on="0"/>
        <pt x="38" y="159" on="1"/>
        <pt x="11" y="179" on="0"/>
        <pt x="16" y="261" on="1"/>
        <pt x="21" y="308" on="0"/>
        <pt x="27" y="336" on="1"/>
        <pt x="37" y="382" on="0"/>
        <pt x="36" y="446" on="0"/>
        <pt x="41" y="482" on="0"/>
        <pt x="48" y="506" on="0"/>
        <pt x="58" y="532" on="0"/>
        <pt x="62" y="562" on="1"/>
        <pt x="72" y="637" on="0"/>
        <pt x="88" y="674" on="0"/>
        <pt x="111" y="714" on="0"/>
        <pt x="135" y="750" on="0"/>
        <pt x="158" y="752" on="1"/>
        <pt x="157" y="754" on="0"/>
        <pt x="154" y="757" on="1"/>
        <pt x="144" y="767" on="0"/>
        <pt x="146" y="809" on="0"/>
        <pt x="153" y="821" on="0"/>
        <pt x="152" y="837" on="0"/>
        <pt x="156" y="840" on="1"/>
        <pt x="164" y="844" on="0"/>
      </contour>
      <contour>
        <pt x="186" y="407" on="1"/>
        <pt x="166" y="353" on="0"/>
        <pt x="181" y="321" on="1"/>
        <pt x="191" y="303" on="0"/>
        <pt x="207" y="302" on="1"/>
        <pt x="237" y="299" on="0"/>
        <pt x="247" y="314" on="0"/>
        <pt x="262" y="331" on="0"/>
        <pt x="258" y="366" on="0"/>
        <pt x="256" y="393" on="0"/>
        <pt x="239" y="427" on="0"/>
        <pt x="233" y="466" on="0"/>
        <pt x="232" y="484" on="1"/>
        <pt x="228" y="524" on="0"/>
        <pt x="214" y="524" on="1"/>
        <pt x="204" y="524" on="0"/>
        <pt x="199" y="503" on="0"/>
        <pt x="198" y="486" on="1"/>
        <pt x="197" y="434" on="0"/>
      </contour>
      <contour>
        <pt x="217" y="833" on="0"/>
        <pt x="216" y="826" on="0"/>
        <pt x="203" y="822" on="0"/>
        <pt x="203" y="819" on="0"/>
        <pt x="199" y="812" on="1"/>
        <pt x="195" y="805" on="0"/>
        <pt x="197" y="801" on="0"/>
        <pt x="191" y="779" on="0"/>
        <pt x="200" y="769" on="0"/>
        <pt x="210" y="766" on="0"/>
        <pt x="223" y="766" on="0"/>
        <pt x="232" y="776" on="0"/>
        <pt x="245" y="777" on="0"/>
        <pt x="248" y="785" on="0"/>
        <pt x="252" y="786" on="0"/>
        <pt x="254" y="787" on="1"/>
        <pt x="259" y="790" on="0"/>
        <pt x="259" y="801" on="1"/>
        <pt x="259" y="813" on="0"/>
        <pt x="248" y="820" on="1"/>
        <pt x="230" y="833" on="0"/>
      </contour>
    </TTGlyph>
    <TTGlyph name="asciicircum" xMin="10" yMin="304" xMax="370" yMax="753">
      <contour>
        <pt x="30" y="304" on="1"/>
        <pt x="9" y="304" on="0"/>
        <pt x="10" y="342" on="1"/>
        <pt x="11" y="365" on="0"/>
        <pt x="54" y="467" on="0"/>
        <pt x="69" y="502" on="1"/>
        <pt x="120" y="623" on="0"/>
        <pt x="129" y="688" on="0"/>
        <pt x="139" y="724" on="0"/>
        <pt x="156" y="750" on="0"/>
        <pt x="172" y="753" on="1"/>
        <pt x="205" y="759" on="0"/>
        <pt x="219" y="719" on="1"/>
        <pt x="221" y="712" on="0"/>
        <pt x="228" y="706" on="0"/>
        <pt x="232" y="702" on="1"/>
        <pt x="241" y="691" on="0"/>
        <pt x="244" y="663" on="1"/>
        <pt x="250" y="620" on="0"/>
        <pt x="278" y="571" on="0"/>
        <pt x="310" y="520" on="0"/>
        <pt x="326" y="449" on="0"/>
        <pt x="345" y="408" on="0"/>
        <pt x="351" y="395" on="0"/>
        <pt x="357" y="385" on="0"/>
        <pt x="361" y="378" on="1"/>
        <pt x="370" y="361" on="0"/>
        <pt x="369" y="340" on="0"/>
        <pt x="366" y="334" on="0"/>
        <pt x="364" y="325" on="0"/>
        <pt x="364" y="316" on="0"/>
        <pt x="360" y="313" on="1"/>
        <pt x="332" y="290" on="0"/>
        <pt x="303" y="320" on="1"/>
        <pt x="280" y="344" on="0"/>
        <pt x="259" y="403" on="0"/>
        <pt x="248" y="417" on="0"/>
        <pt x="245" y="449" on="0"/>
        <pt x="230" y="467" on="0"/>
        <pt x="212" y="488" on="0"/>
        <pt x="203" y="509" on="0"/>
        <pt x="200" y="520" on="1"/>
        <pt x="195" y="538" on="0"/>
        <pt x="196" y="570" on="0"/>
        <pt x="178" y="570" on="0"/>
        <pt x="172" y="538" on="0"/>
        <pt x="166" y="511" on="0"/>
        <pt x="163" y="498" on="1"/>
        <pt x="159" y="482" on="0"/>
        <pt x="153" y="464" on="1"/>
        <pt x="132" y="443" on="0"/>
        <pt x="124" y="409" on="0"/>
        <pt x="121" y="400" on="0"/>
        <pt x="120" y="396" on="1"/>
        <pt x="115" y="386" on="0"/>
        <pt x="113" y="379" on="1"/>
        <pt x="101" y="339" on="0"/>
        <pt x="64" y="299" on="0"/>
      </contour>
    </TTGlyph>
    <TTGlyph name="asciitilde" xMin="11" yMin="303" xMax="402" yMax="430">
      <contour>
        <pt x="276" y="379" on="1"/>
        <pt x="288" y="392" on="0"/>
        <pt x="306" y="390" on="1"/>
        <pt x="332" y="420" on="0"/>
        <pt x="378" y="407" on="1"/>
        <pt x="398" y="401" on="0"/>
        <pt x="406" y="373" on="0"/>
        <pt x="394" y="355" on="0"/>
        <pt x="385" y="342" on="0"/>
        <pt x="364" y="332" on="0"/>
        <pt x="327" y="322" on="0"/>
        <pt x="304" y="311" on="0"/>
        <pt x="297" y="305" on="0"/>
        <pt x="292" y="304" on="1"/>
        <pt x="280" y="299" on="0"/>
        <pt x="259" y="304" on="1"/>
        <pt x="245" y="307" on="0"/>
        <pt x="229" y="308" on="0"/>
        <pt x="224" y="309" on="1"/>
        <pt x="213" y="311" on="0"/>
        <pt x="199" y="325" on="1"/>
        <pt x="147" y="374" on="0"/>
        <pt x="104" y="330" on="1"/>
        <pt x="100" y="327" on="0"/>
        <pt x="95" y="326" on="1"/>
        <pt x="88" y="324" on="0"/>
        <pt x="79" y="316" on="1"/>
        <pt x="64" y="301" on="0"/>
        <pt x="57" y="303" on="1"/>
        <pt x="53" y="304" on="0"/>
        <pt x="41" y="306" on="0"/>
        <pt x="34" y="308" on="1"/>
        <pt x="19" y="313" on="0"/>
        <pt x="15" y="329" on="0"/>
        <pt x="7" y="347" on="0"/>
        <pt x="17" y="368" on="0"/>
        <pt x="28" y="372" on="0"/>
        <pt x="43" y="388" on="0"/>
        <pt x="65" y="399" on="0"/>
        <pt x="79" y="409" on="0"/>
        <pt x="94" y="418" on="0"/>
        <pt x="102" y="422" on="1"/>
        <pt x="121" y="431" on="0"/>
        <pt x="131" y="429" on="0"/>
        <pt x="140" y="423" on="1"/>
        <pt x="153" y="433" on="0"/>
        <pt x="183" y="420" on="0"/>
        <pt x="200" y="417" on="0"/>
        <pt x="208" y="410" on="1"/>
        <pt x="242" y="385" on="0"/>
        <pt x="261" y="384" on="0"/>
      </contour>
    </TTGlyph>
    <TTGlyph name="asterisk" xMin="13" yMin="294" xMax="404" yMax="733">
      <contour>
        <pt x="97" y="396" on="0"/>
        <pt x="67" y="372" on="0"/>
        <pt x="37" y="375" on="0"/>
        <pt x="27" y="394" on="1"/>
        <pt x="23" y="401" on="0"/>
        <pt x="23" y="425" on="0"/>
        <pt x="28" y="438" on="1"/>
        <pt x="40" y="467" on="0"/>
        <pt x="74" y="478" on="1"/>
        <pt x="102" y="488" on="0"/>
        <pt x="132" y="510" on="1"/>
        <pt x="114" y="521" on="0"/>
        <pt x="79" y="540" on="0"/>
        <pt x="63" y="549" on="1"/>
        <pt x="26" y="570" on="0"/>
        <pt x="17" y="583" on="1"/>
        <pt x="4" y="603" on="0"/>
        <pt x="14" y="626" on="1"/>
        <pt x="24" y="651" on="0"/>
        <pt x="82" y="644" on="0"/>
        <pt x="108" y="624" on="0"/>
        <pt x="124" y="600" on="0"/>
        <pt x="133" y="579" on="0"/>
        <pt x="144" y="571" on="0"/>
        <pt x="157" y="572" on="0"/>
        <pt x="165" y="571" on="1"/>
        <pt x="166" y="590" on="0"/>
        <pt x="166" y="619" on="0"/>
        <pt x="168" y="678" on="0"/>
        <pt x="164" y="717" on="0"/>
        <pt x="172" y="728" on="1"/>
        <pt x="189" y="753" on="0"/>
        <pt x="222" y="733" on="1"/>
        <pt x="244" y="720" on="0"/>
        <pt x="254" y="674" on="0"/>
        <pt x="250" y="654" on="1"/>
        <pt x="243" y="618" on="0"/>
        <pt x="247" y="589" on="1"/>
        <pt x="280" y="610" on="0"/>
        <pt x="336" y="654" on="0"/>
        <pt x="366" y="659" on="0"/>
        <pt x="389" y="651" on="0"/>
        <pt x="396" y="642" on="1"/>
        <pt x="414" y="622" on="0"/>
        <pt x="384" y="573" on="0"/>
        <pt x="355" y="558" on="0"/>
        <pt x="326" y="554" on="0"/>
        <pt x="303" y="555" on="0"/>
        <pt x="290" y="547" on="0"/>
        <pt x="286" y="532" on="0"/>
        <pt x="276" y="521" on="1"/>
        <pt x="303" y="503" on="1"/>
        <pt x="315" y="495" on="0"/>
        <pt x="364" y="462" on="0"/>
        <pt x="399" y="444" on="0"/>
        <pt x="404" y="429" on="1"/>
        <pt x="411" y="416" on="0"/>
        <pt x="392" y="392" on="0"/>
        <pt x="370" y="382" on="0"/>
        <pt x="357" y="382" on="1"/>
        <pt x="326" y="380" on="0"/>
        <pt x="300" y="406" on="1"/>
        <pt x="282" y="424" on="0"/>
        <pt x="253" y="440" on="1"/>
        <pt x="255" y="403" on="0"/>
        <pt x="260" y="339" on="0"/>
        <pt x="249" y="312" on="0"/>
        <pt x="230" y="296" on="0"/>
        <pt x="218" y="294" on="1"/>
        <pt x="191" y="291" on="0"/>
        <pt x="176" y="322" on="1"/>
        <pt x="156" y="362" on="0"/>
        <pt x="188" y="411" on="1"/>
        <pt x="194" y="421" on="0"/>
        <pt x="194" y="427" on="1"/>
        <pt x="194" y="433" on="0"/>
        <pt x="188" y="441" on="0"/>
        <pt x="185" y="447" on="1"/>
        <pt x="171" y="439" on="0"/>
        <pt x="148" y="425" on="0"/>
        <pt x="125" y="413" on="1"/>
      </contour>
    </TTGlyph>
    <TTGlyph name="at" xMin="5" yMin="-24" xMax="692" yMax="761">
      <contour>
        <pt x="690" y="438" on="1"/>
        <pt x="689" y="414" on="1"/>
        <pt x="689" y="408" on="0"/>
        <pt x="692" y="396" on="1"/>
        <pt x="697" y="377" on="0"/>
        <pt x="681" y="354" on="1"/>
        <pt x="681" y="317" on="0"/>
        <pt x="670" y="303" on="1"/>
        <pt x="653" y="281" on="0"/>
        <pt x="644" y="251" on="0"/>
        <pt x="635" y="241" on="0"/>
        <pt x="630" y="236" on="1"/>
        <pt x="612" y="222" on="0"/>
        <pt x="602" y="204" on="0"/>
        <pt x="587" y="194" on="0"/>
        <pt x="575" y="184" on="1"/>
        <pt x="538" y="154" on="0"/>
        <pt x="524" y="168" on="1"/>
        <pt x="512" y="183" on="0"/>
        <pt x="503" y="187" on="1"/>
        <pt x="486" y="198" on="0"/>
        <pt x="488" y="241" on="1"/>
        <pt x="465" y="233" on="0"/>
        <pt x="442" y="211" on="0"/>
        <pt x="412" y="170" on="0"/>
        <pt x="370" y="155" on="0"/>
        <pt x="320" y="144" on="0"/>
        <pt x="304" y="149" on="1"/>
        <pt x="283" y="155" on="0"/>
        <pt x="267" y="196" on="1"/>
        <pt x="260" y="212" on="0"/>
        <pt x="242" y="221" on="0"/>
        <pt x="230" y="224" on="1"/>
        <pt x="203" y="231" on="0"/>
        <pt x="180" y="288" on="1"/>
        <pt x="175" y="302" on="0"/>
        <pt x="171" y="312" on="1"/>
        <pt x="155" y="345" on="0"/>
        <pt x="195" y="458" on="1"/>
        <pt x="206" y="486" on="0"/>
        <pt x="230" y="517" on="0"/>
        <pt x="252" y="540" on="0"/>
        <pt x="265" y="557" on="0"/>
        <pt x="272" y="564" on="1"/>
        <pt x="289" y="581" on="0"/>
        <pt x="332" y="585" on="0"/>
        <pt x="352" y="588" on="0"/>
        <pt x="358" y="588" on="1"/>
        <pt x="368" y="588" on="0"/>
        <pt x="380" y="572" on="0"/>
        <pt x="389" y="568" on="0"/>
        <pt x="397" y="566" on="0"/>
        <pt x="402" y="565" on="1"/>
        <pt x="410" y="563" on="0"/>
        <pt x="421" y="544" on="0"/>
        <pt x="424" y="540" on="1"/>
        <pt x="430" y="530" on="0"/>
        <pt x="446" y="537" on="0"/>
        <pt x="450" y="550" on="0"/>
        <pt x="452" y="558" on="1"/>
        <pt x="462" y="597" on="0"/>
        <pt x="494" y="589" on="1"/>
        <pt x="510" y="585" on="0"/>
        <pt x="519" y="559" on="0"/>
        <pt x="525" y="553" on="0"/>
        <pt x="528" y="552" on="1"/>
        <pt x="540" y="547" on="0"/>
        <pt x="526" y="505" on="0"/>
        <pt x="519" y="488" on="1"/>
        <pt x="506" y="374" on="0"/>
        <pt x="514" y="321" on="0"/>
        <pt x="529" y="300" on="0"/>
        <pt x="552" y="297" on="0"/>
        <pt x="559" y="302" on="1"/>
        <pt x="566" y="307" on="0"/>
        <pt x="574" y="323" on="1"/>
        <pt x="588" y="351" on="1"/>
        <pt x="608" y="395" on="0"/>
        <pt x="596" y="435" on="0"/>
        <pt x="599" y="469" on="0"/>
        <pt x="601" y="486" on="1"/>
        <pt x="606" y="529" on="0"/>
        <pt x="580" y="572" on="0"/>
        <pt x="570" y="593" on="0"/>
        <pt x="567" y="599" on="1"/>
        <pt x="562" y="610" on="0"/>
        <pt x="555" y="613" on="1"/>
        <pt x="550" y="615" on="0"/>
        <pt x="541" y="630" on="0"/>
        <pt x="534" y="638" on="1"/>
        <pt x="515" y="661" on="0"/>
        <pt x="467" y="668" on="0"/>
        <pt x="436" y="670" on="0"/>
        <pt x="422" y="671" on="1"/>
        <pt x="393" y="673" on="0"/>
        <pt x="358" y="690" on="0"/>
        <pt x="324" y="691" on="0"/>
        <pt x="308" y="688" on="1"/>
        <pt x="273" y="682" on="0"/>
        <pt x="244" y="660" on="0"/>
        <pt x="231" y="650" on="0"/>
        <pt x="224" y="644" on="1"/>
        <pt x="217" y="639" on="0"/>
        <pt x="188" y="622" on="1"/>
        <pt x="168" y="610" on="0"/>
        <pt x="149" y="580" on="0"/>
        <pt x="138" y="559" on="0"/>
        <pt x="124" y="539" on="0"/>
        <pt x="120" y="509" on="0"/>
        <pt x="110" y="495" on="1"/>
        <pt x="100" y="481" on="0"/>
        <pt x="94" y="449" on="0"/>
        <pt x="79" y="410" on="0"/>
        <pt x="74" y="375" on="0"/>
        <pt x="73" y="336" on="0"/>
        <pt x="74" y="297" on="0"/>
        <pt x="74" y="279" on="1"/>
        <pt x="80" y="268" on="0"/>
        <pt x="90" y="228" on="0"/>
        <pt x="104" y="213" on="1"/>
        <pt x="112" y="206" on="0"/>
        <pt x="134" y="187" on="0"/>
        <pt x="168" y="157" on="0"/>
        <pt x="187" y="141" on="0"/>
        <pt x="198" y="131" on="1"/>
        <pt x="215" y="116" on="0"/>
        <pt x="274" y="63" on="0"/>
        <pt x="309" y="51" on="0"/>
        <pt x="346" y="48" on="0"/>
        <pt x="387" y="50" on="0"/>
        <pt x="423" y="48" on="0"/>
        <pt x="442" y="54" on="0"/>
        <pt x="479" y="70" on="0"/>
        <pt x="500" y="71" on="0"/>
        <pt x="510" y="74" on="1"/>
        <pt x="528" y="81" on="0"/>
        <pt x="539" y="65" on="0"/>
        <pt x="520" y="48" on="0"/>
        <pt x="478" y="27" on="0"/>
        <pt x="451" y="7" on="0"/>
        <pt x="421" y="2" on="0"/>
        <pt x="408" y="-7" on="0"/>
        <pt x="400" y="-12" on="1"/>
        <pt x="381" y="-23" on="0"/>
        <pt x="330" y="-23" on="0"/>
        <pt x="304" y="-15" on="0"/>
        <pt x="286" y="-5" on="0"/>
        <pt x="270" y="7" on="0"/>
        <pt x="239" y="15" on="0"/>
        <pt x="218" y="18" on="0"/>
        <pt x="210" y="20" on="1"/>
        <pt x="165" y="28" on="0"/>
        <pt x="142" y="52" on="1"/>
        <pt x="132" y="64" on="0"/>
        <pt x="116" y="86" on="0"/>
        <pt x="97" y="106" on="0"/>
        <pt x="62" y="116" on="0"/>
        <pt x="43" y="140" on="0"/>
        <pt x="33" y="170" on="0"/>
        <pt x="26" y="203" on="0"/>
        <pt x="9" y="247" on="0"/>
        <pt x="8" y="306" on="0"/>
        <pt x="4" y="353" on="0"/>
        <pt x="6" y="374" on="0"/>
        <pt x="10" y="394" on="0"/>
        <pt x="15" y="418" on="0"/>
        <pt x="17" y="436" on="1"/>
        <pt x="22" y="469" on="0"/>
        <pt x="28" y="480" on="1"/>
        <pt x="40" y="504" on="0"/>
        <pt x="46" y="524" on="1"/>
        <pt x="55" y="548" on="0"/>
        <pt x="105" y="617" on="1"/>
        <pt x="163" y="688" on="0"/>
        <pt x="205" y="701" on="1"/>
        <pt x="218" y="705" on="0"/>
        <pt x="237" y="717" on="0"/>
        <pt x="247" y="723" on="1"/>
        <pt x="271" y="737" on="0"/>
        <pt x="297" y="742" on="1"/>
        <pt x="314" y="745" on="0"/>
        <pt x="341" y="753" on="0"/>
        <pt x="352" y="756" on="1"/>
        <pt x="380" y="763" on="0"/>
        <pt x="417" y="758" on="0"/>
        <pt x="438" y="757" on="0"/>
        <pt x="446" y="756" on="1"/>
        <pt x="464" y="755" on="0"/>
        <pt x="490" y="744" on="0"/>
        <pt x="515" y="735" on="0"/>
        <pt x="529" y="728" on="1"/>
        <pt x="576" y="707" on="0"/>
        <pt x="611" y="654" on="1"/>
        <pt x="618" y="644" on="0"/>
        <pt x="622" y="636" on="1"/>
        <pt x="633" y="616" on="0"/>
        <pt x="651" y="597" on="0"/>
        <pt x="657" y="584" on="0"/>
        <pt x="659" y="578" on="1"/>
        <pt x="664" y="564" on="1"/>
        <pt x="666" y="557" on="0"/>
        <pt x="683" y="520" on="0"/>
        <pt x="685" y="483" on="0"/>
        <pt x="690" y="445" on="0"/>
      </contour>
      <contour>
        <pt x="409" y="318" on="0"/>
        <pt x="423" y="335" on="0"/>
        <pt x="424" y="358" on="0"/>
        <pt x="429" y="368" on="0"/>
        <pt x="432" y="375" on="1"/>
        <pt x="439" y="391" on="0"/>
        <pt x="439" y="431" on="0"/>
        <pt x="430" y="452" on="0"/>
        <pt x="418" y="471" on="0"/>
        <pt x="405" y="491" on="0"/>
        <pt x="401" y="505" on="1"/>
        <pt x="396" y="519" on="0"/>
        <pt x="371" y="519" on="0"/>
        <pt x="357" y="515" on="0"/>
        <pt x="350" y="509" on="0"/>
        <pt x="348" y="506" on="1"/>
        <pt x="340" y="492" on="0"/>
        <pt x="330" y="483" on="1"/>
        <pt x="313" y="468" on="0"/>
        <pt x="304" y="446" on="0"/>
        <pt x="300" y="427" on="0"/>
        <pt x="289" y="388" on="0"/>
        <pt x="278" y="338" on="0"/>
        <pt x="291" y="310" on="0"/>
        <pt x="307" y="294" on="0"/>
        <pt x="316" y="287" on="1"/>
        <pt x="335" y="272" on="0"/>
        <pt x="362" y="272" on="0"/>
        <pt x="381" y="285" on="0"/>
        <pt x="391" y="292" on="1"/>
        <pt x="400" y="301" on="0"/>
      </contour>
    </TTGlyph>
    <TTGlyph name="atilde" xMin="16" yMin="-13" xMax="418" yMax="914">
      <component glyphName="a" x="0" y="0" flags="0x1204"/>
      <component glyphName="tilde" x="0" y="164" flags="0x1004"/>
    </TTGlyph>
    <TTGlyph name="b" xMin="15" yMin="-23" xMax="447" yMax="735">
      <contour>
        <pt x="384" y="361" on="1"/>
        <pt x="356" y="330" on="0"/>
        <pt x="327" y="311" on="1"/>
        <pt x="352" y="307" on="0"/>
        <pt x="389" y="290" on="0"/>
        <pt x="389" y="255" on="0"/>
        <pt x="397" y="239" on="0"/>
        <pt x="401" y="231" on="1"/>
        <pt x="411" y="212" on="0"/>
        <pt x="400" y="161" on="0"/>
        <pt x="397" y="114" on="0"/>
        <pt x="393" y="92" on="1"/>
        <pt x="383" y="38" on="0"/>
        <pt x="351" y="28" on="1"/>
        <pt x="325" y="20" on="0"/>
        <pt x="305" y="16" on="1"/>
        <pt x="275" y="-26" on="0"/>
        <pt x="253" y="-23" on="1"/>
        <pt x="245" y="-22" on="0"/>
        <pt x="235" y="-2" on="0"/>
        <pt x="219" y="0" on="0"/>
        <pt x="210" y="-3" on="1"/>
        <pt x="190" y="-10" on="1"/>
        <pt x="171" y="-16" on="0"/>
        <pt x="130" y="-2" on="1"/>
        <pt x="115" y="4" on="0"/>
        <pt x="101" y="48" on="0"/>
        <pt x="90" y="67" on="0"/>
        <pt x="80" y="80" on="0"/>
        <pt x="75" y="84" on="1"/>
        <pt x="56" y="101" on="0"/>
        <pt x="56" y="113" on="1"/>
        <pt x="55" y="133" on="0"/>
        <pt x="64" y="198" on="0"/>
        <pt x="65" y="245" on="0"/>
        <pt x="62" y="266" on="1"/>
        <pt x="57" y="311" on="0"/>
        <pt x="35" y="325" on="1"/>
        <pt x="24" y="332" on="0"/>
        <pt x="15" y="341" on="0"/>
        <pt x="15" y="359" on="0"/>
        <pt x="23" y="393" on="0"/>
        <pt x="29" y="431" on="0"/>
        <pt x="39" y="448" on="0"/>
        <pt x="40" y="491" on="0"/>
        <pt x="36" y="528" on="0"/>
        <pt x="34" y="540" on="1"/>
        <pt x="31" y="569" on="0"/>
        <pt x="37" y="605" on="0"/>
        <pt x="34" y="636" on="0"/>
        <pt x="35" y="650" on="1"/>
        <pt x="38" y="688" on="0"/>
        <pt x="91" y="722" on="1"/>
        <pt x="135" y="750" on="0"/>
        <pt x="166" y="735" on="1"/>
        <pt x="186" y="727" on="0"/>
        <pt x="205" y="731" on="0"/>
        <pt x="215" y="731" on="0"/>
        <pt x="229" y="722" on="0"/>
        <pt x="247" y="725" on="0"/>
        <pt x="256" y="728" on="1"/>
        <pt x="282" y="734" on="0"/>
        <pt x="295" y="730" on="1"/>
        <pt x="308" y="726" on="0"/>
        <pt x="326" y="731" on="0"/>
        <pt x="338" y="731" on="0"/>
        <pt x="347" y="726" on="1"/>
        <pt x="356" y="721" on="0"/>
        <pt x="369" y="719" on="0"/>
        <pt x="374" y="718" on="1"/>
        <pt x="383" y="716" on="0"/>
        <pt x="389" y="700" on="1"/>
        <pt x="393" y="690" on="0"/>
        <pt x="395" y="673" on="0"/>
        <pt x="396" y="665" on="1"/>
        <pt x="400" y="648" on="0"/>
        <pt x="410" y="639" on="1"/>
        <pt x="418" y="632" on="0"/>
        <pt x="418" y="623" on="1"/>
        <pt x="418" y="607" on="0"/>
        <pt x="432" y="598" on="0"/>
        <pt x="444" y="569" on="0"/>
        <pt x="447" y="549" on="1"/>
        <pt x="455" y="498" on="0"/>
        <pt x="437" y="456" on="1"/>
        <pt x="431" y="384" on="0"/>
        <pt x="401" y="369" on="1"/>
        <pt x="396" y="367" on="0"/>
      </contour>
      <contour>
        <pt x="224" y="551" on="0"/>
        <pt x="219" y="561" on="0"/>
        <pt x="208" y="557" on="0"/>
        <pt x="205" y="547" on="0"/>
        <pt x="205" y="533" on="0"/>
        <pt x="206" y="517" on="0"/>
        <pt x="203" y="499" on="0"/>
        <pt x="204" y="483" on="0"/>
        <pt x="206" y="474" on="1"/>
        <pt x="210" y="449" on="0"/>
        <pt x="211" y="409" on="0"/>
        <pt x="210" y="385" on="0"/>
        <pt x="210" y="376" on="1"/>
        <pt x="211" y="360" on="0"/>
        <pt x="225" y="355" on="1"/>
        <pt x="239" y="349" on="0"/>
        <pt x="256" y="380" on="1"/>
        <pt x="282" y="425" on="0"/>
        <pt x="286" y="472" on="1"/>
        <pt x="288" y="489" on="0"/>
        <pt x="272" y="518" on="0"/>
        <pt x="258" y="521" on="0"/>
        <pt x="238" y="523" on="0"/>
        <pt x="229" y="536" on="0"/>
      </contour>
      <contour>
        <pt x="241" y="136" on="0"/>
        <pt x="246" y="152" on="0"/>
        <pt x="260" y="165" on="0"/>
        <pt x="262" y="185" on="1"/>
        <pt x="265" y="219" on="0"/>
        <pt x="246" y="248" on="0"/>
        <pt x="243" y="269" on="1"/>
        <pt x="232" y="276" on="0"/>
        <pt x="224" y="285" on="0"/>
        <pt x="216" y="279" on="0"/>
        <pt x="217" y="268" on="0"/>
        <pt x="213" y="254" on="0"/>
        <pt x="208" y="239" on="0"/>
        <pt x="213" y="216" on="0"/>
        <pt x="210" y="196" on="0"/>
        <pt x="205" y="163" on="0"/>
        <pt x="204" y="147" on="0"/>
        <pt x="222" y="122" on="0"/>
      </contour>
    </TTGlyph>
    <TTGlyph name="backslash" xMin="11" yMin="-6" xMax="349" yMax="754">
      <contour>
        <pt x="13" y="732" on="0"/>
        <pt x="25" y="750" on="0"/>
        <pt x="44" y="758" on="0"/>
        <pt x="80" y="732" on="0"/>
        <pt x="104" y="689" on="0"/>
        <pt x="109" y="666" on="0"/>
        <pt x="111" y="656" on="1"/>
        <pt x="116" y="632" on="0"/>
        <pt x="129" y="616" on="1"/>
        <pt x="159" y="579" on="0"/>
        <pt x="168" y="525" on="1"/>
        <pt x="183" y="532" on="0"/>
        <pt x="195" y="476" on="1"/>
        <pt x="205" y="420" on="0"/>
        <pt x="247" y="344" on="1"/>
        <pt x="273" y="298" on="0"/>
        <pt x="280" y="270" on="1"/>
        <pt x="294" y="213" on="0"/>
        <pt x="306" y="187" on="0"/>
        <pt x="311" y="169" on="0"/>
        <pt x="314" y="160" on="1"/>
        <pt x="322" y="138" on="0"/>
        <pt x="337" y="111" on="1"/>
        <pt x="365" y="62" on="0"/>
        <pt x="349" y="15" on="1"/>
        <pt x="343" y="-3" on="0"/>
        <pt x="314" y="-8" on="0"/>
        <pt x="294" y="-2" on="0"/>
        <pt x="270" y="30" on="0"/>
        <pt x="260" y="50" on="1"/>
        <pt x="237" y="98" on="0"/>
        <pt x="237" y="129" on="1"/>
        <pt x="237" y="151" on="0"/>
        <pt x="215" y="205" on="0"/>
        <pt x="199" y="243" on="0"/>
        <pt x="184" y="292" on="0"/>
        <pt x="167" y="326" on="0"/>
        <pt x="159" y="342" on="1"/>
        <pt x="138" y="386" on="0"/>
        <pt x="128" y="429" on="1"/>
        <pt x="118" y="473" on="0"/>
        <pt x="110" y="487" on="1"/>
        <pt x="93" y="517" on="0"/>
        <pt x="78" y="570" on="0"/>
        <pt x="66" y="591" on="0"/>
        <pt x="53" y="606" on="0"/>
        <pt x="37" y="625" on="0"/>
        <pt x="15" y="669" on="0"/>
        <pt x="9" y="705" on="0"/>
      </contour>
    </TTGlyph>
    <TTGlyph name="bar" xMin="26" yMin="-12" xMax="135" yMax="757">
      <contour>
        <pt x="56" y="747" on="0"/>
        <pt x="62" y="754" on="0"/>
        <pt x="74" y="756" on="1"/>
        <pt x="94" y="760" on="0"/>
        <pt x="110" y="744" on="0"/>
        <pt x="124" y="737" on="0"/>
        <pt x="128" y="727" on="1"/>
        <pt x="132" y="717" on="0"/>
        <pt x="130" y="699" on="0"/>
        <pt x="134" y="686" on="1"/>
        <pt x="140" y="668" on="0"/>
        <pt x="129" y="580" on="0"/>
        <pt x="129" y="528" on="0"/>
        <pt x="124" y="503" on="0"/>
        <pt x="126" y="460" on="0"/>
        <pt x="137" y="433" on="0"/>
        <pt x="130" y="391" on="0"/>
        <pt x="133" y="352" on="0"/>
        <pt x="135" y="331" on="0"/>
        <pt x="135" y="320" on="1"/>
        <pt x="135" y="299" on="0"/>
        <pt x="127" y="263" on="1"/>
        <pt x="123" y="245" on="0"/>
        <pt x="123" y="223" on="0"/>
        <pt x="124" y="215" on="1"/>
        <pt x="127" y="191" on="0"/>
        <pt x="122" y="150" on="0"/>
        <pt x="130" y="127" on="0"/>
        <pt x="121" y="114" on="0"/>
        <pt x="130" y="96" on="0"/>
        <pt x="125" y="76" on="0"/>
        <pt x="128" y="69" on="0"/>
        <pt x="130" y="64" on="1"/>
        <pt x="138" y="40" on="0"/>
        <pt x="115" y="4" on="1"/>
        <pt x="105" y="-11" on="0"/>
        <pt x="76" y="-12" on="0"/>
        <pt x="53" y="-8" on="0"/>
        <pt x="44" y="-1" on="1"/>
        <pt x="22" y="16" on="0"/>
        <pt x="26" y="58" on="1"/>
        <pt x="28" y="88" on="0"/>
        <pt x="33" y="114" on="1"/>
        <pt x="38" y="148" on="1"/>
        <pt x="40" y="157" on="0"/>
        <pt x="40" y="185" on="0"/>
        <pt x="41" y="214" on="0"/>
        <pt x="38" y="243" on="0"/>
        <pt x="38" y="270" on="0"/>
        <pt x="38" y="284" on="1"/>
        <pt x="36" y="318" on="0"/>
        <pt x="30" y="344" on="0"/>
        <pt x="34" y="368" on="0"/>
        <pt x="37" y="379" on="1"/>
        <pt x="45" y="410" on="0"/>
        <pt x="40" y="438" on="0"/>
        <pt x="41" y="459" on="0"/>
        <pt x="44" y="468" on="1"/>
        <pt x="50" y="490" on="0"/>
        <pt x="47" y="517" on="0"/>
        <pt x="44" y="567" on="0"/>
        <pt x="41" y="594" on="0"/>
        <pt x="38" y="604" on="0"/>
        <pt x="37" y="608" on="1"/>
        <pt x="34" y="620" on="0"/>
        <pt x="38" y="641" on="0"/>
        <pt x="37" y="654" on="0"/>
        <pt x="36" y="660" on="1"/>
        <pt x="35" y="672" on="0"/>
        <pt x="44" y="706" on="0"/>
        <pt x="47" y="732" on="0"/>
      </contour>
    </TTGlyph>
</ttFont>
